<svg width="26" height="33" viewBox="0 0 26 33" fill="none" xmlns="http://www.w3.org/2000/svg">
<path d="M3.35246 20.5331C3.19667 20.5788 2.72584 20.7975 2.31361 21.155C1.86246 21.5463 1.60224 22.0074 1.41879 22.5127C1.07762 23.4524 1.31783 25.0325 1.57607 25.4757C1.88163 26.0001 2.44702 26.4074 2.8954 26.7288C3.10691 26.8804 4.13763 26.8651 5.55257 26.8888C7.67235 26.9241 10.5939 26.9856 11.4378 27.0698C12.1771 27.1436 14.1158 27.1284 16.4945 27.1413C18.106 27.1501 19.2243 27.0757 20.0521 27.0094C20.6025 26.9654 21.1494 26.8177 21.6449 26.6476C22.1321 26.4804 22.6548 26.315 23.3384 25.9925C23.8695 25.742 24.1613 25.126 24.4439 24.6387C24.8399 23.9556 24.5357 22.866 24.2773 22.3322C24.0343 21.8301 23.5822 21.4793 23.1167 21.1702C22.5693 20.8067 22.1532 20.775 21.9503 20.6842C21.4078 20.4416 21.5515 19.484 21.5515 18.7233C21.5515 17.9492 21.463 17.3177 21.4225 16.5302C21.3921 15.9387 21.2495 15.2711 21.1645 14.5951C21.0977 14.0643 20.9938 13.4594 20.9065 12.789C20.7722 11.7577 20.6387 11.4726 20.3657 10.8145C20.1313 10.2496 20.134 10.17 19.8744 9.69283C19.6238 9.23222 19.2294 8.66078 18.7134 8.14475C18.3518 7.78318 18.0683 7.47948 17.5523 7.1127C17.088 6.7827 16.5641 6.50715 15.4882 5.95165C14.8634 5.62906 13.9221 5.41048 13.3711 5.41055C12.6501 5.41064 11.231 5.41045 9.94094 5.69365C9.00367 5.89941 8.37511 6.21575 7.74784 6.59665C7.09209 6.99484 6.52749 7.36683 6.07108 7.87105C5.60687 8.38389 5.35114 8.90637 5.12822 9.37379C4.76093 10.1439 4.3651 11.3706 4.19061 11.9104C4.00617 12.481 3.95834 13.1118 3.90177 13.6867C3.83068 14.4094 3.79398 15.6262 3.70471 16.57C3.64521 17.1991 3.59246 17.7629 3.53677 18.6376C3.51821 18.8525 3.49334 19.0081 3.48053 19.286C3.46771 19.5639 3.46771 19.9594 3.46771 20.3668" stroke="#875CFF" stroke-width="2.5" stroke-linecap="round"/>
<path d="M9.13309 26.982C9.13309 27.4972 9.1777 28.7361 9.39927 29.2147C9.63211 29.7177 9.79013 30.0189 10.1985 30.463C10.4299 30.7145 11.0055 30.9851 11.2412 31.0874C12.0626 31.4441 13.4769 31.1544 13.9397 30.85C14.4266 30.5298 14.7137 30.205 15.0804 29.6136C15.3635 29.157 15.5839 28.6847 15.7104 28.141C15.733 28.0046 15.7553 27.8801 15.7668 27.7203C15.7783 27.5605 15.7783 27.3692 15.7783 27.1721" stroke="#875CFF" stroke-width="2.5" stroke-linecap="round"/>
<path d="M10.0694 5.17747C10.0694 4.69895 10.1922 3.08404 10.4538 2.63443C10.7197 2.17739 11.0556 1.80701 11.5607 1.50763C12.0658 1.20825 12.5205 1.17829 13.3846 1.3734C14.0788 1.53015 14.4161 2.03196 14.6953 2.49012C14.9827 2.96171 15.0064 3.52455 15.0783 4.53132C15.0941 4.75977 15.1146 4.8835 15.1305 5.01817C15.1464 5.15283 15.157 5.2947 15.1679 5.44086" stroke="#875CFF" stroke-width="2.5" stroke-linecap="round"/>
</svg>
