<svg width="16" height="15" viewBox="0 0 16 15" fill="none" xmlns="http://www.w3.org/2000/svg">
<path d="M14.4397 7.33467C14.4397 6.07039 14.4099 3.41034 14.3571 3.04222C14.3003 2.64592 14.2895 2.09963 14.2596 1.61414C14.2528 1.50419 14.2452 1.38365 14.2038 1.29751C13.9695 0.809691 12.8402 1.09576 11.9766 1.05926C11.2031 1.02656 10.4363 1.00204 8.89898 0.997526C6.61325 0.990817 5.07282 0.96567 4.72073 0.947486C3.28219 0.87319 1.35691 0.966428 1.21255 1.1205C0.951696 1.3989 0.97678 1.82316 0.935799 3.0685C0.92744 3.92489 0.919206 5.48531 0.922295 6.33208C0.925385 7.17885 0.940048 7.26468 0.976006 7.41601" stroke="#875CFF" stroke-width="1.84337" stroke-linecap="round"/>
<path d="M10.0415 12.0632C9.97511 12.1169 9.49459 12.499 9.13932 12.7748C8.90717 12.955 8.66772 13.1135 8.45469 13.2869C8.24414 13.4584 8.03413 13.6458 7.78425 13.8872C7.6794 13.9884 7.5562 14.0427 7.45307 14.0771C7.22782 14.1524 6.98216 13.7946 6.71212 13.6235C6.43934 13.4506 6.21855 13.2795 5.99479 13.1051C5.77409 12.9331 5.50539 12.7915 5.26099 12.6323C5.20217 12.5932 5.14303 12.5555 5.08467 12.5154C5.02632 12.4753 4.97055 12.434 4.9131 12.3914" stroke="#875CFF" stroke-width="1.84337" stroke-linecap="round"/>
<path d="M7.37964 14.0137C7.3955 13.2488 7.40449 11.6537 7.39526 11.3692C7.38915 11.1809 7.38785 10.7715 7.38762 10.1976C7.38585 9.69753 7.38066 9.3304 7.39372 8.07322C7.41066 6.94698 7.39372 5.51928 7.39372 4.33518" stroke="#875CFF" stroke-width="1.84337" stroke-linecap="round"/>
</svg>
