<svg width="18" height="20" viewBox="0 0 18 20" fill="none" xmlns="http://www.w3.org/2000/svg">
<path d="M1 18.0445C1 17.8642 1.04353 16.8929 1.13344 16.5519C1.22932 16.1883 1.2993 15.7948 1.362 15.4256C1.42062 15.0803 1.47018 14.7462 1.54101 14.3918C1.60871 14.0531 1.62202 13.7012 1.78305 13.3696C1.97774 12.9686 2.27628 12.664 2.49364 12.3914C2.71077 12.1192 2.98809 11.7866 3.25774 11.4406C3.51792 11.1067 3.80128 10.8166 4.13474 10.4098C4.39293 10.0947 4.67766 9.7837 4.92665 9.48233C5.19658 9.15562 5.47413 8.83366 5.75842 8.52352C6.10159 8.14914 6.47475 7.80153 6.7715 7.44889C7.09697 7.06214 7.46707 6.70187 7.79309 6.42738C8.17581 6.10515 8.4199 5.73575 8.80535 5.33015C9.08273 5.03827 9.48582 4.70327 9.88387 4.32684C10.1932 4.03434 10.4703 3.72801 10.7232 3.44782C11.0012 3.13976 11.2968 2.9263 11.579 2.6936C11.865 2.45775 12.0504 2.36119 12.393 2.01855C12.7356 1.67591 12.9974 1.44853 13.2815 1.25076C13.4263 1.14997 13.5636 1.03738 13.6876 1.00726C14.0012 0.931089 14.2433 1.51602 14.6202 1.8482C14.8831 2.07996 15.1729 2.46503 15.5498 2.81354C16.0518 3.2778 16.6372 3.99356 16.8473 4.2457C16.9328 4.34822 16.5047 4.75966 16.162 5.1023C15.8562 5.40813 15.6062 5.72306 15.3036 6.12234C15.0533 6.4525 14.7899 6.78831 14.5177 7.12364C14.178 7.54193 13.9127 7.82417 13.6966 8.10317C13.4412 8.43289 13.1644 8.79509 12.8514 9.18226C12.4666 9.65828 12.0661 10.0753 11.4467 10.7383C11.052 11.1608 10.5684 11.4902 9.65187 12.6404C9.15978 13.2579 8.78368 13.6392 8.45263 14.0109C8.07098 14.4395 7.85408 14.6375 7.42471 15.0389C7.04942 15.3897 6.72926 15.7238 6.39679 16.0668C6.13964 16.3321 5.88283 16.4094 5.5457 16.6314C5.07151 16.9436 4.67214 17.0429 4.37697 17.2008C3.94367 17.4325 2.90072 17.659 2.21655 17.9195C1.83669 18.0301 1.55017 18.0718 1.38801 18.1235C1.30653 18.1477 1.10091 18.2513 1 18.1938" stroke="#875CFF" stroke-width="2" stroke-linecap="round"/>
<path d="M11.7988 3.83807C11.9114 3.92472 12.2757 4.25937 13.0043 4.95782C13.4005 5.34966 13.8564 5.82105 14.16 6.17823C14.2132 6.24894 14.2618 6.31815 14.4541 6.5085" stroke="#875CFF" stroke-width="2" stroke-linecap="round"/>
</svg>
