<svg width="38" height="47" viewBox="0 0 38 47" fill="none" xmlns="http://www.w3.org/2000/svg">
<path d="M27.3955 9.30342V0.503418L36.9455 9.30342H27.3955Z" fill="#875CFF" stroke="#875CFF" stroke-linejoin="round"/>
<mask id="path-2-inside-1_2481_252" fill="white">
<path d="M37.3955 9.02637V38.207C37.3955 42.6253 33.8138 46.207 29.3955 46.207H8C3.58172 46.207 0 42.6253 0 38.207V8C3.97019e-05 3.58176 3.58175 9.66566e-08 8 0H27.5088V9.02637H37.3955L27.7383 0H27.7393L37.3955 9.02637Z"/>
</mask>
<path d="M37.3955 9.02637H41.3955C41.3955 7.91871 40.9362 6.86064 40.127 6.10424L37.3955 9.02637ZM8 46.207L8 50.207H8V46.207ZM0 8L-4 7.99996V8H0ZM8 0L8 -4L8 -4L8 0ZM27.5088 0H31.5088C31.5088 -2.20914 29.7179 -4 27.5088 -4V0ZM27.5088 9.02637H23.5088C23.5088 11.2355 25.2997 13.0264 27.5088 13.0264V9.02637ZM27.7383 0V-4C26.0958 -4 24.6203 -2.99597 24.0175 -1.46815C23.4146 0.0596674 23.807 1.80073 25.0069 2.92226L27.7383 0ZM27.7393 0L30.4708 -2.92213C29.7298 -3.61472 28.7535 -4 27.7393 -4V0ZM37.3955 9.02637H33.3955V38.207H37.3955H41.3955V9.02637H37.3955ZM37.3955 38.207H33.3955C33.3955 40.4162 31.6046 42.207 29.3955 42.207V46.207V50.207C36.0229 50.207 41.3955 44.8344 41.3955 38.207H37.3955ZM29.3955 46.207V42.207H8V46.207V50.207H29.3955V46.207ZM8 46.207L8 42.207C5.79086 42.207 4 40.4162 4 38.207H0H-4C-4 44.8344 1.37258 50.207 8 50.207L8 46.207ZM0 38.207H4V8H0H-4V38.207H0ZM0 8L4 8.00004C4.00002 5.79087 5.79092 4 8 4L8 0L8 -4C1.37257 -4 -3.99994 1.37264 -4 7.99996L0 8ZM8 0V4H27.5088V0V-4H8V0ZM27.5088 0H23.5088V9.02637H27.5088H31.5088V0H27.5088ZM27.5088 9.02637V13.0264H37.3955V9.02637V5.02637H27.5088V9.02637ZM37.3955 9.02637L40.1269 6.1041L30.4696 -2.92226L27.7383 0L25.0069 2.92226L34.6641 11.9486L37.3955 9.02637ZM27.7383 0V4H27.7393V0V-4H27.7383V0ZM27.7393 0L25.0077 2.92213L34.664 11.9485L37.3955 9.02637L40.127 6.10424L30.4708 -2.92213L27.7393 0Z" fill="#875CFF" mask="url(#path-2-inside-1_2481_252)"/>
</svg>
