<svg width="23" height="13" viewBox="0 0 23 13" fill="none" xmlns="http://www.w3.org/2000/svg">
<path d="M22.6515 9.75781C22.6514 11.105 21.5592 12.1973 20.212 12.1973C18.865 12.1972 17.7727 11.1049 17.7726 9.75781C17.7726 8.41064 18.8649 7.31847 20.212 7.31836C21.5593 7.31836 22.6515 8.41057 22.6515 9.75781Z" fill="#875CFF" stroke="#875CFF" stroke-width="0.69697"/>
<path d="M5.22717 2.78809C5.22706 4.13523 4.13489 5.22754 2.78772 5.22754C1.44064 5.22743 0.348378 4.13516 0.348266 2.78809C0.348267 1.44091 1.44058 0.348745 2.78772 0.348633C4.13496 0.348633 5.22717 1.44085 5.22717 2.78809Z" fill="#875CFF" stroke="#875CFF" stroke-width="0.69697"/>
<path d="M19.5153 2.78809L4.18193 2.78809" stroke="#875CFF" stroke-width="2.09091" stroke-linecap="round"/>
<path d="M19.5153 9.75732L4.18193 9.75732" stroke="#875CFF" stroke-width="2.09091" stroke-linecap="round"/>
</svg>
