<svg width="37" height="48" viewBox="0 0 37 48" fill="none" xmlns="http://www.w3.org/2000/svg">
<path d="M32.8075 6.29736C34.5364 6.27733 35.9218 4.8595 35.9017 3.13055C35.8817 1.40159 34.4639 0.0162366 32.7349 0.0362644C31.006 0.0562922 29.6206 1.47412 29.6406 3.20307C29.6607 4.93203 31.0785 6.31739 32.8075 6.29736Z" fill="#875CFF"/>
<path d="M17.3708 47.6949C17.0432 47.6987 16.7063 47.6934 16.3662 47.6818C8.14094 47.3599 4.22783 43.075 2.39421 39.5387C1.09489 37.0348 0.389626 34.0511 0.353291 30.9144C0.313233 27.4562 1.16387 16.0414 13.7868 13.6543C16.291 13.1803 18.9337 13.1836 21.6436 13.6591C23.3625 13.9607 25.7797 14.5106 28.5232 15.4834L29.1124 11.1124C29.3401 9.42215 30.8995 8.23577 32.5897 8.46345C34.28 8.69114 35.4663 10.2475 35.2387 11.9408L32.3636 33.2356C32.2972 33.9071 31.8838 37.1696 29.9747 40.4617C28.0596 43.7663 24.3335 47.6174 17.3678 47.6981L17.3708 47.6949ZM17.4458 19.4814C16.5867 19.4913 15.75 19.5721 14.9389 19.7267C7.5311 21.1292 6.49588 27.2826 6.5369 30.8242C6.58154 34.6779 7.94864 41.1651 16.6099 41.5036C25.0855 41.8351 26.13 33.5458 26.221 32.599L26.235 32.4659L27.6811 21.7643C24.8338 20.6383 22.2956 20.0495 20.5767 19.7449C19.5082 19.5564 18.4625 19.4696 17.4489 19.4813L17.4458 19.4814Z" fill="#875CFF"/>
</svg>
