<svg width="163" height="93" viewBox="0 0 163 93" fill="none" xmlns="http://www.w3.org/2000/svg">
<path d="M105.672 17.0062C102.393 16.8576 99.6074 19.4016 99.4646 22.6826C99.4587 22.8728 98.929 34.0413 96.6795 48.8C95.1322 47.2011 93.4004 45.6319 91.4842 44.0924C86.1223 39.7772 81.1948 37.2748 80.9865 37.1737C78.0586 35.6997 74.4879 36.8706 73.0002 39.789C71.5124 42.7134 72.6848 46.2857 75.6067 47.7776C79.7606 49.8936 90.6689 56.9966 93.6147 65.3655C92.234 71.6185 90.5439 78.02 88.473 84.1541C87.4256 87.2627 89.0978 90.6389 92.2102 91.685C92.8411 91.899 93.4838 92 94.1146 92C96.5962 92 98.9171 90.4368 99.7502 87.9522C109.7 58.4825 111.289 24.6322 111.349 23.2056C111.492 19.9246 108.951 17.1548 105.666 17.0062H105.672Z" fill="#875CFF"/>
<path d="M63.9795 12.2366C67.3586 12.2366 70.0978 9.49731 70.0978 6.11828C70.0978 2.73925 67.3586 0 63.9795 0C60.6005 0 57.8613 2.73925 57.8613 6.11828C57.8613 9.49731 60.6005 12.2366 63.9795 12.2366Z" fill="#875CFF"/>
<path d="M32.8744 92.7827C32.2342 92.7827 31.5759 92.7646 30.9115 92.7344C14.8457 91.919 7.29603 83.4573 3.79297 76.5056C1.31063 71.5832 0 65.7367 0 59.6063C0 52.8478 1.92063 30.5611 26.6414 26.1823C31.5457 25.3126 36.7097 25.379 41.9945 26.3695C45.3465 26.9977 50.0575 28.1271 55.3967 30.09L56.6469 21.5619C57.1301 18.2642 60.2043 15.9811 63.502 16.4643C66.7997 16.9475 69.0828 20.0157 68.5996 23.3194L62.4994 64.8669C62.3545 66.1776 61.4727 72.5435 57.6676 78.9335C53.8505 85.3478 46.482 92.7888 32.8684 92.7888L32.8744 92.7827ZM33.6596 37.6518C31.9805 37.6518 30.3437 37.7907 28.7553 38.0746C14.2478 40.6475 12.0855 52.6485 12.0855 59.5701C12.0855 67.1017 14.6102 79.8093 31.5275 80.667C48.0825 81.5065 50.3112 65.332 50.5105 63.4838L50.5407 63.2241L53.6089 42.3447C48.0704 40.0798 43.1239 38.8718 39.7718 38.2376C37.6881 37.8451 35.6467 37.6518 33.6656 37.6518H33.6596Z" fill="#875CFF"/>
<path d="M136.054 93C125.501 93 117.833 84.8878 113.922 76.4554C112.521 73.4352 113.803 69.8351 116.784 68.4216C119.765 67.0021 123.319 68.3008 124.714 71.321C126.669 75.5312 131.04 82.3447 138.397 80.6353C142.201 79.7534 144.168 77.3795 145.152 75.5372C147.447 71.2485 146.845 65.7155 143.614 61.4329C141.306 58.3765 137.771 54.9636 132.804 51.0011C124.97 44.7493 121.476 35.9726 123.676 28.0899C125.507 21.5482 131.034 16.9635 138.111 16.136C150.661 14.6621 158.925 25.5107 161.84 32.1551C163.176 35.2055 161.822 38.7754 158.811 40.1284C155.812 41.4815 152.295 40.1163 150.953 37.0841C150.84 36.8425 146.422 27.3167 139.482 28.1382C137.199 28.404 135.654 29.5577 135.148 31.3819C134.504 33.6894 135.434 37.7243 140.18 41.5117C145.939 46.1084 150.16 50.2219 153.082 54.0878C159.169 62.1457 160.165 72.819 155.633 81.2937C152.587 86.9838 147.412 90.9342 141.056 92.408C139.321 92.8128 137.652 93 136.048 93H136.054Z" fill="#875CFF"/>
</svg>
