<svg width="42" height="42" viewBox="0 0 42 42" fill="none" xmlns="http://www.w3.org/2000/svg">
<circle cx="21" cy="21" r="19.75" stroke="#875CFF" stroke-width="2.5"/>
<path d="M9.73392 37.0016C9.79056 36.2181 10.363 33.4795 10.8129 32.4518C11.0946 31.8084 11.5646 31.1994 11.8914 30.6568C12.2577 30.0484 12.6853 29.6276 13.0898 29.1083C13.7114 28.3104 14.3115 27.9833 14.8178 27.6715C15.8363 27.0442 17.0115 26.6413 17.6986 26.36C18.7878 25.9141 20.1195 25.8347 21.0291 25.7772C22.8831 25.6601 25.2583 26.0331 26.5557 26.4458C27.5484 26.7616 28.0823 27.0373 28.6599 27.325C29.4398 27.7134 29.9561 28.0533 30.4862 28.4626C31.039 28.8896 31.4012 29.3654 31.8521 29.904C32.2512 30.3807 32.5778 30.9039 32.8301 31.4338C33.1377 32.08 33.315 32.6751 33.601 33.5358C33.789 34.3295 33.9068 34.9372 33.9298 35.2163C33.9375 35.3623 33.9371 35.5169 33.9367 35.6762" stroke="#875CFF" stroke-width="2.5" stroke-linecap="round"/>
<path d="M14.4213 20.4851C14.5384 21.117 15.2675 22.8876 15.9944 23.7263C16.6096 24.4362 17.4168 24.7803 18.2016 25.1185C19.0067 25.4654 19.9418 25.6692 20.8421 25.6844C22.3508 25.7098 24.4102 24.7628 25.1281 24.2261C25.9583 23.6054 26.5736 22.7915 27.1188 22.0667C27.6369 21.3779 27.8164 20.4884 28.1174 19.5731C28.3967 18.7236 28.18 17.7613 27.838 16.2636C27.397 14.3327 26.6307 13.4173 25.7881 12.5279C24.963 11.657 23.869 11.3395 22.9502 10.973C22.015 10.5999 21.1289 10.6232 20.1991 10.7355C18.8862 10.8941 17.1267 11.9457 16.0156 13.0083C15.2851 13.7069 14.9535 14.5481 14.5176 15.4459C14.1227 16.2593 14.0133 17.1136 14.01 17.95C13.9972 18.4039 13.9914 18.8493 14.0572 19.4223C14.1201 19.7905 14.2428 20.3159 14.3693 20.8572" stroke="#875CFF" stroke-width="2.5" stroke-linecap="round"/>
</svg>
