<svg width="15" height="19" viewBox="0 0 15 19" fill="none" xmlns="http://www.w3.org/2000/svg">
<path d="M7 3V16.6047L7.55556 18L8 16.6047V3" stroke="#875CFF" stroke-linejoin="round"/>
<path d="M14 10H1.325H1L1.04823 9.63641C1.30953 7.66665 2.50049 5.94204 4.25 5V1H10.2857V5C12.0631 5.95703 13.3651 7.60695 13.8828 9.55809L14 10Z" fill="white"/>
<path d="M4.25 1H10.2857V5C12.0631 5.95703 13.3651 7.60695 13.8828 9.55809L14 10H1.325H1L1.04823 9.63641C1.30953 7.66665 2.50049 5.94204 4.25 5V1ZM4.25 1L2.5 1H12" stroke="#875CFF" stroke-width="2" stroke-linecap="round" stroke-linejoin="round"/>
</svg>
