<svg width="25" height="6" viewBox="0 0 25 6" fill="none" xmlns="http://www.w3.org/2000/svg">
<path d="M5.14551 2.82227C5.14551 4.10489 4.10582 5.14534 2.82324 5.14551C1.54052 5.14551 0.5 4.10499 0.5 2.82227C0.50017 1.53968 1.54062 0.5 2.82324 0.5C4.10572 0.50017 5.14534 1.53979 5.14551 2.82227Z" fill="#875CFF" stroke="#875CFF"/>
<path d="M14.8223 2.82227C14.8223 4.10489 13.7826 5.14534 12.5 5.14551C11.2173 5.14551 10.1768 4.10499 10.1768 2.82227C10.1769 1.53968 11.2174 0.5 12.5 0.5C13.7825 0.50017 14.8221 1.53979 14.8223 2.82227Z" fill="#875CFF" stroke="#875CFF"/>
<path d="M24.5 2.82227C24.5 4.10489 23.4603 5.14534 22.1777 5.14551C20.895 5.14551 19.8545 4.10499 19.8545 2.82227C19.8547 1.53968 20.8951 0.5 22.1777 0.5C23.4602 0.50017 24.4998 1.53979 24.5 2.82227Z" fill="#875CFF" stroke="#875CFF"/>
</svg>
