<svg width="23" height="22" viewBox="0 0 23 22" fill="none" xmlns="http://www.w3.org/2000/svg">
<path d="M16.2252 14.9834C16.3583 15.047 16.7584 15.3166 17.1176 15.6303C17.5156 15.9781 17.9476 16.4764 18.385 16.86C18.9791 17.3809 19.4953 17.955 20.0851 18.5224C20.4654 18.8882 20.9342 19.2671 21.3381 19.6119C21.4299 19.684 21.5249 19.7498 21.6167 19.8217C21.7085 19.8936 21.7943 19.9696 21.9389 20.1288" stroke="#875CFF" stroke-width="2" stroke-linecap="round"/>
<path d="M5.23748 1.7771C5.99898 1.38392 8.38292 1 9.00288 1C9.52886 1.017 10.0394 1.03349 10.4029 1.07735C10.7663 1.12121 12.2976 1.48634 12.5018 1.56609C13.2974 1.93162 13.5127 2.0975 14.2552 2.52639C15.0198 2.96802 15.1501 3.25591 15.8278 4.11023C16.4968 4.95372 17.0381 6.01541 17.2345 6.9239C17.7455 9.28643 17.5403 11.2685 17.2268 12.142C16.9339 12.9582 16.5952 13.9603 15.9774 14.7121C15.3836 15.4347 14.7255 16.2204 13.9028 16.7381C12.9833 17.3166 11.7503 17.762 10.0525 17.8986C8.95502 17.9869 7.86143 17.7609 6.99092 17.5123C6.1791 17.2804 5.38743 17.117 4.48605 16.5132C3.66138 15.9607 2.83004 15.2025 2.48211 14.7121C1.95046 13.9628 1.20604 12.1349 1.03341 10.2359C0.861475 8.34446 1.39396 6.54749 1.69979 5.70037C2.01566 4.8254 2.59339 3.89893 3.19133 3.24424C3.81526 2.56109 4.44873 2.18434 5.23748 1.7771Z" stroke="#875CFF" stroke-width="2" stroke-linecap="round"/>
<path d="M6.23425 10.5146C6.23425 10.0431 6.27102 8.92581 6.38219 8.51094C6.50554 8.05066 6.80795 7.72315 7.0528 7.37715C7.30585 7.01956 7.67111 6.75763 8.05517 6.56696C8.44398 6.39612 8.73992 6.29812 9.02929 6.25422C9.21657 6.23637 9.48594 6.22751 9.76348 6.24242" stroke="#875CFF" stroke-width="2" stroke-linecap="round"/>
</svg>
