<svg width="29" height="29" viewBox="0 0 29 29" fill="none" xmlns="http://www.w3.org/2000/svg">
<path d="M11.8533 1.25C11.6107 1.25281 10.9398 1.32145 10.4876 1.46781C10.0457 1.61086 9.57219 1.71276 9.1001 1.90446C8.64518 2.08919 8.17413 2.20809 7.75894 2.39713C7.29688 2.60751 6.74646 2.88756 6.35514 3.19047C5.97676 3.48337 5.53835 3.73976 5.1745 4.00029C4.7914 4.27461 4.42884 4.65758 4.10977 5.03697C3.76044 5.45235 3.48769 5.8569 3.13326 6.4233C2.77552 6.99496 2.40434 7.75528 2.10937 8.32235C1.86753 8.78727 1.71345 9.3202 1.56448 9.85166C1.43428 10.3161 1.3973 10.841 1.319 11.3515C1.22665 11.9536 1.23214 13.7264 1.30494 14.7264C1.3445 15.2698 1.60799 15.6866 1.75485 16.1846C1.89813 16.6704 2.06929 17.1073 2.243 17.5813C2.50614 18.2993 2.92478 18.9399 3.24097 19.4418C3.49355 19.8428 3.81859 20.1837 4.30144 20.6437C4.92616 21.2388 5.32356 21.5074 5.75437 21.7933C6.13167 22.0437 6.70518 22.3445 7.70298 22.8398C8.52375 23.2473 9.01915 23.2932 9.47652 23.4018C9.94212 23.5125 10.5879 23.5121 13.3028 23.5007C14.1907 23.497 14.6542 23.2467 15.1385 23.068C15.7372 22.847 17.0024 22.2346 17.6774 21.8465C18.108 21.5989 18.478 21.339 18.8465 21.0368C19.2447 20.7101 19.5885 20.4283 19.9632 20.1043C20.3495 19.7703 20.6828 19.3185 20.9648 18.9388C21.2772 18.5182 21.6042 17.7801 21.8215 17.1884C21.9873 16.737 22.0825 16.2831 22.1995 15.8409C22.3184 15.3915 22.4218 14.9124 22.5056 14.4582C22.5872 14.0164 22.6461 13.5525 22.7298 13.0864C22.9221 12.015 22.7279 10.3058 22.5939 9.81046C22.4378 9.23302 22.3104 8.75443 22.1389 8.28651C21.9456 7.75922 21.7775 7.29264 21.5529 6.86002C21.3464 6.4623 21.0842 6.08412 20.798 5.68092C20.5212 5.29104 20.203 4.91296 19.9104 4.55212" stroke="#875CFF" stroke-width="2.5" stroke-linecap="round"/>
<path d="M20.1019 20.2833C20.1939 20.3687 20.4777 20.7049 20.798 21.0262C21.1673 21.3966 21.5999 21.7768 21.9664 22.1367C22.2954 22.4597 22.666 22.8003 23.2817 23.4363C23.7402 23.9098 24.3045 24.4563 24.8418 24.9561C25.6912 25.7809 26.2513 26.31 26.6114 26.5936C26.7033 26.6607 26.793 26.7217 27.0478 26.9169" stroke="#875CFF" stroke-width="2.5" stroke-linecap="round"/>
</svg>
