<svg width="13" height="20" viewBox="0 0 13 20" fill="none" xmlns="http://www.w3.org/2000/svg">
<path d="M3.18765 3.87027C2.59696 4.32885 1.79801 4.96421 1.68762 5.05347H10.6876L10.2145 4.50774C10.1189 4.43694 10.0262 4.36822 9.92918 4.30157C9.83215 4.23492 9.73381 4.17224 9.63602 4.10726C9.22967 3.84247 8.7829 3.60707 8.41596 3.32108C8.04392 3.03112 7.67682 2.74665 7.22328 2.45924C6.77429 2.17471 6.36584 1.57977 5.99132 1.70493C5.81986 1.76223 5.61501 1.85245 5.44068 2.02081C5.02522 2.42207 4.67603 2.73373 4.32596 3.0188C3.97177 3.30722 3.57364 3.5706 3.18765 3.87027Z" stroke="white" stroke-width="3.375" stroke-linecap="round" stroke-linejoin="round"/>
<path d="M6.11389 1.81006C6.08751 3.08186 6.07257 5.73382 6.08792 6.20693C6.09809 6.52006 6.10024 7.2007 6.10063 8.15495C6.10357 8.98634 6.1122 9.59677 6.09049 11.687C6.06231 13.5596 6.09049 15.9334 6.09049 17.9021" stroke="white" stroke-width="3.375" stroke-linecap="round"/>
</svg>
