<svg width="25" height="26" viewBox="0 0 25 26" fill="none" xmlns="http://www.w3.org/2000/svg">
<path d="M5.94845 6.77871C5.99643 6.69516 6.19561 6.37088 6.43466 6.04188C6.75904 5.59542 7.11555 5.47175 7.42482 5.21228C7.71657 4.96751 8.0551 4.82164 8.38291 4.66821C8.69394 4.52262 9.02564 4.42244 9.33895 4.30229C10.0383 4.0341 9.46445 2.2704 9.7518 1.49783C9.90622 1.08267 11.3393 1.31457 11.9508 1.31454C13.6634 1.31444 14.0788 1.31454 14.4101 1.31454C14.7073 1.31454 15.0045 1.37889 15.0045 1.58215C15.0045 2.24707 14.9995 2.58105 14.9995 2.98812C14.9995 3.53888 15.0188 4.03344 15.074 4.26609C15.1805 4.71537 16.0393 4.90973 16.3913 5.07829C16.7231 5.23715 17.0848 5.37796 17.3467 5.58423C17.7188 5.87727 17.9073 5.96835 18.1488 6.18258C18.2101 6.23697 18.2875 6.27157 18.4206 6.25404C19.0676 6.1688 19.4356 5.90267 20.2331 5.56404C20.4881 5.45575 20.6436 5.37822 20.799 5.34593C21.124 5.27843 21.429 5.78381 21.6836 6.09866C21.9003 6.3668 22.0811 6.65012 22.3262 7.03984C22.5324 7.36773 22.7469 7.63349 22.9814 8.08658C23.1573 8.42641 23.2533 8.75822 23.3217 9.06838C23.3964 9.40719 22.7998 9.52348 22.5248 9.73254C22.2402 9.94889 21.9813 10.1708 21.6396 10.4028C21.1532 10.7331 20.9217 10.839 20.8275 10.99C20.5881 11.3735 20.8524 11.7989 20.8611 13.4857C20.8643 14.1193 20.75 14.458 20.8566 14.7638C20.9733 15.0984 21.4159 15.215 21.7132 15.4282C22.0215 15.6492 22.2838 15.9186 22.5491 16.1216C22.6817 16.2231 22.8064 16.3341 22.8776 16.4736C23.0526 16.8163 22.5269 17.5374 22.2765 17.9747C22.0793 18.3192 21.8561 18.5974 21.6806 18.8866C21.5085 19.1702 21.3523 19.48 21.1766 19.7787C21.1333 19.8522 21.0816 19.9195 20.9844 19.9581C20.5499 20.1304 20.2127 19.8156 19.9178 19.6699C19.6179 19.5218 19.3267 19.3413 19.0074 19.1861C18.7053 19.0393 18.4679 18.9552 18.3004 18.9354C17.8727 18.8846 17.6481 19.3451 17.3629 19.5415C17.0893 19.73 16.832 19.9681 16.5368 20.1633C16.2399 20.3596 15.9281 20.481 15.5822 20.6266C15.4941 20.6651 15.4108 20.7026 15.3311 20.7433C15.2513 20.7841 15.1777 20.8271 14.9093 20.9782" stroke="#875CFF" stroke-width="2.5" stroke-linecap="round"/>
<path d="M14.8719 20.9803C14.8719 21.7936 14.8301 23.5218 14.7315 23.8393C14.7063 23.9207 14.6963 24.0072 14.6588 24.0785C14.5845 24.2198 13.0451 24.2606 10.7862 24.2641C9.98048 24.2653 9.86631 24.2744 9.78384 24.2438C9.47317 24.1286 9.55196 23.5421 9.5315 23.1891C9.50061 22.6561 9.53135 21.9142 9.4995 21.5153C9.46377 21.0676 8.74287 21.2013 8.43733 20.9875C8.10659 20.756 7.82031 20.5648 7.53648 20.3538C7.26365 20.151 7.02407 19.8709 6.83248 19.5911C6.73832 19.4536 6.62842 19.3289 6.50025 19.2722C6.21946 19.148 5.94406 19.6089 5.63801 19.7499C5.32481 19.8942 4.9726 20.0402 4.63381 20.2238C4.3256 20.3908 3.98771 20.4902 3.68163 20.6132C3.60841 20.6426 3.52167 20.5791 3.46138 20.5158C3.20579 20.2477 3.06012 19.8905 2.85738 19.5835C2.63864 19.2523 2.4325 18.9667 2.27897 18.6478C2.10222 18.2807 1.92148 17.993 1.73947 17.6815C1.56081 17.3757 1.45274 17.0491 1.31031 16.7492C1.27367 16.6721 1.21285 16.5585 1.2807 16.5196C1.67626 16.2923 1.87464 16.0936 2.28895 15.8029C2.5689 15.6066 2.8449 15.3651 3.15193 15.1886C3.22653 15.1492 3.30203 15.1143 3.3744 15.069C3.44677 15.0238 3.51374 14.9692 3.64386 14.8719" stroke="#875CFF" stroke-width="2.5" stroke-linecap="round"/>
<path d="M3.90337 14.8717C3.87436 14.7634 3.78789 14.4133 3.70791 14.0878C3.62641 13.7562 3.57905 13.3981 3.5042 11.4033C3.48923 11.0042 3.37074 10.9913 3.29099 10.9581C2.93471 10.8099 2.6056 10.5188 2.28799 10.3305C1.96176 10.1371 1.78185 10.018 1.42912 9.73214C1.01102 9.3933 1.42154 8.98431 1.68372 8.50554C1.90793 8.09611 2.22036 7.59033 2.38488 7.17752C2.53174 6.80903 2.80993 6.39159 3.02255 5.99374C3.18359 5.69238 3.4252 5.452 3.67313 5.28369C3.95794 5.09034 4.30557 5.62826 4.62519 5.82835C4.95369 6.034 5.23682 6.26188 5.50985 6.46897C5.57814 6.51462 5.64603 6.55648 5.71608 6.59797C5.78613 6.63946 5.85628 6.67932 5.94727 6.7396" stroke="#875CFF" stroke-width="2.5" stroke-linecap="round"/>
<path d="M10.577 9.79373C10.8746 9.62998 11.8062 9.47009 12.0484 9.47009C12.254 9.47717 12.4535 9.48404 12.5955 9.50231C12.7375 9.52057 13.3359 9.67264 13.4157 9.70585C13.7266 9.85808 13.8107 9.92716 14.1009 10.1058C14.3996 10.2897 14.4506 10.4096 14.7154 10.7654C14.9768 11.1167 15.2207 11.553 15.2651 11.9372C15.3531 12.699 15.3846 13.7465 15.2621 14.1103C15.1476 14.4503 15.0152 14.8676 14.7738 15.1807C14.5418 15.4816 14.2846 15.8089 13.9631 16.0244C13.6038 16.2654 13.122 16.4509 12.4586 16.5078C12.0297 16.5445 11.6024 16.4504 11.2622 16.3469C10.945 16.2503 10.6356 16.1823 10.2834 15.9308C9.96114 15.7007 9.63628 15.3849 9.50032 15.1807C9.29257 14.8686 8.99419 14.0042 9.00181 13.4245C9.01867 12.1428 9.07511 11.7804 9.19461 11.4276C9.31805 11.0632 9.45951 10.7149 9.69317 10.4423C9.93698 10.1578 10.2688 9.96333 10.577 9.79373Z" stroke="#875CFF" stroke-width="2.5" stroke-linecap="round"/>
</svg>
