<svg width="16" height="15" viewBox="0 0 16 15" fill="none" xmlns="http://www.w3.org/2000/svg">
<path d="M0.921631 7.67461C0.921631 8.93889 0.951408 11.5989 1.0042 11.967C1.06103 12.3634 1.07187 12.9096 1.10176 13.3951C1.10853 13.5051 1.11609 13.6256 1.15748 13.7118C1.39186 14.1996 2.52114 13.9135 3.3847 13.95C4.15824 13.9827 4.92506 14.0072 6.46235 14.0117C8.74808 14.0184 10.2885 14.0436 10.6406 14.0618C12.0791 14.1361 14.0044 14.0428 14.1488 13.8888C14.4096 13.6104 14.3846 13.1861 14.4255 11.9408C14.4339 11.0844 14.4421 9.52397 14.439 8.6772C14.4359 7.83043 14.4213 7.74459 14.3853 7.59326" stroke="white" stroke-width="1.84337" stroke-linecap="round"/>
<path d="M5.31958 2.9461C5.38597 2.89241 5.8665 2.51028 6.22176 2.23447C6.45391 2.05423 6.69337 1.89582 6.90639 1.72236C7.11694 1.5509 7.32696 1.36346 7.57684 1.12212C7.68168 1.02086 7.80489 0.966603 7.90801 0.932139C8.13326 0.856861 8.37893 1.21468 8.64897 1.38581C8.92174 1.55868 9.14254 1.72977 9.3663 1.90416C9.58699 2.07617 9.8557 2.21775 10.1001 2.37701C10.1589 2.41609 10.2181 2.45379 10.2764 2.49387C10.3348 2.53396 10.3905 2.57529 10.448 2.61787" stroke="white" stroke-width="1.84337" stroke-linecap="round"/>
<path d="M7.98145 0.995117C7.96558 1.76004 7.95659 3.35504 7.96583 3.63959C7.97194 3.82792 7.97323 4.23728 7.97347 4.81122C7.97524 5.31125 7.98043 5.67839 7.96737 6.93556C7.95042 8.06179 7.96737 9.4895 7.96737 10.6736" stroke="white" stroke-width="1.84337" stroke-linecap="round"/>
</svg>
