<svg width="17" height="16" viewBox="0 0 17 16" fill="none" xmlns="http://www.w3.org/2000/svg">
<path d="M6.87249 1.03657C7.32151 -0.345392 9.27663 -0.345394 9.72566 1.03657L10.6565 3.90132C10.8573 4.51935 11.4332 4.93779 12.0831 4.93779H15.0952C16.5483 4.93779 17.1525 6.79721 15.9769 7.65132L13.54 9.42183C13.0143 9.80379 12.7943 10.4808 12.9951 11.0989L13.9259 13.9636C14.3749 15.3456 12.7932 16.4948 11.6176 15.6407L9.18075 13.8702C8.65502 13.4882 7.94313 13.4882 7.41739 13.8702L4.9805 15.6407C3.80493 16.4948 2.22321 15.3456 2.67223 13.9636L3.60305 11.0989C3.80386 10.4808 3.58387 9.80379 3.05814 9.42183L0.621243 7.65132C-0.554328 6.79722 0.0498352 4.93779 1.50292 4.93779H4.51509C5.16493 4.93779 5.74086 4.51935 5.94168 3.90132L6.87249 1.03657Z" fill="#875CFF"/>
</svg>
