<svg width="15" height="32" viewBox="0 0 15 32" fill="none" xmlns="http://www.w3.org/2000/svg">
<path d="M12.2472 7.48763C12.0468 7.379 11.4632 6.92154 10.8412 6.56638C10.2069 6.20426 9.50226 5.93606 7.36575 5.82127C4.58629 5.67194 3.87371 6.1988 3.22379 6.60873C2.55533 7.03035 2.183 7.70847 1.80883 8.36523C1.42571 9.0377 1.29888 9.8052 1.25081 11.3894C1.2236 12.2862 1.8978 12.8631 2.35969 13.4174C2.85003 14.0058 3.54257 14.3152 4.19045 14.6612C4.8385 15.0072 5.61896 15.1371 6.35049 15.3123C7.07423 15.4858 7.77373 15.6472 8.51739 15.8787C9.24827 16.1061 9.94064 16.4571 10.5915 16.8204C11.384 17.2628 12.0736 18.2027 12.4577 18.8955C12.8214 19.5517 12.8643 20.3513 12.8588 22.5547C12.8562 23.6194 12.2386 24.3291 11.4974 25.0523C10.8937 25.6413 9.79492 26.0609 8.92074 26.3692C8.2002 26.6233 6.339 26.6095 5.07274 26.4169C4.29561 26.2987 3.6984 25.8119 3.01883 25.3744C2.69531 25.1776 2.30157 24.8233 2.01562 24.5777C1.87894 24.4508 1.75935 24.3194 1.59464 24.1839" stroke="#875CFF" stroke-width="2.5" stroke-linecap="round"/>
<path d="M6.91654 1.25C6.91654 1.27693 6.91654 1.30386 6.91654 1.66509C6.91654 2.02632 6.91654 2.72104 6.9089 3.32951C6.90125 3.93798 6.88596 4.43916 6.8702 4.95553" stroke="#875CFF" stroke-width="2.5" stroke-linecap="round"/>
<path d="M6.96351 26.892C6.96351 26.9055 6.96351 26.919 6.96351 27.4848C6.96351 28.0507 6.96351 29.1685 7.00639 30.7013" stroke="#875CFF" stroke-width="2.5" stroke-linecap="round"/>
</svg>
