<svg width="24" height="34" viewBox="0 0 24 34" fill="none" xmlns="http://www.w3.org/2000/svg">
<path d="M1.25 1.76722C1.2501 1.77598 1.25021 1.78473 1.28769 5.02044C1.32517 8.25616 1.40003 14.7186 1.44789 18.3382C1.50344 22.5389 1.55664 23.2649 1.59358 23.6208C1.65074 24.1715 1.62797 24.6916 1.70427 24.9765C1.83664 25.4708 3.53306 25.0403 4.38371 24.9866C4.63131 24.971 5.0073 24.9376 6.04692 24.904C8.15187 24.8358 9.94003 24.8389 10.7746 24.851C11.5441 24.8623 12.0569 24.8919 13.7481 24.9067C15.3029 24.9203 18.272 24.8555 19.8624 24.8371C20.6207 24.8283 21.2262 24.8618 21.7953 24.7849C22.6067 24.6753 22.3301 23.2483 22.2696 21.8085C22.2372 21.038 22.2492 20.0482 22.2373 19.023C22.2296 18.3576 22.2658 17.6553 22.2033 16.0861C22.1573 14.9336 22.0653 14.432 22.0076 13.8412C21.9739 13.4974 21.9217 13.2 21.8857 12.1369C21.7934 9.41212 21.7327 7.47761 21.5926 7.27957C21.3112 6.8821 20.9554 6.5156 20.6023 6.09343C20.1748 5.58228 19.8023 5.21138 19.4653 4.82824C19.0824 4.39293 18.7418 4.01362 18.3924 3.60689C18.0484 3.20641 17.5509 2.76311 17.1243 2.33054C16.7064 1.90695 16.4161 1.57653 16.2412 1.42358C16.0621 1.26701 14.4898 1.27808 12.2008 1.29963C10.7057 1.3137 10.2754 1.25358 8.83445 1.25024C7.58593 1.24735 5.28722 1.27131 4.04465 1.29141C2.45206 1.37912 2.03614 1.43289 1.68899 1.45544C1.52846 1.46664 1.39968 1.47732 1.267 1.48834" stroke="#875CFF" stroke-width="2.5" stroke-linecap="round"/>
<path d="M16.1819 1.51024C16.188 2.03759 16.2298 3.2438 16.3222 3.82031C16.403 4.32402 16.4696 5.04035 16.5293 6.21577C16.5613 6.84478 16.6092 7.3307 16.6732 7.54283C18.1874 7.43356 20.9166 7.39277 21.1943 7.41417C21.3286 7.42745 21.4494 7.44563 21.7099 7.49246" stroke="#875CFF" stroke-width="2.5" stroke-linecap="round"/>
<path d="M8.76598 18.7481C8.93437 18.5596 9.51117 17.6214 9.84706 16.9825C10.1063 16.4894 10.4331 16.0622 10.7081 15.6375C10.9834 15.2124 11.1971 14.7979 11.4699 14.4601C11.7958 14.0566 12.6136 14.8471 13.1114 15.0102C13.6052 15.1719 14.0747 15.3984 14.55 15.5612C15.0146 15.7172 15.3489 15.8326 15.5777 15.9004C15.6914 15.9375 15.8004 15.9802 16.0074 16.1095" stroke="#875CFF" stroke-width="2.5" stroke-linecap="round"/>
<path d="M11.9199 14.4472C11.9217 14.6057 11.9945 15.1019 12.1275 15.6101C12.2595 16.1149 12.3437 16.5827 12.4276 17.0465C12.5153 17.5313 12.5936 18.5438 12.6711 19.3434C12.7251 19.9004 12.7554 20.4637 12.8366 24.5329C12.8683 26.1274 12.7804 26.8221 12.7073 27.2901C12.6303 27.7825 12.5196 28.2908 12.4173 28.7983C12.3139 29.3108 12.2263 29.7862 12.1439 30.2936C12.0644 30.783 11.9294 31.2656 11.843 31.7287C11.8242 31.8455 11.8057 31.9615 11.7822 32.0767C11.7586 32.192 11.7307 32.3031 11.6166 32.6969" stroke="#875CFF" stroke-width="2.5" stroke-linecap="round"/>
</svg>
