<svg width="28" height="30" viewBox="0 0 28 30" fill="none" xmlns="http://www.w3.org/2000/svg">
<path d="M9.88232 17.3075C9.97708 17.2309 10.6629 16.6855 11.17 16.2919C11.5013 16.0346 11.8431 15.8085 12.1471 15.5609C12.4476 15.3162 12.7473 15.0487 13.104 14.7043C13.2536 14.5597 13.4295 14.4823 13.5767 14.4331C13.8981 14.3257 14.2488 14.8364 14.6342 15.0806C15.0235 15.3273 15.3386 15.5715 15.658 15.8204C15.973 16.0659 16.3565 16.268 16.7053 16.4953C16.7892 16.5511 16.8737 16.6049 16.957 16.6621C17.0402 16.7193 17.1198 16.7783 17.2018 16.8391" stroke="#875CFF" stroke-width="2" stroke-linecap="round"/>
<path d="M13.6816 14.5234C13.659 15.6152 13.6462 17.8916 13.6593 18.2977C13.6681 18.5666 13.6699 19.1508 13.6703 19.97C13.6728 20.6836 13.6802 21.2076 13.6615 23.0019C13.6374 24.6093 13.6615 26.647 13.6615 28.337" stroke="#875CFF" stroke-width="2" stroke-linecap="round"/>
<path d="M1.71613 6.09189C2.24429 6.09189 2.77244 6.09189 6.6074 6.09189C10.4424 6.09189 17.5681 6.09189 21.239 6.33371C24.9098 6.57553 24.9098 7.05916 24.9398 7.40629C25.0187 8.31839 25.2166 9.30531 25.2718 10.2156C25.3098 10.8428 25.403 11.4108 25.4576 12.1889C25.5056 12.8709 25.614 13.5997 25.6767 14.2255C25.7485 14.9421 25.786 16.4992 25.8447 17.4893C25.8831 18.1363 25.9345 20.2531 26.0055 21.6765C26.0151 21.8686 26.0325 22.0877 25.8089 22.2402C25.5853 22.3927 25.1272 22.4713 21.136 22.5119C17.1448 22.5524 9.95556 22.4379 5.91111 22.4379C2.30379 22.4379 1.89468 22.5309 1.86667 22.1081C1.79361 21.0053 1.60092 19.1462 1.57035 18.1437C1.54906 17.4453 1.46438 16.7559 1.42214 16.1205C1.35673 15.1366 1.35563 13.7422 1.30277 12.4624C1.24925 11.1667 1.20066 10.1424 1.15177 5.67921C1.13471 4.12184 1.05823 4.94218 1.01277 3.61508C0.994377 3.07797 0.989299 2.29996 1.04308 1.87683C1.09686 1.4537 1.12608 1.39084 1.28889 1.32984C1.98661 1.06844 2.92715 1.00004 3.68444 1.00002C4.46667 0.999999 4.74746 1.00001 5.54113 1C6.77778 0.999997 5.65728 0.999993 6.6823 1.00004C8.11335 1.00011 10.2837 1.09529 10.6133 1.65968C11.1911 2.64912 12.5392 5.02443 13.0333 5.94722" stroke="#875CFF" stroke-width="2" stroke-linecap="round"/>
</svg>
