<svg width="1920" height="1080" viewBox="0 0 1920 1080" fill="none" xmlns="http://www.w3.org/2000/svg">
<g clip-path="url(#clip0_4056_962)">
<rect width="1920" height="1080" fill="white"/>
<rect x="-1.39258" y="-3.32471" width="81.6226" height="1087.94" transform="rotate(-0.076067 -1.39258 -3.32471)" fill="#F6F5F9"/>
<path d="M53.5761 47.0968C55.3051 47.0768 56.6904 45.6589 56.6704 43.93C56.6504 42.201 55.2325 40.8157 53.5036 40.8357C51.7746 40.8557 50.3893 42.2735 50.4093 44.0025C50.4293 45.7314 51.8472 47.1168 53.5761 47.0968Z" fill="#875CFF"/>
<path d="M38.1408 88.4944C37.8132 88.4982 37.4763 88.4929 37.1361 88.4813C28.9109 88.1594 24.9978 83.8745 23.1642 80.3382C21.8649 77.8343 21.1596 74.8506 21.1233 71.7139C21.0832 68.2557 21.9339 56.8409 34.5568 54.4538C37.061 53.9798 39.7037 53.9831 42.4136 54.4586C44.1325 54.7602 46.5497 55.3101 49.2932 56.2829L49.8824 51.9119C50.1101 50.2217 51.6695 49.0353 53.3597 49.263C55.0499 49.4906 56.2363 51.047 56.0086 52.7403L53.1336 74.0351C53.0672 74.7066 52.6538 77.9691 50.7447 81.2612C48.8296 84.5658 45.1034 88.4169 38.1377 88.4976L38.1408 88.4944ZM38.2158 60.2809C37.3567 60.2908 36.52 60.3716 35.7089 60.5263C28.3011 61.9287 27.2659 68.0821 27.3069 71.6237C27.3515 75.4774 28.7186 81.9646 37.3798 82.3031C45.8555 82.6346 46.9 74.3453 46.991 73.3985L47.0049 73.2654L48.4511 62.5638C45.6038 61.4378 43.0656 60.849 41.3467 60.5444C40.2782 60.3559 39.2325 60.2691 38.2189 60.2808L38.2158 60.2809Z" fill="#875CFF"/>
<circle cx="1857" cy="58" r="19.75" stroke="#875CFF" stroke-width="2.5"/>
<path d="M1845.73 74.0016C1845.79 73.218 1846.36 70.4795 1846.81 69.4518C1847.09 68.8083 1847.56 68.1994 1847.89 67.6567C1848.26 67.0484 1848.68 66.6276 1849.09 66.1083C1849.71 65.3103 1850.31 64.9833 1850.82 64.6715C1851.84 64.0442 1853.01 63.6412 1853.7 63.3599C1854.79 62.9141 1856.12 62.8347 1857.03 62.7772C1858.88 62.66 1861.26 63.0331 1862.56 63.4458C1863.55 63.7616 1864.08 64.0373 1864.66 64.325C1865.44 64.7134 1865.96 65.0533 1866.49 65.4626C1867.04 65.8895 1867.4 66.3654 1867.85 66.904C1868.25 67.3807 1868.58 67.9039 1868.83 68.4337C1869.14 69.08 1869.31 69.6751 1869.6 70.5358C1869.79 71.3295 1869.91 71.9371 1869.93 72.2163C1869.94 72.3623 1869.94 72.5169 1869.94 72.6761" stroke="#875CFF" stroke-width="2.5" stroke-linecap="round"/>
<path d="M1850.42 57.4851C1850.54 58.1171 1851.27 59.8876 1851.99 60.7263C1852.61 61.4363 1853.42 61.7804 1854.2 62.1185C1855.01 62.4654 1855.94 62.6692 1856.84 62.6844C1858.35 62.7098 1860.41 61.7628 1861.13 61.2261C1861.96 60.6055 1862.57 59.7915 1863.12 59.0667C1863.64 58.3779 1863.82 57.4884 1864.12 56.5731C1864.4 55.7237 1864.18 54.7613 1863.84 53.2637C1863.4 51.3328 1862.63 50.4173 1861.79 49.5279C1860.96 48.657 1859.87 48.3395 1858.95 47.973C1858.01 47.6 1857.13 47.6232 1856.2 47.7356C1854.89 47.8942 1853.13 48.9457 1852.02 50.0083C1851.29 50.707 1850.95 51.5482 1850.52 52.4459C1850.12 53.2594 1850.01 54.1136 1850.01 54.95C1850 55.4039 1849.99 55.8494 1850.06 56.4223C1850.12 56.7905 1850.24 57.3159 1850.37 57.8572" stroke="#875CFF" stroke-width="2.5" stroke-linecap="round"/>
<path d="M895.765 111.044H898.001V133.222H895.765V120.118H890.955V127.086H880.321V112.552H882.583V118.298H888.719V112.552H890.955V118.298H895.765V111.044ZM882.583 120.092V125.24H888.719V120.092H882.583ZM917.905 126.644V118.454H913.667V116.608H917.905V111.096H920.167V126.644H917.905ZM905.763 125.89H908.025V131.636H920.297V133.456H905.763V125.89ZM903.865 123.602L902.357 122.198L906.205 118.116C907.063 117.18 907.193 116.27 907.193 115.386V114.372H902.617V112.5H913.719V114.372H909.351V115.386C909.351 116.27 909.455 117.154 910.339 118.116L914.187 122.198L912.679 123.602L908.831 119.52C908.623 119.286 908.441 119.052 908.285 118.818C908.103 119.052 907.921 119.286 907.713 119.52L903.865 123.602ZM946.063 111.096H948.325V123.342H946.063V118.142H941.487C941.097 120.846 938.887 122.692 935.871 122.692C932.517 122.692 930.151 120.43 930.151 117.232C930.151 114.008 932.517 111.746 935.871 111.746C938.887 111.746 941.097 113.566 941.487 116.296H946.063V111.096ZM934.155 124.486H936.391V127.242H946.063V124.486H948.325V133.664H934.155V124.486ZM936.391 129.036V131.844H946.063V129.036H936.391ZM935.871 120.846C937.925 120.846 939.355 119.364 939.355 117.232C939.355 115.074 937.925 113.592 935.871 113.592C933.817 113.592 932.361 115.074 932.361 117.232C932.361 119.364 933.817 120.846 935.871 120.846ZM951.641 128.022H972.311V129.894H951.641V128.022ZM968.749 113.046V125.006H966.487V114.892H954.527V113.046H968.749ZM991.071 111.07H993.229V133.17H991.071V111.07ZM983.739 119.416H986.469V111.616H988.549V131.974H986.469V121.262H983.739V119.416ZM974.847 112.968H983.193V121.262H977.057V125.578H983.739V127.424H974.899V119.416H981.035V114.788H974.847V112.968ZM1012.43 111.044H1014.69V133.222H1012.43V111.044ZM1002.53 125.89C998.963 125.89 996.441 123.29 996.441 119.598C996.441 115.88 998.963 113.254 1002.53 113.254C1006.06 113.254 1008.56 115.88 1008.56 119.598C1008.56 123.29 1006.06 125.89 1002.53 125.89ZM1002.53 123.914C1004.81 123.914 1006.4 122.146 1006.4 119.598C1006.4 117.024 1004.81 115.23 1002.53 115.23C1000.21 115.23 998.625 117.024 998.625 119.598C998.625 122.146 1000.21 123.914 1002.53 123.914ZM1021.23 112.942H1036V114.788H1023.47V121.756H1036V123.576H1021.23V112.942ZM1018.14 130.102V128.256H1038.86V130.102H1018.14Z" fill="#875CFF"/>
<rect x="864" y="174" width="192" height="46" rx="10" fill="#EBEBF8"/>
<rect x="864" y="174" width="64" height="46" rx="10" fill="#875CFF"/>
<path d="M893.114 203.8V196.792H891.61V203.16H889.946V190.408H891.61V195.368H893.114V190.04H894.794V203.8H893.114ZM882.858 198.68C885.114 197.96 887.114 196.344 887.13 192.68H883.354V191.256H888.794V192.68C888.762 197.112 886.074 199.4 883.354 200.28L882.858 198.68ZM906.432 190.056H908.192V199.752H906.432V190.056ZM899.232 199.272H900.992V202.6H908.32V204.008H899.232V199.272ZM900.48 197.736C898.304 197.736 896.784 196.28 896.784 194.216C896.784 192.136 898.304 190.68 900.48 190.68C902.64 190.68 904.16 192.136 904.16 194.216C904.16 196.28 902.64 197.736 900.48 197.736ZM900.48 196.296C901.648 196.296 902.432 195.464 902.432 194.216C902.432 192.952 901.648 192.12 900.48 192.12C899.296 192.12 898.512 192.952 898.512 194.216C898.512 195.464 899.296 196.296 900.48 196.296Z" fill="#FFFFF3"/>
<path d="M1020.68 190.04H1022.44V203.8H1020.68V190.04ZM1018.33 191.256V192.616V192.696C1018.28 197.112 1014.97 199.384 1011.72 200.232L1011.32 198.616C1014.15 197.88 1016.62 196.216 1016.65 192.696H1011.72V191.256H1018.33ZM1034.5 190.056H1036.26V197.688H1034.5V194.68H1032.02C1031.71 196.36 1030.32 197.496 1028.42 197.496C1026.24 197.496 1024.72 196.04 1024.72 193.976C1024.72 191.896 1026.24 190.44 1028.42 190.44C1030.32 190.44 1031.71 191.56 1032.02 193.256H1034.5V190.056ZM1027.33 198.36H1029.07V199.864H1034.51V198.36H1036.26V204.12H1027.33V198.36ZM1029.07 201.224V202.712H1034.51V201.224H1029.07ZM1028.42 196.056C1029.58 196.056 1030.37 195.208 1030.37 193.976C1030.37 192.712 1029.58 191.864 1028.42 191.864C1027.23 191.864 1026.43 192.712 1026.43 193.976C1026.43 195.208 1027.23 196.056 1028.42 196.056Z" fill="#875CFF"/>
<path d="M946.666 200.696H949.482V196.728H951.21V200.696H953.002V196.728H954.73V200.696H959.546V202.136H946.666V200.696ZM957.706 191.304V198.872H955.93V192.744H948.554V191.304H957.706ZM960.432 196.68H973.296V198.088H970.096V199.496H971.472V204.296H969.728V200.872H962.272V199.496H963.6V198.088H960.432V196.68ZM962.976 192.984C962.976 191.08 964.56 189.832 966.832 189.832C969.152 189.832 970.768 191.08 970.768 192.984C970.768 194.776 969.152 196.104 966.832 196.104C964.56 196.104 962.976 194.776 962.976 192.984ZM964.656 192.984C964.656 193.96 965.536 194.68 966.848 194.68C968.176 194.68 969.088 193.96 969.088 192.984C969.088 191.912 968.176 191.272 966.848 191.272C965.536 191.272 964.656 191.912 964.656 192.984ZM965.36 199.496H968.368V198.088H965.36V199.496Z" fill="#875CFF"/>
<rect x="1155" y="272" width="758.999" height="390" rx="29" transform="rotate(90 1155 272)" fill="#F6F5F9"/>
<path d="M912.9 332.412H917.84V326.094H920.05V332.412H923.508V326.094H925.718V332.412H933.57V334.284H912.9V332.412ZM930.528 317.254V329.37H928.266V319.1H916.28V317.254H930.528ZM935.066 325.834H955.71V327.68H950.328V330.202H952.694V337.976H950.458V331.996H938.108V330.202H940.422V327.68H935.066V325.834ZM939.226 319.802C939.226 316.76 941.748 314.836 945.336 314.836C949.028 314.836 951.602 316.76 951.602 319.802C951.602 322.61 949.028 324.742 945.336 324.742C941.748 324.742 939.226 322.61 939.226 319.802ZM941.384 319.802C941.384 321.518 942.996 322.87 945.336 322.87C947.754 322.87 949.444 321.518 949.444 319.802C949.444 317.852 947.754 316.708 945.336 316.708C942.996 316.708 941.384 317.852 941.384 319.802ZM942.684 330.202H948.118V327.68H942.684V330.202ZM963.224 332.386H983.946V334.284H963.224V332.386ZM965.98 316.916H981.164V318.762H978.356V326.328H981.138V328.148H966.006V326.328H968.788V318.762H965.98V316.916ZM971.076 326.328H976.12V318.762H971.076V326.328ZM985.39 332.542H994.594V328.798H988.692V321.622H1000.83V318.424H988.64V316.63H1002.84V323.416H990.694V326.978H1003.36V328.798H996.83V332.542H1006.11V334.388H985.39V332.542Z" fill="#875CFF"/>
<path d="M825 400.51C827.58 400.51 829.41 398.65 829.41 396.04C829.41 393.37 827.58 391.51 825 391.51C822.45 391.51 820.65 393.37 820.65 396.04C820.65 398.65 822.45 400.51 825 400.51ZM817.47 396.04C817.47 394.45 818.04 393.04 818.67 391.87L824.82 380.95L827.61 382.48L823.98 388.84C824.34 388.78 824.7 388.72 825.09 388.72C829.5 388.75 832.59 391.75 832.59 396.04C832.59 400.3 829.47 403.3 825.03 403.3C820.59 403.3 817.47 400.3 817.47 396.04ZM839.507 400.24L837.467 407.14H835.097L836.237 400.24H839.507ZM851.895 400.51C854.475 400.51 856.305 398.65 856.305 396.04C856.305 393.37 854.475 391.51 851.895 391.51C849.345 391.51 847.545 393.37 847.545 396.04C847.545 398.65 849.345 400.51 851.895 400.51ZM844.365 396.04C844.365 394.45 844.935 393.04 845.565 391.87L851.715 380.95L854.505 382.48L850.875 388.84C851.235 388.78 851.595 388.72 851.985 388.72C856.395 388.75 859.485 391.75 859.485 396.04C859.485 400.3 856.365 403.3 851.925 403.3C847.485 403.3 844.365 400.3 844.365 396.04ZM871.801 400.48C875.611 400.48 878.011 397.27 878.011 392.17C878.011 387.04 875.611 383.83 871.801 383.83C867.961 383.83 865.561 387.04 865.561 392.17C865.561 397.27 867.961 400.48 871.801 400.48ZM871.801 403.3C866.011 403.3 862.381 398.98 862.381 392.17C862.381 385.33 866.011 381.04 871.801 381.04C877.561 381.04 881.191 385.33 881.191 392.17C881.191 398.98 877.561 403.3 871.801 403.3ZM893.481 400.48C897.291 400.48 899.691 397.27 899.691 392.17C899.691 387.04 897.291 383.83 893.481 383.83C889.641 383.83 887.241 387.04 887.241 392.17C887.241 397.27 889.641 400.48 893.481 400.48ZM893.481 403.3C887.691 403.3 884.061 398.98 884.061 392.17C884.061 385.33 887.691 381.04 893.481 381.04C899.241 381.04 902.871 385.33 902.871 392.17C902.871 398.98 899.241 403.3 893.481 403.3ZM933.551 381.34L931.451 390.01H934.661V392.98H930.701L928.271 403H924.881L922.481 392.98H918.791L916.391 403H913.001L910.541 392.98H906.581V390.01H909.821L907.691 381.34H910.541L912.671 390.01H916.721L918.851 381.37H922.421L924.551 390.01H928.601L930.731 381.34H933.551ZM913.391 392.98L914.681 398.23L915.971 392.98H913.391ZM919.481 390.01H921.761L920.621 385.27L919.481 390.01ZM925.301 392.98L926.591 398.23L927.881 392.98H925.301Z" fill="#875CFF"/>
<path d="M826.432 449.832V436.024H828.192V449.832H826.432ZM825.456 445.768V447.176H816.672V445.768H820.224V443.704H821.984V445.768H825.456ZM817.968 444.152L816.848 442.968L819.552 440.392C820.048 439.944 820.208 439.592 820.24 439.224H817.088V437.784H820.272V436.232H821.984V437.784H825.184V439.224H822.016C822.064 439.592 822.224 439.976 822.688 440.392L825.408 442.968L824.288 444.152L821.6 441.576C821.424 441.416 821.264 441.24 821.12 441.08C820.992 441.24 820.832 441.416 820.64 441.576L817.968 444.152ZM830.198 446.536H834.934V442.152H836.678V446.536H843.078V447.976H830.198V446.536ZM840.918 437.208V444.68H839.142V438.648H831.83V437.208H840.918ZM855.251 450.584C853.123 450.584 851.635 449.304 851.635 447.512C851.635 445.704 853.123 444.424 855.251 444.424C857.395 444.424 858.899 445.704 858.899 447.512C858.899 449.304 857.395 450.584 855.251 450.584ZM855.251 449.16C856.403 449.16 857.187 448.488 857.187 447.512C857.187 446.52 856.403 445.864 855.251 445.864C854.115 445.864 853.347 446.52 853.347 447.512C853.347 448.488 854.115 449.16 855.251 449.16ZM849.171 443.688L847.923 442.664L850.275 439.752C850.755 439.176 850.867 438.728 850.867 438.296V436.568H852.595V438.296C852.595 438.728 852.707 439.144 853.203 439.752L855.539 442.664L854.259 443.688L851.923 440.776L851.731 440.52L851.523 440.776L849.171 443.688ZM854.915 440.248V438.792H857.699V436.056H859.475V444.36H857.699V440.248H854.915ZM867.864 450.76C865.64 450.76 864.088 449.448 864.088 447.656C864.088 445.8 865.64 444.584 867.864 444.584C870.088 444.584 871.656 445.8 871.656 447.656C871.656 449.448 870.088 450.76 867.864 450.76ZM867.864 449.304C869.096 449.304 869.928 448.616 869.928 447.656C869.928 446.728 869.096 446.04 867.864 446.04C866.632 446.04 865.816 446.728 865.816 447.656C865.816 448.616 866.632 449.304 867.864 449.304ZM861.432 443.704V442.296H874.296V443.704H861.432ZM863.384 436.44H865.128V439.752H872.696V441.16H863.384V436.44ZM882.83 437.304V443.64H881.07V438.744H875.614V437.304H882.83ZM884.51 449.8V436.04H886.254V441.864H888.318V443.32H886.254V449.8H884.51ZM883.598 445.592V447H875.166V445.592H877.71V441.592H879.438V445.592H883.598ZM902.011 436.056H903.787V439.816H905.755V441.256H903.787V444.696H902.011V436.056ZM894.603 445.352H903.787V450.296H902.011V446.76H894.603V445.352ZM900.731 437.496V438.936H899.531C899.979 439.48 900.267 440.152 900.267 440.904C900.267 442.84 898.827 444.216 896.779 444.216C894.779 444.216 893.355 442.84 893.339 440.904C893.339 440.152 893.643 439.48 894.075 438.936H892.859V437.496H895.947V436.04H897.659V437.496H900.731ZM895.019 440.904C895.019 442.04 895.723 442.808 896.779 442.808C897.851 442.808 898.603 442.04 898.603 440.904C898.603 439.736 897.851 438.952 896.779 438.952C895.723 438.952 895.019 439.736 895.019 440.904ZM913.969 450.584C911.857 450.584 910.353 449.304 910.353 447.512C910.353 445.704 911.857 444.424 913.969 444.424C916.113 444.424 917.617 445.704 917.617 447.512C917.617 449.304 916.113 450.584 913.969 450.584ZM913.969 449.16C915.121 449.16 915.905 448.488 915.905 447.512C915.905 446.52 915.121 445.864 913.969 445.864C912.833 445.864 912.081 446.52 912.081 447.512C912.081 448.488 912.833 449.16 913.969 449.16ZM907.441 443.672L906.161 442.68L908.369 439.816C908.817 439.224 908.929 438.744 908.929 438.296V436.408H910.641V438.296C910.641 438.76 910.753 439.208 911.217 439.816L913.425 442.68L912.145 443.672L909.937 440.808L909.793 440.616L909.649 440.808L907.441 443.672ZM913.761 443.752V436.328H915.409V439.656H916.801V436.056H918.481V444.536H916.801V441.08H915.409V443.752H913.761ZM926.566 441.768C924.246 441.768 922.614 440.6 922.614 438.92C922.614 437.208 924.246 436.008 926.566 436.008C928.934 436.008 930.582 437.208 930.582 438.92C930.582 440.6 928.934 441.768 926.566 441.768ZM922.054 450.12V446.808H929.334V445.896H922.022V444.648H931.062V447.976H923.798V448.856H931.478V450.12H922.054ZM920.166 443.88V442.488H933.03V443.88H920.166ZM926.582 440.328C927.958 440.328 928.886 439.768 928.886 438.92C928.886 438.056 927.958 437.448 926.582 437.448C925.222 437.448 924.31 438.056 924.31 438.92C924.31 439.768 925.222 440.328 926.582 440.328ZM942.228 442.6C940.084 442.6 938.564 441.256 938.564 439.32C938.564 437.384 940.084 436.024 942.228 436.024C944.404 436.024 945.94 437.384 945.94 439.32C945.94 441.256 944.404 442.6 942.228 442.6ZM941.428 449.288V444.824H937.908V443.384H946.756V444.824H943.188V449.288H941.428ZM942.228 441.16C943.428 441.16 944.244 440.424 944.244 439.32C944.244 438.216 943.428 437.464 942.228 437.464C941.06 437.464 940.26 438.216 940.26 439.32C940.26 440.424 941.06 441.16 942.228 441.16ZM947.684 449.816V436.04H949.428V449.816H947.684ZM961.865 436.04H963.529V449.8H961.865V443.416H960.489V449.16H958.841V436.344H960.489V441.992H961.865V436.04ZM951.337 437.944H953.801V436.312H955.545V437.944H958.009V439.352H951.337V437.944ZM954.665 446.392C952.809 446.392 951.497 445.048 951.497 443.128C951.497 441.208 952.809 439.864 954.665 439.864C956.537 439.864 957.849 441.208 957.849 443.128C957.849 445.048 956.537 446.392 954.665 446.392ZM954.665 444.936C955.593 444.936 956.233 444.216 956.233 443.128C956.233 442.04 955.593 441.32 954.665 441.32C953.737 441.32 953.113 442.04 953.113 443.128C953.113 444.216 953.737 444.936 954.665 444.936ZM978.214 436.024H979.99V439.208H981.958V440.648H979.99V443.768H978.214V436.024ZM971.014 444.408H979.99V447.848H972.79V448.856H980.342V450.168H971.062V446.632H978.246V445.704H971.014V444.408ZM976.934 437.288V438.728H975.702C976.102 439.224 976.374 439.816 976.374 440.488C976.374 442.312 974.982 443.592 972.982 443.592C971.03 443.592 969.654 442.312 969.638 440.488C969.638 439.816 969.91 439.224 970.31 438.728H969.062V437.288H972.15V435.896H973.846V437.288H976.934ZM971.318 440.488C971.318 441.512 971.99 442.216 972.982 442.216C974.006 442.216 974.71 441.512 974.71 440.488C974.71 439.432 974.006 438.728 972.982 438.728C971.99 438.728 971.318 439.432 971.318 440.488ZM992.604 436.056H994.364V445.752H992.604V436.056ZM985.404 445.272H987.164V448.6H994.492V450.008H985.404V445.272ZM986.652 443.736C984.476 443.736 982.956 442.28 982.956 440.216C982.956 438.136 984.476 436.68 986.652 436.68C988.812 436.68 990.332 438.136 990.332 440.216C990.332 442.28 988.812 443.736 986.652 443.736ZM986.652 442.296C987.82 442.296 988.604 441.464 988.604 440.216C988.604 438.952 987.82 438.12 986.652 438.12C985.468 438.12 984.684 438.952 984.684 440.216C984.684 441.464 985.468 442.296 986.652 442.296ZM997.65 436.616H1004.53V438.024H999.394V440.52H1004.53V441.928H1002.05V443.4H1005.57V444.808H996.514V443.4H1000.29V441.928H997.65V436.616ZM1006.37 436.04H1008.15V446.232H1006.37V436.04ZM998.962 445.992H1000.72V448.6H1008.37V450.008H998.962V445.992ZM1023.13 436.024H1024.89V441.56H1026.99V443.016H1024.89V449.8H1023.13V436.024ZM1014.56 438.696V437.256H1021.17V438.696C1021.17 442.84 1017.89 445.464 1014.56 446.312L1014.16 444.712C1016.97 443.976 1019.49 442.024 1019.49 438.696H1014.56ZM1037.65 450.248V446.52H1030.26V445.128H1039.41V450.248H1037.65ZM1027.94 442.472C1030.77 441.928 1032.84 440.728 1032.87 438.024H1028.28V436.584H1034.52V438.024V438.248H1037.65V436.04H1039.41V444.424H1037.65V442.696H1034.31V441.272H1037.65V439.656H1034.28C1033.52 442.2 1031 443.544 1028.24 444.088L1027.94 442.472Z" fill="#875CFF"/>
<path d="M951.56 389.088H953.128V397.488H951.56V396.928H948.872V395.824H951.56V389.088ZM944.2 397.968H953.128V400.992H945.784V402H953.448V403.12H944.232V399.968H951.592V399.072H944.2V397.968ZM950.504 394.208V395.392H946.536V397.408H944.968V395.392H941.56V394.208H950.504ZM945.88 393.632C943.912 393.632 942.536 392.704 942.536 391.232C942.536 389.776 943.912 388.864 945.88 388.864C947.832 388.864 949.208 389.776 949.208 391.232C949.208 392.704 947.832 393.632 945.88 393.632ZM945.88 392.416C947 392.416 947.784 392 947.784 391.232C947.784 390.496 947 390.096 945.88 390.096C944.744 390.096 943.976 390.496 943.976 391.232C943.976 392 944.744 392.416 945.88 392.416Z" fill="#875CFF"/>
<path d="M826.224 558.16C826.224 557.68 826.299 557.296 826.448 557.008C826.608 556.709 826.822 556.496 827.088 556.368C827.366 556.24 827.67 556.176 828 556.176C828.331 556.176 828.63 556.24 828.896 556.368C829.163 556.496 829.376 556.709 829.536 557.008C829.696 557.296 829.776 557.68 829.776 558.16C829.776 558.629 829.696 559.013 829.536 559.312C829.376 559.6 829.163 559.813 828.896 559.952C828.63 560.08 828.331 560.144 828 560.144C827.67 560.144 827.366 560.08 827.088 559.952C826.822 559.813 826.608 559.6 826.448 559.312C826.299 559.013 826.224 558.629 826.224 558.16ZM840.448 559.168H853.136V560.16H847.344V565.184H846.16V560.16H840.448V559.168ZM842.56 551.968H850.992V557.392H842.56V551.968ZM849.824 552.944H843.728V556.448H849.824V552.944ZM864.746 551.168H865.898V564.688H864.746V551.168ZM859.738 555.744H861.946V551.504H863.066V563.952H861.946V556.736H859.738V555.744ZM854.906 560.736L853.978 560.16L856.234 556.512C856.794 555.6 856.938 554.88 856.938 554.128V553.424H854.442V552.432H860.538V553.424H858.042V554.128C858.042 554.88 858.186 555.6 858.746 556.512L861.002 560.16L860.074 560.736L857.818 557.088C857.69 556.88 857.578 556.688 857.498 556.496C857.402 556.688 857.29 556.88 857.162 557.088L854.906 560.736ZM877.284 551.184H878.484V555.808H880.58V556.816H878.484V560.88H877.284V551.184ZM870.132 560.432H871.316V563.856H878.82V564.848H870.132V560.432ZM875.764 552.912V553.904H874.068C874.692 554.448 875.14 555.2 875.14 556.08C875.14 557.888 873.78 559.152 871.86 559.152C870.004 559.152 868.692 557.888 868.692 556.08C868.692 555.2 869.14 554.448 869.732 553.904H868.052V552.912H871.316V551.184H872.5V552.912H875.764ZM869.812 556.08C869.812 557.328 870.66 558.192 871.86 558.192C873.124 558.192 874.02 557.328 874.02 556.08C874.02 554.816 873.124 553.92 871.86 553.92C870.66 553.92 869.812 554.816 869.812 556.08ZM885.093 552.24H892.901V553.216H891.349V559.824H892.901V560.8H885.093V559.824H886.629V553.216H885.093V552.24ZM894.453 551.168H895.653V556.8H897.973V557.808H895.653V564.688H894.453V551.168ZM887.813 559.824H890.181V553.216H887.813V559.824ZM908.751 551.168H909.967V558.352H908.751V551.168ZM901.263 559.056H909.967V562.4H902.463V564.016H910.287V564.976H901.311V561.504H908.767V560.016H901.263V559.056ZM902.431 558.112C900.414 558.112 899.007 556.752 899.007 554.832C899.007 552.896 900.414 551.536 902.431 551.536C904.447 551.536 905.855 552.896 905.855 554.832C905.855 556.752 904.447 558.112 902.431 558.112ZM902.431 557.12C903.743 557.12 904.671 556.176 904.671 554.832C904.671 553.472 903.743 552.528 902.431 552.528C901.119 552.528 900.191 553.472 900.191 554.832C900.191 556.176 901.119 557.12 902.431 557.12ZM926.08 551.168H927.28V558.672H926.08V555.36H923.104C922.896 557.024 921.552 558.16 919.712 558.16C917.696 558.16 916.288 556.8 916.288 554.88C916.288 552.944 917.696 551.584 919.712 551.584C921.552 551.584 922.88 552.704 923.104 554.368H926.08V551.168ZM918.672 559.392H919.872V561.184H926.08V559.392H927.28V564.976H918.672V559.392ZM919.872 562.144V564H926.08V562.144H919.872ZM919.712 557.168C921.024 557.168 921.952 556.224 921.952 554.88C921.952 553.52 921.024 552.576 919.712 552.576C918.4 552.576 917.472 553.52 917.472 554.88C917.472 556.224 918.4 557.168 919.712 557.168ZM929.386 561.936H935.114V559.488H931.466V555.2H938.986V553.104H931.434V552.128H940.01V556.16H932.49V558.512H940.33V559.488H936.298V561.936H942.074V562.928H929.386V561.936ZM944.931 552.32H953.875V553.312H946.131V557.728H953.875V558.72H944.931V552.32ZM942.979 562.752V561.76H955.667V562.752H942.979Z" fill="#7C7895"/>
<path d="M826.224 594.16C826.224 593.68 826.299 593.296 826.448 593.008C826.608 592.709 826.822 592.496 827.088 592.368C827.366 592.24 827.67 592.176 828 592.176C828.331 592.176 828.63 592.24 828.896 592.368C829.163 592.496 829.376 592.709 829.536 593.008C829.696 593.296 829.776 593.68 829.776 594.16C829.776 594.629 829.696 595.013 829.536 595.312C829.376 595.6 829.163 595.813 828.896 595.952C828.63 596.08 828.331 596.144 828 596.144C827.67 596.144 827.366 596.08 827.088 595.952C826.822 595.813 826.608 595.6 826.448 595.312C826.299 595.013 826.224 594.629 826.224 594.16ZM850.608 600.704V587.152H851.808V600.704H850.608ZM849.408 596.944V597.904H840.816V596.944H844.48V594.544H845.696V596.944H849.408ZM841.84 594.864L841.072 594.096L843.712 591.552C844.336 590.976 844.48 590.448 844.496 589.968H841.232V588.976H844.528V587.376H845.648V588.976H848.944V589.968H845.68C845.696 590.448 845.856 590.976 846.464 591.552L849.088 594.096L848.32 594.864L845.696 592.352C845.44 592.096 845.248 591.856 845.088 591.6C844.928 591.856 844.72 592.112 844.448 592.352L841.84 594.864ZM861.658 590.368H864.314V587.168H865.514V595.216H864.314V591.376H861.658V590.368ZM856.842 596H865.514V601.168H864.314V596.992H856.842V596ZM855.626 594.496L854.794 593.792L857.05 591.12C857.562 590.512 857.674 589.936 857.674 589.424V588.88H854.89V587.888H861.466V588.88H858.81V589.424C858.81 589.936 858.89 590.48 859.434 591.12L861.69 593.792L860.858 594.496L858.602 591.824C858.458 591.664 858.346 591.488 858.234 591.328C858.138 591.488 858.026 591.664 857.882 591.824L855.626 594.496ZM876.227 596.784V597.744H867.684V596.784H871.316V595.408C869.732 595.152 868.66 593.92 868.66 592.256C868.66 591.392 869.092 590.64 869.684 590.08H868.004V589.088H871.428V587.312H872.484V589.088H875.892V590.08H874.196C874.788 590.64 875.22 591.392 875.22 592.256C875.22 593.936 874.132 595.168 872.516 595.408V596.784H876.227ZM871.94 594.416C873.22 594.416 874.132 593.52 874.132 592.256C874.132 590.992 873.22 590.112 871.94 590.112C870.644 590.112 869.732 590.992 869.732 592.256C869.732 593.52 870.644 594.416 871.94 594.416ZM877.188 600.688V587.168H878.388V593.136H880.612V594.16H878.388V600.688H877.188ZM882.557 587.76H889.229V588.752H883.741V591.776H889.229V592.752H886.637V594.624H890.557V595.584H881.437V594.624H885.437V592.752H882.557V587.76ZM891.453 587.184H892.653V596.992H891.453V587.184ZM883.805 596.944H885.005V599.856H892.797V600.848H883.805V596.944ZM898.511 593.744H904.239V591.408H905.423V593.744H911.199V594.72H898.511V593.744ZM900.399 596.448H909.263V601.168H908.079V597.424H900.399V596.448ZM900.191 592.512L899.615 591.584L903.231 589.328C904.095 588.784 904.255 588.368 904.255 588V586.992H905.455V588C905.455 588.368 905.615 588.784 906.479 589.328L910.095 591.584L909.519 592.512L905.903 590.256C905.423 589.952 905.087 589.664 904.863 589.36C904.623 589.664 904.287 589.952 903.807 590.256L900.191 592.512ZM914.056 588.16H923V589.152H915.256V593.408H923V594.4H919.032V597.68H924.76V598.688H912.104V597.68H917.848V594.4H914.056V588.16ZM934.226 596.944V597.904H926.066V596.944H929.618V594.592C927.858 594.384 926.674 593.072 926.674 591.296C926.674 589.328 928.098 587.936 930.13 587.936C932.194 587.936 933.634 589.328 933.634 591.296C933.634 593.024 932.514 594.304 930.818 594.576V596.944H934.226ZM930.13 593.568C931.506 593.568 932.482 592.624 932.482 591.296C932.482 589.936 931.506 588.992 930.13 588.992C928.77 588.992 927.826 589.936 927.826 591.296C927.826 592.624 928.77 593.568 930.13 593.568ZM935.218 600.688V587.168H936.402V592.976H938.674V593.984H936.402V600.688H935.218ZM942.963 594.272H955.651V595.248H950.003V598.016H948.787V595.248H942.963V594.272ZM944.915 596.896H946.099V599.856H953.763V600.864H944.915V596.896ZM944.995 587.6H946.179V589.264H952.451V587.6H953.651V592.88H944.995V587.6ZM946.179 590.208V591.904H952.451V590.208H946.179ZM963.741 589.968H966.845V587.168H968.045V595.12H966.845V590.976H963.741V589.968ZM959.213 595.904H968.045V601.168H966.845V596.88H959.213V595.904ZM958.301 594.544L957.437 593.904L959.581 590.976C960.061 590.304 960.189 589.712 960.189 589.2V587.568H961.325V589.2C961.325 589.728 961.437 590.288 961.933 590.976L964.077 593.904L963.213 594.544L961.069 591.616C960.941 591.456 960.845 591.296 960.749 591.152C960.669 591.296 960.557 591.456 960.445 591.616L958.301 594.544Z" fill="#7C7895"/>
<path d="M826.224 630.16C826.224 629.68 826.299 629.296 826.448 629.008C826.608 628.709 826.822 628.496 827.088 628.368C827.366 628.24 827.67 628.176 828 628.176C828.331 628.176 828.63 628.24 828.896 628.368C829.163 628.496 829.376 628.709 829.536 629.008C829.696 629.296 829.776 629.68 829.776 630.16C829.776 630.629 829.696 631.013 829.536 631.312C829.376 631.6 829.163 631.813 828.896 631.952C828.63 632.08 828.331 632.144 828 632.144C827.67 632.144 827.366 632.08 827.088 631.952C826.822 631.813 826.608 631.6 826.448 631.312C826.299 631.013 826.224 630.629 826.224 630.16ZM840.448 633.68H845.424V629.296H846.608V633.68H853.104V634.688H840.448V633.68ZM850.896 624.368V631.616H849.68V625.36H842.304V624.368H850.896ZM863.578 623.168H864.778V628.864H867.114V629.888H864.778V636.688H863.578V623.168ZM854.714 633.248L853.818 632.608L856.426 628.96C857.066 628.064 857.226 627.344 857.226 626.608V624.112H858.346V626.608C858.346 627.344 858.506 628.064 859.146 628.96L861.754 632.608L860.858 633.248L858.25 629.6C858.058 629.344 857.914 629.088 857.786 628.848C857.658 629.088 857.514 629.344 857.322 629.6L854.714 633.248ZM871.396 630.256C869.38 630.256 867.972 628.896 867.972 626.976C867.972 625.04 869.38 623.68 871.396 623.68C873.412 623.68 874.82 625.04 874.82 626.976C874.82 628.896 873.412 630.256 871.396 630.256ZM874.5 637.36C872.548 637.36 871.188 636.128 871.188 634.384C871.188 632.64 872.548 631.408 874.5 631.408C876.468 631.408 877.844 632.64 877.844 634.384C877.844 636.128 876.468 637.36 874.5 637.36ZM874.5 636.336C875.78 636.336 876.692 635.536 876.692 634.384C876.692 633.232 875.78 632.432 874.5 632.432C873.236 632.432 872.34 633.232 872.34 634.384C872.34 635.536 873.236 636.336 874.5 636.336ZM871.396 629.264C872.708 629.264 873.636 628.32 873.636 626.976C873.636 625.616 872.708 624.672 871.396 624.672C870.084 624.672 869.156 625.616 869.156 626.976C869.156 628.32 870.084 629.264 871.396 629.264ZM877.284 631.472V623.168H878.484V625.296H880.548V626.304H878.484V628.272H880.548V629.28H878.484V631.472H877.284ZM891.389 623.152H892.589V636.704H891.389V623.152ZM890.589 632.544V633.552H881.693V632.544H890.589ZM882.365 627.248C882.365 625.216 883.805 623.776 885.869 623.776C887.981 623.776 889.453 625.216 889.453 627.248C889.453 629.28 887.981 630.704 885.869 630.704C883.805 630.704 882.365 629.28 882.365 627.248ZM883.469 627.248C883.469 628.672 884.461 629.68 885.869 629.68C887.341 629.68 888.365 628.688 888.365 627.264C888.365 625.824 887.341 624.8 885.869 624.8C884.461 624.8 883.469 625.808 883.469 627.248ZM901.311 636.96V631.872H909.999V636.96H901.311ZM902.479 635.984H908.815V632.848H902.479V635.984ZM899.199 629.584C902.031 629.04 904.015 627.616 904.063 624.832H899.503V623.84H905.183V624.832C905.135 628.208 902.607 630.08 899.391 630.672L899.199 629.584ZM905.679 627.808V626.8H908.799V623.168H909.999V631.12H908.799V627.808H905.679ZM922.68 637.168V632.928H914.984V631.952H923.88V637.168H922.68ZM919.72 631.072V623.424H920.856V626.848H922.728V623.184H923.88V631.152H922.728V627.84H920.856V631.072H919.72ZM913.016 630.592L912.152 629.92L914.408 626.944C914.904 626.304 915.064 625.728 915.064 625.248V623.728H916.184V625.248C916.184 625.728 916.328 626.272 916.84 626.944L919.096 629.92L918.232 630.592L915.976 627.616C915.848 627.44 915.72 627.264 915.624 627.088C915.528 627.264 915.4 627.44 915.272 627.616L913.016 630.592ZM936.89 637.36C934.938 637.36 933.578 636.128 933.578 634.384C933.578 632.64 934.938 631.408 936.89 631.408C938.858 631.408 940.234 632.64 940.234 634.384C940.234 636.128 938.858 637.36 936.89 637.36ZM936.89 636.336C938.17 636.336 939.082 635.536 939.082 634.384C939.082 633.232 938.17 632.432 936.89 632.432C935.626 632.432 934.73 633.232 934.73 634.384C934.73 635.536 935.626 636.336 936.89 636.336ZM930.842 630.448L929.946 629.808L932.106 626.816C932.602 626.16 932.73 625.6 932.73 625.104V623.568H933.85V625.104C933.85 625.6 933.978 626.128 934.474 626.816L936.634 629.808L935.738 630.448L933.578 627.456L933.29 626.992C933.21 627.152 933.114 627.296 933.002 627.456L930.842 630.448ZM936.554 627.184V626.176H939.658V623.168H940.858V631.456H939.658V627.184H936.554ZM949.315 637.52C947.267 637.52 945.827 636.224 945.827 634.496C945.827 632.624 947.267 631.488 949.315 631.488C951.379 631.488 952.819 632.624 952.819 634.496C952.819 636.224 951.379 637.52 949.315 637.52ZM949.315 636.464C950.691 636.464 951.667 635.6 951.667 634.496C951.667 633.392 950.691 632.544 949.315 632.544C947.939 632.544 946.979 633.392 946.979 634.496C946.979 635.6 947.939 636.464 949.315 636.464ZM942.995 630.432V629.44H955.635V630.432H942.995ZM944.867 623.68H946.051V627.104H954.035V628.08H944.867V623.68Z" fill="#7C7895"/>
<path d="M826.224 708.16C826.224 707.68 826.299 707.296 826.448 707.008C826.608 706.709 826.822 706.496 827.088 706.368C827.366 706.24 827.67 706.176 828 706.176C828.331 706.176 828.63 706.24 828.896 706.368C829.163 706.496 829.376 706.709 829.536 707.008C829.696 707.296 829.776 707.68 829.776 708.16C829.776 708.629 829.696 709.013 829.536 709.312C829.376 709.6 829.163 709.813 828.896 709.952C828.63 710.08 828.331 710.144 828 710.144C827.67 710.144 827.366 710.08 827.088 709.952C826.822 709.813 826.608 709.6 826.448 709.312C826.299 709.013 826.224 708.629 826.224 708.16ZM840.448 711.776H853.136V712.768H840.448V711.776ZM842.144 709.392L841.472 708.56L845.088 705.632C845.952 704.928 846.128 704.4 846.128 703.904V702.224H847.424V703.904C847.424 704.4 847.6 704.928 848.464 705.632L852.08 708.56L851.408 709.392L847.792 706.464C847.328 706.096 846.992 705.728 846.784 705.392C846.56 705.728 846.224 706.096 845.76 706.464L842.144 709.392ZM863.594 701.168H864.794V706.832H867.114V707.84H864.794V714.688H863.594V701.168ZM862.074 709.792V710.784H854.762V702.192H861.274V703.2H855.946V705.856H860.81V706.912H855.946V709.792H862.074ZM877.876 701.168H879.092V708.352H877.876V701.168ZM870.388 709.056H879.092V712.4H871.588V714.016H879.412V714.976H870.436V711.504H877.892V710.016H870.388V709.056ZM871.556 708.112C869.539 708.112 868.132 706.752 868.132 704.832C868.132 702.896 869.539 701.536 871.556 701.536C873.572 701.536 874.98 702.896 874.98 704.832C874.98 706.752 873.572 708.112 871.556 708.112ZM871.556 707.12C872.868 707.12 873.796 706.176 873.796 704.832C873.796 703.472 872.868 702.528 871.556 702.528C870.244 702.528 869.316 703.472 869.316 704.832C869.316 706.176 870.244 707.12 871.556 707.12ZM895.205 710.864V705.504H892.101V704.496H895.205V701.184H896.405V710.864H895.205ZM887.749 710.24H888.949V713.856H896.421V714.848H887.749V710.24ZM886.373 708.72L885.509 708.048L887.749 705.12C888.261 704.464 888.389 703.872 888.389 703.36V701.728H889.525V703.36C889.525 703.872 889.653 704.448 890.165 705.12L892.405 708.048L891.541 708.72L889.301 705.792C889.173 705.616 889.045 705.44 888.949 705.264C888.853 705.44 888.741 705.616 888.613 705.792L886.373 708.72ZM898.511 712.848V711.856H904.255V709.952C902.399 709.712 901.135 708.352 901.135 706.512C901.135 705.472 901.679 704.592 902.431 703.968H899.903V702.976H904.287V701.136H905.439V702.976H909.823V703.968H907.343C908.111 704.592 908.671 705.472 908.671 706.512C908.671 708.352 907.375 709.712 905.455 709.952V711.856H911.199V712.848H898.511ZM904.847 708.96C906.431 708.96 907.535 707.952 907.535 706.512C907.535 705.024 906.431 703.984 904.847 703.984C903.359 703.984 902.303 705.024 902.303 706.512C902.303 707.952 903.359 708.96 904.847 708.96ZM914.056 702.16H923V703.152H915.256V707.408H923V708.4H919.032V711.68H924.76V712.688H912.104V711.68H917.848V708.4H914.056V702.16ZM939.674 701.184H940.874V710.416H939.674V707.28H936.618V708.496H930.33V701.888H931.514V704.352H935.434V701.888H936.618V703.28H939.674V701.184ZM932.234 710.208H933.434V713.856H940.89V714.848H932.234V710.208ZM931.514 705.328V707.52H935.434V705.328H931.514ZM936.618 706.288H939.674V704.272H936.618V706.288ZM951.571 710.784V711.744H943.027V710.784H946.659V709.408C945.075 709.152 944.003 707.92 944.003 706.256C944.003 705.392 944.435 704.64 945.027 704.08H943.347V703.088H946.771V701.312H947.827V703.088H951.235V704.08H949.539C950.131 704.64 950.563 705.392 950.563 706.256C950.563 707.936 949.475 709.168 947.859 709.408V710.784H951.571ZM947.283 708.416C948.563 708.416 949.475 707.52 949.475 706.256C949.475 704.992 948.563 704.112 947.283 704.112C945.987 704.112 945.075 704.992 945.075 706.256C945.075 707.52 945.987 708.416 947.283 708.416ZM952.531 714.688V701.168H953.731V707.136H955.955V708.16H953.731V714.688H952.531ZM960.261 710.64V709.632H972.917V710.64H967.189V715.184H965.989V710.64H960.261ZM961.957 708.32L961.349 707.424L964.965 704.944C965.669 704.464 965.893 704.08 965.957 703.728H961.845V702.736H966.021V701.296H967.237V702.736H971.413V703.728H967.285C967.349 704.08 967.573 704.464 968.277 704.944L971.893 707.424L971.285 708.32L967.669 705.84C967.173 705.504 966.837 705.184 966.613 704.864C966.389 705.184 966.069 705.504 965.573 705.84L961.957 708.32ZM981.47 704.368H984.126V701.168H985.326V709.216H984.126V705.376H981.47V704.368ZM976.654 710H985.326V715.168H984.126V710.992H976.654V710ZM975.438 708.496L974.606 707.792L976.862 705.12C977.374 704.512 977.486 703.936 977.486 703.424V702.88H974.702V701.888H981.278V702.88H978.622V703.424C978.622 703.936 978.702 704.48 979.246 705.12L981.502 707.792L980.67 708.496L978.414 705.824C978.27 705.664 978.158 705.488 978.046 705.328C977.95 705.488 977.838 705.664 977.694 705.824L975.438 708.496Z" fill="#7C7895"/>
<path d="M826.224 744.16C826.224 743.68 826.299 743.296 826.448 743.008C826.608 742.709 826.822 742.496 827.088 742.368C827.366 742.24 827.67 742.176 828 742.176C828.331 742.176 828.63 742.24 828.896 742.368C829.163 742.496 829.376 742.709 829.536 743.008C829.696 743.296 829.776 743.68 829.776 744.16C829.776 744.629 829.696 745.013 829.536 745.312C829.376 745.6 829.163 745.813 828.896 745.952C828.63 746.08 828.331 746.144 828 746.144C827.67 746.144 827.366 746.08 827.088 745.952C826.822 745.813 826.608 745.6 826.448 745.312C826.299 745.013 826.224 744.629 826.224 744.16ZM840.448 747.872H846.176V744.976H842.448V738H843.632V740.368H849.936V738H851.12V744.976H847.36V747.872H853.136V748.88H840.448V747.872ZM843.632 741.36V744H849.936V741.36H843.632ZM863.594 737.152H864.794V742.72H867.114V743.728H864.794V750.704H863.594V737.152ZM861.802 745.792V746.784H854.602V738.352H860.954V739.36H855.786V745.792H861.802ZM881.547 750.704V737.168H882.747V750.704H881.547ZM879.723 745.792V746.784H872.363V738.336H878.715V739.344H873.547V745.792H879.723ZM891.061 741.888H892.821V737.504H893.957V749.952H892.821V742.88H891.061V741.888ZM895.637 737.168H896.789V750.688H895.637V737.168ZM891.173 745.792V746.784H885.589V738.192H890.869V739.2H886.773V741.856H890.501V742.912H886.773V745.792H891.173ZM908.751 737.168H909.967V744.352H908.751V737.168ZM901.263 745.056H909.967V748.4H902.463V750.016H910.287V750.976H901.311V747.504H908.767V746.016H901.263V745.056ZM902.431 744.112C900.414 744.112 899.007 742.752 899.007 740.832C899.007 738.896 900.414 737.536 902.431 737.536C904.447 737.536 905.855 738.896 905.855 740.832C905.855 742.752 904.447 744.112 902.431 744.112ZM902.431 743.12C903.743 743.12 904.671 742.176 904.671 740.832C904.671 739.472 903.743 738.528 902.431 738.528C901.119 738.528 900.191 739.472 900.191 740.832C900.191 742.176 901.119 743.12 902.431 743.12ZM921.752 737.184H922.952V741.808H925.048V742.816H922.952V746.88H921.752V737.184ZM914.6 746.432H915.784V749.856H923.288V750.848H914.6V746.432ZM920.232 738.912V739.904H918.536C919.16 740.448 919.608 741.2 919.608 742.08C919.608 743.888 918.248 745.152 916.328 745.152C914.472 745.152 913.16 743.888 913.16 742.08C913.16 741.2 913.608 740.448 914.2 739.904H912.52V738.912H915.784V737.184H916.968V738.912H920.232ZM914.28 742.08C914.28 743.328 915.128 744.192 916.328 744.192C917.592 744.192 918.488 743.328 918.488 742.08C918.488 740.816 917.592 739.92 916.328 739.92C915.128 739.92 914.28 740.816 914.28 742.08ZM929.37 744.272H942.058V745.248H936.41V748.016H935.194V745.248H929.37V744.272ZM931.322 746.896H932.506V749.856H940.17V750.864H931.322V746.896ZM931.402 737.6H932.586V739.264H938.858V737.6H940.058V742.88H931.402V737.6ZM932.586 740.208V741.904H938.858V740.208H932.586ZM950.147 739.968H953.251V737.168H954.451V745.12H953.251V740.976H950.147V739.968ZM945.619 745.904H954.451V751.168H953.251V746.88H945.619V745.904ZM944.707 744.544L943.843 743.904L945.987 740.976C946.467 740.304 946.595 739.712 946.595 739.2V737.568H947.731V739.2C947.731 739.728 947.843 740.288 948.339 740.976L950.483 743.904L949.619 744.544L947.475 741.616C947.347 741.456 947.251 741.296 947.155 741.152C947.075 741.296 946.963 741.456 946.851 741.616L944.707 744.544ZM961.205 743.776V737.952H967.445V743.776H961.205ZM963.525 751.12L963.013 750.256L966.037 748.432C966.725 748.032 966.821 747.68 966.821 747.296V747.024H963.237V746.032H966.869V744.768H967.973V746.032H971.605V747.024H968.021V747.296C968.021 747.664 968.117 747.968 968.805 748.448L971.813 750.256L971.301 751.12L968.26 749.312C967.892 749.056 967.621 748.816 967.429 748.576C967.237 748.832 966.965 749.088 966.549 749.328L963.525 751.12ZM962.373 742.784H966.277V738.928H962.373V742.784ZM970.517 744.576V737.168H971.717V744.576H970.517ZM987.782 737.168H988.982V750.688H987.782V737.168ZM978.198 738.24H986.006V739.216H984.454V745.792H986.006V746.768H978.198V745.792H979.734V739.216H978.198V738.24ZM980.918 745.792H983.286V739.216H980.918V745.792ZM993.088 738.32H1002.03V739.312H994.288V743.728H1002.03V744.72H993.088V738.32ZM991.136 748.752V747.76H1003.82V748.752H991.136ZM1015.32 751.168V746.944H1007.63V745.952H1016.51V751.168H1015.32ZM1006.54 743.2H1009.66V740.848H1006.54V743.2ZM1005.35 744.176V737.728H1006.54V739.872H1009.66V737.728H1010.84V744.176H1005.35ZM1012.35 745.008V737.44H1013.48V740.832H1015.37V737.184H1016.51V745.088H1015.37V741.84H1013.48V745.008H1012.35Z" fill="#7C7895"/>
<path d="M826.224 783.16C826.224 782.68 826.299 782.296 826.448 782.008C826.608 781.709 826.822 781.496 827.088 781.368C827.366 781.24 827.67 781.176 828 781.176C828.331 781.176 828.63 781.24 828.896 781.368C829.163 781.496 829.376 781.709 829.536 782.008C829.696 782.296 829.776 782.68 829.776 783.16C829.776 783.629 829.696 784.013 829.536 784.312C829.376 784.6 829.163 784.813 828.896 784.952C828.63 785.08 828.331 785.144 828 785.144C827.67 785.144 827.366 785.08 827.088 784.952C826.822 784.813 826.608 784.6 826.448 784.312C826.299 784.013 826.224 783.629 826.224 783.16ZM850.672 776.168H851.872V789.688H850.672V776.168ZM841.168 778.152H844.416V776.376H845.568V778.152H848.816V779.144H841.168V778.152ZM844.992 786.328C843.072 786.328 841.728 785 841.728 783.096C841.728 781.192 843.072 779.848 844.992 779.848C846.912 779.848 848.256 781.192 848.256 783.096C848.256 785 846.912 786.328 844.992 786.328ZM844.992 785.288C846.256 785.288 847.136 784.376 847.136 783.096C847.136 781.8 846.256 780.888 844.992 780.888C843.728 780.888 842.848 781.8 842.848 783.096C842.848 784.376 843.728 785.288 844.992 785.288ZM854.042 786.776H866.73V787.768H854.042V786.776ZM855.738 784.392L855.066 783.56L858.682 780.632C859.546 779.928 859.722 779.4 859.722 778.904V777.224H861.018V778.904C861.018 779.4 861.194 779.928 862.058 780.632L865.674 783.56L865.002 784.392L861.386 781.464C860.922 781.096 860.586 780.728 860.378 780.392C860.154 780.728 859.818 781.096 859.354 781.464L855.738 784.392ZM869.588 777H878.372V777.992H870.788V780.184H878.372V781.176H870.788V783.208H878.372V784.2H874.564V786.92H880.324V787.912H867.636V786.92H873.364V784.2H869.588V777ZM882.301 780.824H887.549V778.312H882.253V777.336H888.733V781.816H883.485V784.888H889.821V785.88H882.301V780.824ZM891.485 789.704V776.152H892.685V789.704H891.485ZM908.062 776.168H909.263V781.8H911.583V782.808H909.263V789.688H908.062V776.168ZM902.351 785.16C900.207 785.16 898.687 783.592 898.687 781.368C898.687 779.128 900.207 777.544 902.351 777.544C904.495 777.544 905.999 779.128 905.999 781.368C905.999 783.592 904.495 785.16 902.351 785.16ZM902.351 784.088C903.823 784.088 904.847 782.968 904.847 781.368C904.847 779.752 903.823 778.616 902.351 778.616C900.879 778.616 899.839 779.752 899.839 781.368C899.839 782.968 900.879 784.088 902.351 784.088ZM921.64 776.152H922.856V781.88H925.112V782.888H922.856V789.688H921.64V776.152ZM919.176 777.352V778.408C919.176 782.248 916.008 785.016 912.776 785.912L912.456 784.792C914.312 784.264 916.104 783.128 917.112 781.496H912.856V780.44H917.64C917.88 779.816 918.008 779.144 918.008 778.408V778.344H912.856V777.352H919.176ZM935.922 776.152H937.122V789.704H935.922V776.152ZM929.698 785.16C927.554 785.16 926.034 783.592 926.034 781.368C926.034 779.128 927.554 777.544 929.698 777.544C931.842 777.544 933.346 779.128 933.346 781.368C933.346 783.592 931.842 785.16 929.698 785.16ZM929.698 784.088C931.17 784.088 932.194 782.968 932.194 781.368C932.194 779.752 931.17 778.616 929.698 778.616C928.226 778.616 927.186 779.752 927.186 781.368C927.186 782.968 928.226 784.088 929.698 784.088ZM940.396 783.08V776.728H941.58V778.872H945.5V776.728H946.684V783.08H940.396ZM946.636 790.36C944.684 790.36 943.324 789.128 943.324 787.384C943.324 785.64 944.684 784.408 946.636 784.408C948.604 784.408 949.98 785.64 949.98 787.384C949.98 789.128 948.604 790.36 946.636 790.36ZM946.636 789.336C947.916 789.336 948.828 788.536 948.828 787.384C948.828 786.232 947.916 785.432 946.636 785.432C945.372 785.432 944.476 786.232 944.476 787.384C944.476 788.536 945.372 789.336 946.636 789.336ZM941.58 782.104H945.5V779.848H941.58V782.104ZM949.532 784.664V776.184H950.748V784.664H949.532ZM967.277 776.168H968.429V789.688H967.277V776.168ZM962.269 780.744H964.477V776.504H965.597V788.952H964.477V781.736H962.269V780.744ZM957.437 785.736L956.509 785.16L958.765 781.512C959.325 780.6 959.469 779.88 959.469 779.128V778.424H956.973V777.432H963.069V778.424H960.573V779.128C960.573 779.88 960.717 780.6 961.277 781.512L963.533 785.16L962.605 785.736L960.349 782.088C960.221 781.88 960.109 781.688 960.029 781.496C959.933 781.688 959.821 781.88 959.693 782.088L957.437 785.736ZM976.503 790.68C974.455 790.68 973.015 789.384 973.015 787.656C973.015 785.784 974.455 784.664 976.503 784.664C978.567 784.664 980.007 785.784 980.007 787.656C980.007 789.384 978.567 790.68 976.503 790.68ZM976.503 789.624C977.879 789.624 978.855 788.76 978.855 787.656C978.855 786.552 977.879 785.72 976.503 785.72C975.127 785.72 974.167 786.552 974.167 787.656C974.167 788.76 975.127 789.624 976.503 789.624ZM970.183 783.384V782.408H975.431V779.688H976.615V782.408H982.807V783.384H970.183ZM971.943 777.8V776.808H980.695V780.776H979.479V777.8H971.943Z" fill="#7C7895"/>
<path d="M826.224 669.16C826.224 668.68 826.299 668.296 826.448 668.008C826.608 667.709 826.822 667.496 827.088 667.368C827.366 667.24 827.67 667.176 828 667.176C828.331 667.176 828.63 667.24 828.896 667.368C829.163 667.496 829.376 667.709 829.536 668.008C829.696 668.296 829.776 668.68 829.776 669.16C829.776 669.629 829.696 670.013 829.536 670.312C829.376 670.6 829.163 670.813 828.896 670.952C828.63 671.08 828.331 671.144 828 671.144C827.67 671.144 827.366 671.08 827.088 670.952C826.822 670.813 826.608 670.6 826.448 670.312C826.299 670.013 826.224 669.629 826.224 669.16ZM840.448 672.776H853.136V673.768H840.448V672.776ZM842.144 670.392L841.472 669.56L845.088 666.632C845.952 665.928 846.128 665.4 846.128 664.904V663.224H847.424V664.904C847.424 665.4 847.6 665.928 848.464 666.632L852.08 669.56L851.408 670.392L847.792 667.464C847.328 667.096 846.992 666.728 846.784 666.392C846.56 666.728 846.224 667.096 845.76 667.464L842.144 670.392ZM863.594 662.168H864.794V667.832H867.114V668.84H864.794V675.688H863.594V662.168ZM862.074 670.792V671.784H854.762V663.192H861.274V664.2H855.946V666.856H860.81V667.912H855.946V670.792H862.074ZM877.876 662.168H879.092V669.352H877.876V662.168ZM870.388 670.056H879.092V673.4H871.588V675.016H879.412V675.976H870.436V672.504H877.892V671.016H870.388V670.056ZM871.556 669.112C869.539 669.112 868.132 667.752 868.132 665.832C868.132 663.896 869.539 662.536 871.556 662.536C873.572 662.536 874.98 663.896 874.98 665.832C874.98 667.752 873.572 669.112 871.556 669.112ZM871.556 668.12C872.868 668.12 873.796 667.176 873.796 665.832C873.796 664.472 872.868 663.528 871.556 663.528C870.244 663.528 869.316 664.472 869.316 665.832C869.316 667.176 870.244 668.12 871.556 668.12ZM888.021 672.424H895.525V670.984H887.973V670.024H896.693V673.352H889.189V675H897.093V675.976H888.021V672.424ZM885.269 668.104C887.637 667.608 889.653 666.504 889.653 663.864V663.848H885.557V662.856H890.773V663.864C890.773 667.048 888.245 668.616 885.493 669.192L885.269 668.104ZM892.501 669.256V662.44H893.637V665.368H895.557V662.168H896.693V669.352H895.557V666.344H893.637V669.256H892.501ZM899.263 666.984H904.511V664.312H899.215V663.336H905.695V667.976H900.447V670.888H906.383V671.88H899.263V666.984ZM906.175 667.944V666.968H908.799V662.152H909.983V675.704H908.799V667.944H906.175ZM913.176 666.824H918.424V664.312H913.128V663.336H919.608V667.816H914.36V670.888H920.696V671.88H913.176V666.824ZM922.36 675.704V662.152H923.56V675.704H922.36ZM938.922 662.168H940.122V667.864H942.458V668.888H940.122V675.688H938.922V662.168ZM930.058 672.248L929.162 671.608L931.77 667.96C932.41 667.064 932.57 666.344 932.57 665.608V663.112H933.69V665.608C933.69 666.344 933.85 667.064 934.49 667.96L937.098 671.608L936.202 672.248L933.594 668.6C933.402 668.344 933.258 668.088 933.13 667.848C933.002 668.088 932.858 668.344 932.666 668.6L930.058 672.248ZM942.979 668.968H946.451V667.064C945.891 666.552 945.555 665.848 945.555 665.064C945.555 663.192 947.091 662.04 949.267 662.04C951.507 662.04 953.075 663.192 953.075 665.064C953.075 665.848 952.739 666.536 952.163 667.064V668.968H955.619V669.928H942.979V668.968ZM946.707 665.064C946.707 666.152 947.763 667.032 949.267 667.032C950.819 667.032 951.923 666.152 951.923 665.064C951.923 663.8 950.819 663.064 949.267 663.064C947.763 663.064 946.707 663.8 946.707 665.064ZM949.315 676.52C947.123 676.52 945.571 675.176 945.571 673.48C945.571 671.64 947.123 670.456 949.315 670.456C951.523 670.456 953.075 671.64 953.075 673.48C953.075 675.176 951.523 676.52 949.315 676.52ZM949.315 675.464C950.851 675.464 951.923 674.552 951.923 673.48C951.923 672.424 950.851 671.512 949.315 671.512C947.795 671.512 946.723 672.424 946.723 673.48C946.723 674.552 947.795 675.464 949.315 675.464ZM947.635 668.968H950.979V667.768C950.467 667.96 949.891 668.056 949.267 668.056C948.675 668.056 948.115 667.96 947.635 667.784V668.968ZM969.797 662.168H970.997V667.864H973.333V668.888H970.997V675.688H969.797V662.168ZM960.933 672.248L960.037 671.608L962.645 667.96C963.285 667.064 963.445 666.344 963.445 665.608V663.112H964.565V665.608C964.565 666.344 964.725 667.064 965.365 667.96L967.973 671.608L967.077 672.248L964.469 668.6C964.277 668.344 964.133 668.088 964.005 667.848C963.877 668.088 963.733 668.344 963.541 668.6L960.933 672.248ZM980.19 676.52C978.142 676.52 976.702 675.224 976.702 673.496C976.702 671.624 978.142 670.488 980.19 670.488C982.254 670.488 983.694 671.624 983.694 673.496C983.694 675.224 982.254 676.52 980.19 676.52ZM980.19 675.464C981.566 675.464 982.542 674.6 982.542 673.496C982.542 672.392 981.566 671.544 980.19 671.544C978.814 671.544 977.854 672.392 977.854 673.496C977.854 674.6 978.814 675.464 980.19 675.464ZM973.87 669.432V668.44H986.51V669.432H973.87ZM975.742 662.68H976.926V666.104H984.91V667.08H975.742V662.68Z" fill="#7C7895"/>
<rect x="816" y="478" width="288" height="46" rx="10" fill="#A8A8BF"/>
<path d="M941.621 494.056H943.381V504.216H941.621V501.752H939.637V500.36H941.621V498.712H939.637V497.32H941.621V494.056ZM934.421 503.496H936.181V506.6H943.493V508.008H934.421V503.496ZM939.653 495.672V497.112H938.453C938.901 497.656 939.189 498.312 939.189 499.064C939.189 501.016 937.749 502.376 935.701 502.376C933.701 502.376 932.277 501.016 932.261 499.064C932.261 498.312 932.565 497.656 932.997 497.112H931.781V495.672H934.869V494.12H936.581V495.672H939.653ZM933.941 499.064C933.941 500.216 934.645 500.984 935.701 500.984C936.773 500.984 937.525 500.216 937.525 499.064C937.525 497.896 936.773 497.112 935.701 497.112C934.645 497.112 933.941 497.896 933.941 499.064ZM955.899 494.04H957.563V507.8H955.899V501.048H954.459V507.128H952.811V494.312H954.459V499.624H955.899V494.04ZM946.411 504.168L945.003 503.336L947.147 499.656C947.659 498.792 947.771 498.248 947.771 497.544V496.712H945.531V495.272H951.723V496.712H949.483V497.544C949.483 498.248 949.595 498.792 950.107 499.656L952.251 503.336L950.843 504.168L948.699 500.488L948.635 500.36L948.555 500.488L946.411 504.168ZM972.872 494.024H974.632V507.832H972.872V499.912H970.168V504.264H963.368V495.016H965.128V498.504H968.424V495.016H970.168V498.504H972.872V494.024ZM965.128 499.88V502.84H968.424V499.88H965.128ZM986.605 503.848V498.84H984.221V497.416H986.605V494.056H988.365V503.848H986.605ZM979.309 503.304H981.069V506.6H988.477V508.008H979.309V503.304ZM978.093 501.992L976.941 500.84L979.437 498.312C979.949 497.8 980.029 497.368 980.029 496.888V496.328H977.245V494.888H984.365V496.328H981.709V496.888C981.709 497.384 981.773 497.784 982.301 498.312L984.797 500.84L983.645 501.992L981.149 499.464L980.877 499.144L980.589 499.464L978.093 501.992Z" fill="#EBEBF8"/>
<rect x="864" y="174" width="192" height="46" rx="10" fill="#EBEBF8"/>
<path d="M893.114 203.8V196.792H891.61V203.16H889.946V190.408H891.61V195.368H893.114V190.04H894.794V203.8H893.114ZM882.858 198.68C885.114 197.96 887.114 196.344 887.13 192.68H883.354V191.256H888.794V192.68C888.762 197.112 886.074 199.4 883.354 200.28L882.858 198.68ZM906.432 190.056H908.192V199.752H906.432V190.056ZM899.232 199.272H900.992V202.6H908.32V204.008H899.232V199.272ZM900.48 197.736C898.304 197.736 896.784 196.28 896.784 194.216C896.784 192.136 898.304 190.68 900.48 190.68C902.64 190.68 904.16 192.136 904.16 194.216C904.16 196.28 902.64 197.736 900.48 197.736ZM900.48 196.296C901.648 196.296 902.432 195.464 902.432 194.216C902.432 192.952 901.648 192.12 900.48 192.12C899.296 192.12 898.512 192.952 898.512 194.216C898.512 195.464 899.296 196.296 900.48 196.296Z" fill="#875CFF"/>
<rect x="928" y="174" width="64" height="46" rx="10" fill="#875CFF"/>
<path d="M1020.68 190.04H1022.44V203.8H1020.68V190.04ZM1018.33 191.256V192.616V192.696C1018.28 197.112 1014.97 199.384 1011.72 200.232L1011.32 198.616C1014.15 197.88 1016.62 196.216 1016.65 192.696H1011.72V191.256H1018.33ZM1034.5 190.056H1036.26V197.688H1034.5V194.68H1032.02C1031.71 196.36 1030.32 197.496 1028.42 197.496C1026.24 197.496 1024.72 196.04 1024.72 193.976C1024.72 191.896 1026.24 190.44 1028.42 190.44C1030.32 190.44 1031.71 191.56 1032.02 193.256H1034.5V190.056ZM1027.33 198.36H1029.07V199.864H1034.51V198.36H1036.26V204.12H1027.33V198.36ZM1029.07 201.224V202.712H1034.51V201.224H1029.07ZM1028.42 196.056C1029.58 196.056 1030.37 195.208 1030.37 193.976C1030.37 192.712 1029.58 191.864 1028.42 191.864C1027.23 191.864 1026.43 192.712 1026.43 193.976C1026.43 195.208 1027.23 196.056 1028.42 196.056Z" fill="#875CFF"/>
<path d="M946.666 200.696H949.482V196.728H951.21V200.696H953.002V196.728H954.73V200.696H959.546V202.136H946.666V200.696ZM957.706 191.304V198.872H955.93V192.744H948.554V191.304H957.706ZM960.432 196.68H973.296V198.088H970.096V199.496H971.472V204.296H969.728V200.872H962.272V199.496H963.6V198.088H960.432V196.68ZM962.976 192.984C962.976 191.08 964.56 189.832 966.832 189.832C969.152 189.832 970.768 191.08 970.768 192.984C970.768 194.776 969.152 196.104 966.832 196.104C964.56 196.104 962.976 194.776 962.976 192.984ZM964.656 192.984C964.656 193.96 965.536 194.68 966.848 194.68C968.176 194.68 969.088 193.96 969.088 192.984C969.088 191.912 968.176 191.272 966.848 191.272C965.536 191.272 964.656 191.912 964.656 192.984ZM965.36 199.496H968.368V198.088H965.36V199.496Z" fill="#FFFFF3"/>
<rect x="816" y="478" width="288" height="46" rx="10" fill="#EBEBF8"/>
<path d="M921.005 494.024H922.765V507.832H921.005V499.912H918.301V504.264H911.501V495.016H913.261V498.504H916.557V495.016H918.301V498.504H921.005V494.024ZM913.261 499.88V502.84H916.557V499.88H913.261ZM934.738 503.848V498.84H932.354V497.416H934.738V494.056H936.498V503.848H934.738ZM927.442 503.304H929.202V506.6H936.61V508.008H927.442V503.304ZM926.226 501.992L925.074 500.84L927.57 498.312C928.082 497.8 928.162 497.368 928.162 496.888V496.328H925.378V494.888H932.498V496.328H929.842V496.888C929.842 497.384 929.906 497.784 930.434 498.312L932.93 500.84L931.778 501.992L929.282 499.464L929.01 499.144L928.722 499.464L926.226 501.992ZM952.191 494.056H953.951V501.688H952.191V498.68H949.711C949.407 500.36 948.015 501.496 946.111 501.496C943.935 501.496 942.415 500.04 942.415 497.976C942.415 495.896 943.935 494.44 946.111 494.44C948.015 494.44 949.407 495.56 949.711 497.256H952.191V494.056ZM945.023 502.36H946.767V503.864H952.207V502.36H953.951V508.12H945.023V502.36ZM946.767 505.224V506.712H952.207V505.224H946.767ZM946.111 500.056C947.279 500.056 948.063 499.208 948.063 497.976C948.063 496.712 947.279 495.864 946.111 495.864C944.927 495.864 944.127 496.712 944.127 497.976C944.127 499.208 944.927 500.056 946.111 500.056ZM955.893 504.424H968.773V505.864H955.893V504.424ZM966.613 495.272V502.776H964.837V496.712H957.525V495.272H966.613ZM980.139 494.04H981.819V507.8H980.139V494.04ZM975.787 499.144H977.259V494.344H978.891V507.096H977.259V500.584H975.787V499.144ZM970.203 495.208H975.467V500.584H971.915V503.032H975.803V504.472H970.219V499.176H973.787V496.616H970.203V495.208ZM993.392 494.024H995.168V507.832H993.392V494.024ZM987.52 503.4C985.248 503.4 983.632 501.736 983.632 499.368C983.632 496.984 985.248 495.304 987.52 495.304C989.792 495.304 991.392 496.984 991.392 499.368C991.392 501.736 989.792 503.4 987.52 503.4ZM987.52 501.896C988.816 501.896 989.68 500.872 989.68 499.368C989.68 497.848 988.816 496.808 987.52 496.808C986.224 496.808 985.36 497.848 985.36 499.368C985.36 500.872 986.224 501.896 987.52 501.896ZM998.998 495.176H1008.39V496.616H1000.74V500.616H1008.39V502.024H998.998V495.176ZM997.19 506.008V504.568H1010.09V506.008H997.19Z" fill="#875CFF"/>
<path d="M859.152 971.44H866.736V969.952H859.12V968.976H867.936V972.368H860.336V974.064H868.256V975.024H859.152V971.44ZM857.136 967.072C859.968 966.544 861.984 965.472 862.032 962.848H857.44V961.856H863.152V962.768V962.848L863.136 963.232H866.736V961.168H867.936V968.32H866.736V966.848H863.008V965.888H866.736V964.176H862.976C862.336 966.496 860.064 967.68 857.328 968.16L857.136 967.072ZM880.746 961.168H881.898V974.688H880.746V961.168ZM875.738 965.744H877.946V961.504H879.066V973.952H877.946V966.736H875.738V965.744ZM870.906 970.736L869.978 970.16L872.234 966.512C872.794 965.6 872.938 964.88 872.938 964.128V963.424H870.442V962.432H876.538V963.424H874.042V964.128C874.042 964.88 874.186 965.6 874.746 966.512L877.002 970.16L876.074 970.736L873.818 967.088C873.69 966.88 873.578 966.688 873.498 966.496C873.402 966.688 873.29 966.88 873.162 967.088L870.906 970.736ZM889.275 962.16H898.219V963.152H890.475V967.408H898.219V968.4H894.251V971.68H899.979V972.688H887.323V971.68H893.067V968.4H889.275V962.16ZM902.885 970.4H906.645V968.768H900.917V967.776H913.557V968.768H907.829V970.4H911.605V974.976H902.885V970.4ZM910.421 971.36H904.069V974H910.421V971.36ZM903.493 964.064C903.493 962.192 905.029 961.04 907.205 961.04C909.445 961.04 911.013 962.192 911.013 964.064C911.013 965.76 909.445 967.056 907.205 967.056C905.029 967.056 903.493 965.76 903.493 964.064ZM904.645 964.064C904.645 965.312 905.701 966.032 907.205 966.032C908.757 966.032 909.861 965.312 909.861 964.064C909.861 962.8 908.757 962.064 907.205 962.064C905.701 962.064 904.645 962.8 904.645 964.064ZM924.175 961.168H925.375V964.224H927.455V965.216H925.375V968.304H924.175V961.168ZM915.295 961.808H921.375V967.552H915.295V961.808ZM920.207 962.768H916.463V966.592H920.207V962.768ZM916.527 968.976H925.375V972.368H917.743V974H925.727V974.976H916.559V971.456H924.031V969.936H916.527V968.976ZM931.792 971.872H937.52V968.976H933.792V962H934.976V964.368H941.28V962H942.464V968.976H938.704V971.872H944.48V972.88H931.792V971.872ZM934.976 965.36V968H941.28V965.36H934.976ZM955.642 961.168H956.842V974.688H955.642V961.168ZM952.938 962.352V963.36C952.938 967.36 949.77 970 946.538 970.912L946.218 969.792C949.098 968.976 951.77 966.816 951.77 963.36V963.344H946.618V962.352H952.938Z" fill="#7C7895"/>
<rect x="816" y="956" width="26" height="26" rx="5.65217" fill="#EBEBF8"/>
<path d="M826.064 966.681C826.049 966.596 825.966 966.287 825.875 965.948C825.779 965.589 825.809 965.229 825.825 964.897C825.84 964.581 826.014 964.061 826.142 963.791C826.216 963.634 826.584 963.066 826.688 962.947C826.792 962.828 827.156 962.51 827.724 962.3C828.065 962.174 828.911 962.152 829.26 962.239C829.939 962.409 830.312 962.59 830.776 962.905C831.122 963.141 831.356 963.489 831.564 963.967C831.703 964.285 831.728 964.642 831.738 965.313C831.744 965.758 831.557 966.576 831.259 967.113C831.062 967.467 830.686 967.818 830.345 968.168C830.107 968.413 829.82 968.68 829.552 968.933C829.311 969.159 829.039 969.442 828.701 969.889C828.497 970.159 828.416 970.463 828.226 971.141C828.226 971.544 828.265 971.797 828.303 971.934C828.325 972.001 828.352 972.064 828.391 972.152" stroke="#875CFF" stroke-width="1.69565" stroke-linecap="round"/>
<circle cx="828.671" cy="975.362" r="1.19235" transform="rotate(15 828.671 975.362)" fill="#875CFF"/>
<path d="M30.0249 147.582C30.025 147.591 30.0251 147.6 30.0637 150.931C30.1022 154.263 30.1793 160.917 30.2286 164.644C30.2858 168.969 30.3406 169.716 30.3786 170.083C30.4375 170.65 30.414 171.185 30.4926 171.479C30.6289 171.988 32.3755 171.544 33.2514 171.489C33.5063 171.473 33.8934 171.439 34.9639 171.404C37.1312 171.334 38.9723 171.337 39.8315 171.349C40.6239 171.361 41.1518 171.391 42.8932 171.407C44.494 171.421 47.551 171.354 49.1885 171.335C49.9694 171.326 50.5928 171.361 51.1788 171.281C52.0141 171.168 51.7293 169.699 51.667 168.217C51.6337 167.423 51.646 166.404 51.6338 165.349C51.6259 164.664 51.6632 163.941 51.5988 162.325C51.5514 161.138 51.4568 160.622 51.3973 160.013C51.3627 159.659 51.3088 159.353 51.2718 158.259C51.1767 155.453 51.1143 153.461 50.97 153.257C50.6803 152.848 50.3139 152.471 49.9504 152.036C49.5102 151.51 49.1267 151.128 48.7797 150.734C48.3855 150.285 48.0348 149.895 47.6751 149.476C47.3209 149.064 46.8087 148.607 46.3693 148.162C45.9391 147.726 45.6402 147.386 45.4601 147.228C45.2757 147.067 43.6569 147.078 41.3 147.1C39.7607 147.115 39.3176 147.053 37.834 147.05C36.5485 147.047 34.1817 147.071 32.9023 147.092C31.2625 147.182 30.8343 147.238 30.4768 147.261C30.3116 147.272 30.179 147.283 30.0424 147.295" stroke="#875CFF" stroke-width="2.5" stroke-linecap="round"/>
<path d="M45.3984 147.317C45.4047 147.86 45.4478 149.102 45.543 149.696C45.6261 150.215 45.6947 150.952 45.7562 152.162C45.7891 152.81 45.8385 153.31 45.9044 153.529C47.4634 153.416 50.2735 153.374 50.5593 153.396C50.6976 153.41 50.822 153.429 51.0902 153.477" stroke="#875CFF" stroke-width="2.5" stroke-linecap="round"/>
<path d="M37.7636 165.066C37.937 164.872 38.5309 163.906 38.8767 163.248C39.1436 162.74 39.4801 162.3 39.7633 161.863C40.0467 161.425 40.2667 160.999 40.5476 160.651C40.8832 160.235 41.7252 161.049 42.2377 161.217C42.7462 161.384 43.2296 161.617 43.7189 161.785C44.1973 161.945 44.5416 162.064 44.7771 162.134C44.8942 162.172 45.0064 162.216 45.2195 162.349" stroke="#875CFF" stroke-width="2.5" stroke-linecap="round"/>
<path d="M41.0103 160.637C41.0122 160.801 41.0872 161.312 41.2241 161.835C41.36 162.355 41.4467 162.836 41.533 163.314C41.6233 163.813 41.704 164.855 41.7838 165.679C41.8394 166.252 41.8706 166.832 41.9541 171.022C41.9869 172.664 41.8964 173.379 41.821 173.861C41.7418 174.368 41.6278 174.891 41.5225 175.414C41.416 175.941 41.3258 176.431 41.2409 176.953C41.1591 177.457 41.0201 177.954 40.9312 178.431C40.9118 178.551 40.8927 178.67 40.8685 178.789C40.8443 178.908 40.8155 179.022 40.6981 179.428" stroke="#875CFF" stroke-width="2.5" stroke-linecap="round"/>
<path d="M31.4831 327.479C31.3226 327.526 30.8379 327.751 30.4134 328.119C29.9489 328.522 29.681 328.997 29.4921 329.517C29.1408 330.485 29.3881 332.112 29.654 332.568C29.9687 333.108 30.5508 333.527 31.0125 333.858C31.2302 334.014 32.2915 333.999 33.7483 334.023C35.9309 334.059 38.939 334.123 39.8079 334.209C40.5691 334.285 42.5652 334.27 45.0144 334.283C46.6736 334.292 47.825 334.215 48.6774 334.147C49.2441 334.102 49.8072 333.95 50.3173 333.775C50.819 333.602 51.3571 333.432 52.061 333.1C52.6078 332.842 52.9083 332.208 53.1992 331.706C53.607 331.003 53.2937 329.881 53.0277 329.331C52.7775 328.814 52.312 328.453 51.8328 328.135C51.2691 327.761 50.8407 327.728 50.6318 327.635C50.0732 327.385 50.2212 326.399 50.2212 325.615C50.2212 324.819 50.13 324.168 50.0883 323.357C50.057 322.748 49.9102 322.061 49.8227 321.365C49.754 320.819 49.6469 320.196 49.557 319.505C49.4187 318.444 49.2813 318.15 49.0002 317.472C48.7589 316.891 48.7617 316.809 48.4944 316.318C48.2364 315.843 47.8303 315.255 47.299 314.724C46.9267 314.351 46.6348 314.039 46.1035 313.661C45.6255 313.321 45.086 313.038 43.9783 312.466C43.335 312.133 42.3658 311.908 41.7985 311.908C41.0561 311.909 39.595 311.908 38.2667 312.2C37.3017 312.412 36.6545 312.737 36.0086 313.13C35.3335 313.54 34.7521 313.923 34.2822 314.442C33.8042 314.97 33.5409 315.508 33.3114 315.989C32.9332 316.782 32.5257 318.045 32.346 318.601C32.1561 319.188 32.1069 319.838 32.0486 320.43C31.9754 321.174 31.9376 322.427 31.8457 323.398C31.7845 324.046 31.7302 324.627 31.6728 325.527C31.6537 325.749 31.6281 325.909 31.6149 326.195C31.6017 326.481 31.6017 326.888 31.6017 327.308" stroke="#875CFF" stroke-width="2.5" stroke-linecap="round"/>
<path d="M37.4355 334.119C37.4355 334.649 37.4815 335.925 37.7096 336.418C37.9494 336.935 38.1121 337.246 38.5325 337.703C38.7707 337.962 39.3634 338.24 39.6061 338.346C40.4518 338.713 41.9081 338.415 42.3845 338.101C42.8859 337.772 43.1815 337.437 43.559 336.828C43.8505 336.358 44.0774 335.872 44.2076 335.312C44.231 335.172 44.2539 335.043 44.2658 334.879C44.2776 334.714 44.2776 334.517 44.2776 334.314" stroke="#875CFF" stroke-width="2.5" stroke-linecap="round"/>
<path d="M38.3984 311.668C38.3984 311.176 38.5249 309.513 38.7942 309.05C39.068 308.579 39.4138 308.198 39.9339 307.89C40.454 307.582 40.9222 307.551 41.8119 307.752C42.5267 307.913 42.8739 308.43 43.1614 308.901C43.4573 309.387 43.4817 309.966 43.5558 311.003C43.572 311.238 43.5931 311.366 43.6095 311.504C43.6258 311.643 43.6367 311.789 43.6479 311.94" stroke="#875CFF" stroke-width="2.5" stroke-linecap="round"/>
<path d="M46.2631 933.363C46.0543 933.25 45.4464 932.773 44.7983 932.403C44.1376 932.026 43.4035 931.747 41.1778 931.627C38.2822 931.472 37.5399 932.02 36.8628 932.447C36.1665 932.887 35.7786 933.593 35.3888 934.277C34.9897 934.978 34.8575 935.777 34.8075 937.428C34.7791 938.362 35.4815 938.963 35.9627 939.54C36.4735 940.153 37.1949 940.476 37.8699 940.836C38.545 941.197 39.358 941.332 40.1201 941.515C40.8741 941.695 41.6028 941.863 42.3775 942.105C43.1389 942.341 43.8602 942.707 44.5382 943.086C45.3639 943.546 46.0823 944.526 46.4824 945.247C46.8613 945.931 46.906 946.764 46.9002 949.059C46.8975 950.168 46.2541 950.908 45.482 951.661C44.853 952.275 43.7084 952.712 42.7977 953.033C42.0471 953.298 40.1082 953.283 38.789 953.083C37.9794 952.96 37.3573 952.453 36.6493 951.997C36.3123 951.792 35.9021 951.423 35.6042 951.167C35.4618 951.035 35.3372 950.898 35.1657 950.757" stroke="#875CFF" stroke-width="2.5" stroke-linecap="round"/>
<path d="M40.7104 926.865C40.7104 926.893 40.7104 926.921 40.7104 927.297C40.7104 927.674 40.7104 928.397 40.7024 929.031C40.6945 929.665 40.6785 930.187 40.6621 930.725" stroke="#875CFF" stroke-width="2.5" stroke-linecap="round"/>
<path d="M40.7578 953.578C40.7578 953.592 40.7578 953.606 40.7578 954.195C40.7578 954.785 40.7578 955.949 40.8025 957.546" stroke="#875CFF" stroke-width="2.5" stroke-linecap="round"/>
<path d="M33.8945 1011.8C33.9445 1011.71 34.152 1011.37 34.401 1011.03C34.739 1010.57 35.1104 1010.44 35.4326 1010.17C35.7365 1009.91 36.0892 1009.76 36.4307 1009.6C36.7547 1009.45 37.1002 1009.34 37.4266 1009.22C38.1552 1008.94 37.5574 1007.1 37.8567 1006.3C38.0176 1005.86 39.5105 1006.11 40.1476 1006.11C41.9317 1006.11 42.3644 1006.11 42.7096 1006.11C43.0192 1006.11 43.3288 1006.17 43.3288 1006.38C43.3288 1007.08 43.3236 1007.43 43.3236 1007.85C43.3236 1008.42 43.3437 1008.94 43.4011 1009.18C43.5121 1009.65 44.4068 1009.85 44.7735 1010.03C45.1192 1010.19 45.4959 1010.34 45.7688 1010.55C46.1564 1010.86 46.3528 1010.95 46.6044 1011.18C46.6682 1011.23 46.7489 1011.27 46.8875 1011.25C47.5615 1011.16 47.9449 1010.89 48.7757 1010.53C49.0414 1010.42 49.2034 1010.34 49.3653 1010.31C49.7038 1010.24 50.0216 1010.76 50.2868 1011.09C50.5126 1011.37 50.7009 1011.66 50.9562 1012.07C51.171 1012.41 51.3945 1012.69 51.6388 1013.16C51.822 1013.51 51.922 1013.86 51.9933 1014.18C52.0711 1014.54 51.4497 1014.66 51.1632 1014.88C50.8666 1015.1 50.5969 1015.33 50.241 1015.57C49.7342 1015.92 49.4931 1016.03 49.3949 1016.19C49.1455 1016.59 49.4209 1017.03 49.4299 1018.79C49.4333 1019.45 49.3142 1019.8 49.4253 1020.12C49.5469 1020.47 50.0079 1020.59 50.3176 1020.81C50.6388 1021.04 50.912 1021.32 51.1884 1021.53C51.3266 1021.64 51.4565 1021.75 51.5307 1021.9C51.713 1022.26 51.1653 1023.01 50.9045 1023.46C50.699 1023.82 50.4665 1024.11 50.2837 1024.41C50.1044 1024.71 49.9416 1025.03 49.7586 1025.34C49.7135 1025.42 49.6597 1025.49 49.5584 1025.53C49.1058 1025.71 48.7545 1025.38 48.4472 1025.23C48.1348 1025.07 47.8315 1024.89 47.4989 1024.72C47.1842 1024.57 46.9368 1024.48 46.7623 1024.46C46.3168 1024.41 46.0827 1024.89 45.7857 1025.09C45.5006 1025.29 45.2326 1025.54 44.9251 1025.74C44.6157 1025.95 44.2909 1026.07 43.9306 1026.22C43.8388 1026.26 43.752 1026.3 43.669 1026.35C43.5859 1026.39 43.5092 1026.43 43.2295 1026.59" stroke="#875CFF" stroke-width="2.5" stroke-linecap="round"/>
<path d="M43.1907 1026.59C43.1907 1027.44 43.1472 1029.24 43.0445 1029.57C43.0182 1029.66 43.0078 1029.75 42.9687 1029.82C42.8913 1029.97 41.2876 1030.01 38.9344 1030.01C38.095 1030.02 37.9761 1030.02 37.8902 1029.99C37.5665 1029.87 37.6486 1029.26 37.6273 1028.89C37.5951 1028.34 37.6271 1027.57 37.5939 1027.15C37.5567 1026.68 36.8057 1026.82 36.4874 1026.6C36.1429 1026.36 35.8446 1026.16 35.5489 1025.94C35.2647 1025.73 35.0151 1025.44 34.8155 1025.15C34.7175 1025 34.603 1024.87 34.4694 1024.81C34.1769 1024.68 33.89 1025.16 33.5712 1025.31C33.2449 1025.46 32.878 1025.61 32.5251 1025.8C32.204 1025.98 31.852 1026.08 31.5331 1026.21C31.4568 1026.24 31.3665 1026.18 31.3037 1026.11C31.0374 1025.83 30.8856 1025.46 30.6744 1025.14C30.4466 1024.79 30.2318 1024.5 30.0719 1024.16C29.8877 1023.78 29.6994 1023.48 29.5098 1023.16C29.3237 1022.84 29.2111 1022.5 29.0628 1022.19C29.0246 1022.1 28.9612 1021.99 29.0319 1021.95C29.444 1021.71 29.6507 1021.5 30.0823 1021.2C30.3739 1020.99 30.6614 1020.74 30.9813 1020.56C31.059 1020.52 31.1377 1020.48 31.213 1020.43C31.2884 1020.39 31.3582 1020.33 31.4938 1020.23" stroke="#875CFF" stroke-width="2.5" stroke-linecap="round"/>
<path d="M31.7641 1020.23C31.7339 1020.12 31.6438 1019.75 31.5605 1019.41C31.4756 1019.07 31.4262 1018.69 31.3483 1016.62C31.3327 1016.2 31.2092 1016.19 31.1262 1016.15C30.755 1016 30.4121 1015.69 30.0813 1015.5C29.7414 1015.3 29.554 1015.17 29.1865 1014.88C28.751 1014.52 29.1786 1014.1 29.4518 1013.6C29.6853 1013.17 30.0108 1012.64 30.1822 1012.21C30.3352 1011.83 30.625 1011.4 30.8465 1010.98C31.0143 1010.67 31.266 1010.42 31.5242 1010.24C31.821 1010.04 32.1831 1010.6 32.5161 1010.81C32.8583 1011.02 33.1532 1011.26 33.4377 1011.48C33.5088 1011.52 33.5795 1011.57 33.6525 1011.61C33.7255 1011.65 33.7986 1011.69 33.8934 1011.76" stroke="#875CFF" stroke-width="2.5" stroke-linecap="round"/>
<path d="M38.7173 1014.94C39.0273 1014.77 39.9978 1014.6 40.2502 1014.6C40.4643 1014.61 40.6721 1014.62 40.8201 1014.64C40.968 1014.65 41.5914 1014.81 41.6745 1014.85C41.9984 1015.01 42.086 1015.08 42.3883 1015.26C42.6996 1015.46 42.7526 1015.58 43.0285 1015.95C43.3008 1016.32 43.5549 1016.77 43.6012 1017.17C43.6929 1017.97 43.7256 1019.06 43.598 1019.44C43.4788 1019.79 43.3409 1020.23 43.0894 1020.55C42.8477 1020.86 42.5797 1021.21 42.2448 1021.43C41.8705 1021.68 41.3686 1021.87 40.6774 1021.93C40.2307 1021.97 39.7855 1021.87 39.4311 1021.77C39.1006 1021.67 38.7784 1021.59 38.4114 1021.33C38.0757 1021.09 37.7373 1020.76 37.5956 1020.55C37.3792 1020.23 37.0684 1019.33 37.0763 1018.72C37.0939 1017.39 37.1527 1017.01 37.2772 1016.64C37.4058 1016.26 37.5531 1015.9 37.7965 1015.62C38.0505 1015.32 38.3962 1015.12 38.7173 1014.94Z" stroke="#875CFF" stroke-width="2.5" stroke-linecap="round"/>
<path d="M39.3563 230.419C39.1065 230.422 38.4157 230.493 37.9502 230.644C37.4951 230.791 37.0076 230.896 36.5216 231.093C36.0532 231.283 35.5682 231.406 35.1407 231.6C34.6649 231.817 34.0982 232.105 33.6953 232.417C33.3057 232.719 32.8543 232.983 32.4797 233.251C32.0852 233.533 31.7119 233.928 31.3834 234.318C31.0237 234.746 30.7429 235.163 30.378 235.746C30.0096 236.334 29.6275 237.117 29.3238 237.701C29.0748 238.18 28.9161 238.729 28.7627 239.276C28.6287 239.754 28.5906 240.294 28.51 240.82C28.4149 241.44 28.4205 243.265 28.4955 244.295C28.5362 244.854 28.8075 245.283 28.9587 245.796C29.1063 246.296 29.2825 246.746 29.4613 247.234C29.7323 247.974 30.1633 248.633 30.4889 249.15C30.7489 249.563 31.0836 249.914 31.5808 250.387C32.224 251 32.6332 251.277 33.0767 251.571C33.4652 251.829 34.0557 252.139 35.0831 252.649C35.9281 253.068 36.4382 253.115 36.9091 253.227C37.3885 253.341 38.0535 253.341 40.8488 253.329C41.7629 253.325 42.2401 253.068 42.7388 252.884C43.3553 252.656 44.658 252.025 45.3529 251.626C45.7963 251.371 46.1773 251.103 46.5566 250.792C46.9667 250.456 47.3207 250.166 47.7064 249.832C48.1041 249.488 48.4473 249.023 48.7377 248.632C49.0593 248.199 49.396 247.439 49.6198 246.83C49.7905 246.365 49.8885 245.898 50.009 245.442C50.1314 244.98 50.2378 244.486 50.3242 244.019C50.4081 243.564 50.4688 243.086 50.5549 242.606C50.753 241.503 50.553 239.743 50.4151 239.233C50.2543 238.639 50.1232 238.146 49.9466 237.664C49.7475 237.121 49.5745 236.641 49.3432 236.195C49.1306 235.786 48.8607 235.397 48.566 234.981C48.281 234.58 47.9533 234.191 47.6521 233.819" stroke="#875CFF" stroke-width="2.5" stroke-linecap="round"/>
<path d="M47.8496 250.016C47.9443 250.104 48.2366 250.45 48.5663 250.781C48.9466 251.163 49.392 251.554 49.7694 251.925C50.1081 252.257 50.4896 252.608 51.1236 253.263C51.5957 253.75 52.1767 254.313 52.7299 254.828C53.6045 255.677 54.1811 256.222 54.5519 256.514C54.6466 256.583 54.7389 256.645 55.0012 256.846" stroke="#875CFF" stroke-width="2.5" stroke-linecap="round"/>
</g>
<defs>
<clipPath id="clip0_4056_962">
<rect width="1920" height="1080" fill="white"/>
</clipPath>
</defs>
</svg>
