<svg width="1920" height="1080" viewBox="0 0 1920 1080" fill="none" xmlns="http://www.w3.org/2000/svg">
<g clip-path="url(#clip0_4056_1027)">
<rect width="1920" height="1080" fill="white"/>
<rect x="-1.39258" y="-3.32471" width="81.6226" height="1087.94" transform="rotate(-0.076067 -1.39258 -3.32471)" fill="#F6F5F9"/>
<path d="M53.5761 47.0968C55.3051 47.0768 56.6904 45.6589 56.6704 43.93C56.6504 42.201 55.2325 40.8157 53.5036 40.8357C51.7746 40.8557 50.3893 42.2735 50.4093 44.0025C50.4293 45.7314 51.8472 47.1168 53.5761 47.0968Z" fill="#875CFF"/>
<path d="M38.1389 88.4943C37.8113 88.4981 37.4743 88.4927 37.1342 88.4812C28.909 88.1592 24.9959 83.8744 23.1622 80.3381C21.8629 77.8342 21.1577 74.8505 21.1213 71.7137C21.0813 68.2556 21.9319 56.8408 34.5548 54.4537C37.0591 53.9796 39.7017 53.983 42.4117 54.4585C44.1306 54.76 46.5477 55.31 49.2913 56.2828L49.8804 51.9117C50.1081 50.2215 51.6676 49.0351 53.3578 49.2628C55.048 49.4905 56.2343 51.0469 56.0067 52.7402L53.1317 74.035C53.0653 74.7065 52.6518 77.969 50.7427 81.2611C48.8276 84.5657 45.1015 88.4167 38.1358 88.4974L38.1389 88.4943ZM38.2138 60.2807C37.3547 60.2907 36.518 60.3715 35.707 60.5261C28.2991 61.9286 27.2639 68.082 27.3049 71.6236C27.3496 75.4773 28.7167 81.9644 37.3779 82.303C45.8536 82.6344 46.898 74.3452 46.9891 73.3984L47.003 73.2653L48.4491 62.5637C45.6019 61.4376 43.0637 60.8489 41.3448 60.5443C40.2763 60.3557 39.2306 60.269 38.2169 60.2807L38.2138 60.2807Z" fill="#875CFF"/>
<circle cx="1857" cy="58" r="19.75" stroke="#875CFF" stroke-width="2.5"/>
<path d="M1845.73 74.0016C1845.79 73.218 1846.36 70.4795 1846.81 69.4518C1847.09 68.8083 1847.56 68.1994 1847.89 67.6567C1848.26 67.0484 1848.68 66.6276 1849.09 66.1083C1849.71 65.3103 1850.31 64.9833 1850.82 64.6715C1851.84 64.0442 1853.01 63.6412 1853.7 63.3599C1854.79 62.9141 1856.12 62.8347 1857.03 62.7772C1858.88 62.66 1861.26 63.0331 1862.56 63.4458C1863.55 63.7616 1864.08 64.0373 1864.66 64.325C1865.44 64.7134 1865.96 65.0533 1866.49 65.4626C1867.04 65.8895 1867.4 66.3654 1867.85 66.904C1868.25 67.3807 1868.58 67.9039 1868.83 68.4337C1869.14 69.08 1869.31 69.6751 1869.6 70.5358C1869.79 71.3295 1869.91 71.9371 1869.93 72.2163C1869.94 72.3623 1869.94 72.5169 1869.94 72.6761" stroke="#875CFF" stroke-width="2.5" stroke-linecap="round"/>
<path d="M1850.42 57.4851C1850.54 58.1171 1851.27 59.8876 1851.99 60.7263C1852.61 61.4363 1853.42 61.7804 1854.2 62.1185C1855.01 62.4654 1855.94 62.6692 1856.84 62.6844C1858.35 62.7098 1860.41 61.7628 1861.13 61.2261C1861.96 60.6055 1862.57 59.7915 1863.12 59.0667C1863.64 58.3779 1863.82 57.4884 1864.12 56.5731C1864.4 55.7237 1864.18 54.7613 1863.84 53.2637C1863.4 51.3328 1862.63 50.4173 1861.79 49.5279C1860.96 48.657 1859.87 48.3395 1858.95 47.973C1858.01 47.6 1857.13 47.6232 1856.2 47.7356C1854.89 47.8942 1853.13 48.9457 1852.02 50.0083C1851.29 50.707 1850.95 51.5482 1850.52 52.4459C1850.12 53.2594 1850.01 54.1136 1850.01 54.95C1850 55.4039 1849.99 55.8494 1850.06 56.4223C1850.12 56.7905 1850.24 57.3159 1850.37 57.8572" stroke="#875CFF" stroke-width="2.5" stroke-linecap="round"/>
<path d="M895.765 111.044H898.001V133.222H895.765V120.118H890.955V127.086H880.321V112.552H882.583V118.298H888.719V112.552H890.955V118.298H895.765V111.044ZM882.583 120.092V125.24H888.719V120.092H882.583ZM917.905 126.644V118.454H913.667V116.608H917.905V111.096H920.167V126.644H917.905ZM905.763 125.89H908.025V131.636H920.297V133.456H905.763V125.89ZM903.865 123.602L902.357 122.198L906.205 118.116C907.063 117.18 907.193 116.27 907.193 115.386V114.372H902.617V112.5H913.719V114.372H909.351V115.386C909.351 116.27 909.455 117.154 910.339 118.116L914.187 122.198L912.679 123.602L908.831 119.52C908.623 119.286 908.441 119.052 908.285 118.818C908.103 119.052 907.921 119.286 907.713 119.52L903.865 123.602ZM946.063 111.096H948.325V123.342H946.063V118.142H941.487C941.097 120.846 938.887 122.692 935.871 122.692C932.517 122.692 930.151 120.43 930.151 117.232C930.151 114.008 932.517 111.746 935.871 111.746C938.887 111.746 941.097 113.566 941.487 116.296H946.063V111.096ZM934.155 124.486H936.391V127.242H946.063V124.486H948.325V133.664H934.155V124.486ZM936.391 129.036V131.844H946.063V129.036H936.391ZM935.871 120.846C937.925 120.846 939.355 119.364 939.355 117.232C939.355 115.074 937.925 113.592 935.871 113.592C933.817 113.592 932.361 115.074 932.361 117.232C932.361 119.364 933.817 120.846 935.871 120.846ZM951.641 128.022H972.311V129.894H951.641V128.022ZM968.749 113.046V125.006H966.487V114.892H954.527V113.046H968.749ZM991.071 111.07H993.229V133.17H991.071V111.07ZM983.739 119.416H986.469V111.616H988.549V131.974H986.469V121.262H983.739V119.416ZM974.847 112.968H983.193V121.262H977.057V125.578H983.739V127.424H974.899V119.416H981.035V114.788H974.847V112.968ZM1012.43 111.044H1014.69V133.222H1012.43V111.044ZM1002.53 125.89C998.963 125.89 996.441 123.29 996.441 119.598C996.441 115.88 998.963 113.254 1002.53 113.254C1006.06 113.254 1008.56 115.88 1008.56 119.598C1008.56 123.29 1006.06 125.89 1002.53 125.89ZM1002.53 123.914C1004.81 123.914 1006.4 122.146 1006.4 119.598C1006.4 117.024 1004.81 115.23 1002.53 115.23C1000.21 115.23 998.625 117.024 998.625 119.598C998.625 122.146 1000.21 123.914 1002.53 123.914ZM1021.23 112.942H1036V114.788H1023.47V121.756H1036V123.576H1021.23V112.942ZM1018.14 130.102V128.256H1038.86V130.102H1018.14Z" fill="#875CFF"/>
<rect x="864" y="174" width="192" height="46" rx="10" fill="#EBEBF8"/>
<rect x="864" y="174" width="64" height="46" rx="10" fill="#875CFF"/>
<path d="M893.114 203.8V196.792H891.61V203.16H889.946V190.408H891.61V195.368H893.114V190.04H894.794V203.8H893.114ZM882.858 198.68C885.114 197.96 887.114 196.344 887.13 192.68H883.354V191.256H888.794V192.68C888.762 197.112 886.074 199.4 883.354 200.28L882.858 198.68ZM906.432 190.056H908.192V199.752H906.432V190.056ZM899.232 199.272H900.992V202.6H908.32V204.008H899.232V199.272ZM900.48 197.736C898.304 197.736 896.784 196.28 896.784 194.216C896.784 192.136 898.304 190.68 900.48 190.68C902.64 190.68 904.16 192.136 904.16 194.216C904.16 196.28 902.64 197.736 900.48 197.736ZM900.48 196.296C901.648 196.296 902.432 195.464 902.432 194.216C902.432 192.952 901.648 192.12 900.48 192.12C899.296 192.12 898.512 192.952 898.512 194.216C898.512 195.464 899.296 196.296 900.48 196.296Z" fill="#FFFFF3"/>
<path d="M1020.68 190.04H1022.44V203.8H1020.68V190.04ZM1018.33 191.256V192.616V192.696C1018.28 197.112 1014.97 199.384 1011.72 200.232L1011.32 198.616C1014.15 197.88 1016.62 196.216 1016.65 192.696H1011.72V191.256H1018.33ZM1034.5 190.056H1036.26V197.688H1034.5V194.68H1032.02C1031.71 196.36 1030.32 197.496 1028.42 197.496C1026.24 197.496 1024.72 196.04 1024.72 193.976C1024.72 191.896 1026.24 190.44 1028.42 190.44C1030.32 190.44 1031.71 191.56 1032.02 193.256H1034.5V190.056ZM1027.33 198.36H1029.07V199.864H1034.51V198.36H1036.26V204.12H1027.33V198.36ZM1029.07 201.224V202.712H1034.51V201.224H1029.07ZM1028.42 196.056C1029.58 196.056 1030.37 195.208 1030.37 193.976C1030.37 192.712 1029.58 191.864 1028.42 191.864C1027.23 191.864 1026.43 192.712 1026.43 193.976C1026.43 195.208 1027.23 196.056 1028.42 196.056Z" fill="#875CFF"/>
<path d="M946.666 200.696H949.482V196.728H951.21V200.696H953.002V196.728H954.73V200.696H959.546V202.136H946.666V200.696ZM957.706 191.304V198.872H955.93V192.744H948.554V191.304H957.706ZM960.432 196.68H973.296V198.088H970.096V199.496H971.472V204.296H969.728V200.872H962.272V199.496H963.6V198.088H960.432V196.68ZM962.976 192.984C962.976 191.08 964.56 189.832 966.832 189.832C969.152 189.832 970.768 191.08 970.768 192.984C970.768 194.776 969.152 196.104 966.832 196.104C964.56 196.104 962.976 194.776 962.976 192.984ZM964.656 192.984C964.656 193.96 965.536 194.68 966.848 194.68C968.176 194.68 969.088 193.96 969.088 192.984C969.088 191.912 968.176 191.272 966.848 191.272C965.536 191.272 964.656 191.912 964.656 192.984ZM965.36 199.496H968.368V198.088H965.36V199.496Z" fill="#875CFF"/>
<rect x="1155" y="272" width="758.999" height="390" rx="29" transform="rotate(90 1155 272)" fill="#F6F5F9"/>
<path d="M932.38 315.044H934.616V337.222H932.38V315.044ZM917.378 316.786H919.614V322.064H925.776V316.786H927.986V331.086H917.378V316.786ZM919.614 323.858V329.24H925.776V323.858H919.614ZM938.062 332.308H958.784V334.18H938.062V332.308ZM940.948 328.668L939.648 327.056L945.524 322.298C946.902 321.18 947.162 320.426 947.162 319.672V318.606H940.61V316.734H956.132V318.606H949.58V319.672C949.58 320.426 949.84 321.18 951.218 322.298L957.094 327.056L955.794 328.668L949.918 323.91C949.242 323.364 948.722 322.818 948.384 322.324C948.02 322.818 947.5 323.364 946.824 323.91L940.948 328.668ZM976.764 315.07H978.974V337.17H976.764V315.07ZM973.566 329.11V330.982H961.84V316.994H964.05V329.11H973.566ZM982.394 332.256H1003.12V334.128H982.394V332.256ZM985.254 328.564L983.954 326.952L989.856 322.194C991.26 321.102 991.52 320.322 991.52 319.568V316.76H993.938V319.568C993.938 320.322 994.198 321.076 995.602 322.194L1001.5 326.952L1000.2 328.564L994.302 323.806C993.6 323.26 993.106 322.714 992.742 322.194C992.352 322.714 991.858 323.26 991.156 323.806L985.254 328.564Z" fill="#875CFF"/>
<path d="M817.92 400.3C822.3 396.1 828.27 391.84 828.27 388.15C828.27 385.69 826.71 383.95 824.49 383.95C822.78 383.95 821.07 385.18 820.29 386.95L817.5 385.72C818.7 382.96 821.61 381.04 824.49 381.04C828.6 381.04 831.45 383.98 831.45 388.15C831.45 392.74 826.47 396.82 822.42 400.3H831.81V403.09H818.22L817.92 400.3ZM842.195 400.63C844.685 400.63 846.425 399.04 846.425 396.76C846.425 394.48 844.685 392.95 842.195 392.95C839.705 392.95 837.935 394.48 837.935 396.76C837.935 399.04 839.705 400.63 842.195 400.63ZM838.565 386.92C838.565 388.87 840.065 390.22 842.195 390.22C844.355 390.22 845.855 388.87 845.855 386.92C845.855 384.97 844.355 383.62 842.195 383.62C840.065 383.62 838.565 384.97 838.565 386.92ZM846.035 391.6C848.135 392.8 849.635 394.9 849.635 396.82C849.635 400.63 846.575 403.33 842.195 403.33C837.845 403.33 834.755 400.63 834.755 396.82C834.755 394.9 836.255 392.77 838.355 391.6C836.615 390.4 835.355 388.45 835.355 386.89C835.355 383.41 838.175 380.92 842.195 380.92C846.215 380.92 849.035 383.41 849.035 386.89C849.035 388.48 847.805 390.43 846.035 391.6ZM856.558 400.24L854.518 407.14H852.148L853.288 400.24H856.558ZM869.005 383.8C866.425 383.8 864.595 385.66 864.595 388.3C864.595 390.94 866.425 392.8 869.005 392.8C871.555 392.8 873.355 390.94 873.355 388.3C873.355 385.66 871.555 383.8 869.005 383.8ZM876.535 388.3C876.535 389.86 875.965 391.3 875.335 392.44L869.185 403.36L866.395 401.83L870.025 395.47C869.665 395.53 869.305 395.59 868.915 395.59C864.505 395.56 861.415 392.56 861.415 388.3C861.415 384.01 864.535 381.01 868.975 381.01C873.415 381.01 876.535 384.01 876.535 388.3ZM888.852 400.48C892.662 400.48 895.062 397.27 895.062 392.17C895.062 387.04 892.662 383.83 888.852 383.83C885.012 383.83 882.612 387.04 882.612 392.17C882.612 397.27 885.012 400.48 888.852 400.48ZM888.852 403.3C883.062 403.3 879.432 398.98 879.432 392.17C879.432 385.33 883.062 381.04 888.852 381.04C894.612 381.04 898.242 385.33 898.242 392.17C898.242 398.98 894.612 403.3 888.852 403.3ZM910.532 400.48C914.342 400.48 916.742 397.27 916.742 392.17C916.742 387.04 914.342 383.83 910.532 383.83C906.692 383.83 904.292 387.04 904.292 392.17C904.292 397.27 906.692 400.48 910.532 400.48ZM910.532 403.3C904.742 403.3 901.112 398.98 901.112 392.17C901.112 385.33 904.742 381.04 910.532 381.04C916.292 381.04 919.922 385.33 919.922 392.17C919.922 398.98 916.292 403.3 910.532 403.3ZM950.602 381.34L948.502 390.01H951.712V392.98H947.752L945.322 403H941.932L939.532 392.98H935.842L933.442 403H930.052L927.592 392.98H923.632V390.01H926.872L924.742 381.34H927.592L929.722 390.01H933.772L935.902 381.37H939.472L941.602 390.01H945.652L947.782 381.34H950.602ZM930.442 392.98L931.732 398.23L933.022 392.98H930.442ZM936.532 390.01H938.812L937.672 385.27L936.532 390.01ZM942.352 392.98L943.642 398.23L944.932 392.98H942.352Z" fill="#875CFF"/>
<path d="M826.496 436.056H828.256V443.688H826.496V440.68H824.016C823.712 442.36 822.32 443.496 820.416 443.496C818.24 443.496 816.72 442.04 816.72 439.976C816.72 437.896 818.24 436.44 820.416 436.44C822.32 436.44 823.712 437.56 824.016 439.256H826.496V436.056ZM819.328 444.36H821.072V445.864H826.512V444.36H828.256V450.12H819.328V444.36ZM821.072 447.224V448.712H826.512V447.224H821.072ZM820.416 442.056C821.584 442.056 822.368 441.208 822.368 439.976C822.368 438.712 821.584 437.864 820.416 437.864C819.232 437.864 818.432 438.712 818.432 439.976C818.432 441.208 819.232 442.056 820.416 442.056ZM830.198 444.168H843.094V445.592H837.478V450.312H835.734V445.592H830.198V444.168ZM832.15 436.792H841.094V442.584H832.15V436.792ZM839.366 438.184H833.878V441.208H839.366V438.184ZM843.963 442.536H856.859V443.816H843.963V442.536ZM845.803 444.696H854.923V447.944H847.579V448.936H855.355V450.152H845.819V446.808H853.195V445.912H845.803V444.696ZM845.979 436.36H854.907V439.576H847.723V440.488H855.179V441.72H846.011V438.44H853.179V437.576H845.979V436.36ZM866.024 442.6C863.88 442.6 862.36 441.256 862.36 439.32C862.36 437.384 863.88 436.024 866.024 436.024C868.2 436.024 869.736 437.384 869.736 439.32C869.736 441.256 868.2 442.6 866.024 442.6ZM865.224 449.288V444.824H861.704V443.384H870.552V444.824H866.984V449.288H865.224ZM866.024 441.16C867.224 441.16 868.04 440.424 868.04 439.32C868.04 438.216 867.224 437.464 866.024 437.464C864.856 437.464 864.056 438.216 864.056 439.32C864.056 440.424 864.856 441.16 866.024 441.16ZM871.48 449.816V436.04H873.224V449.816H871.48ZM884.558 436.056H886.334V440.52H888.302V441.976H886.334V446.056H884.558V436.056ZM877.518 445.592H879.278V448.6H886.638V450.008H877.518V445.592ZM883.278 437.752V439.192H882.062C882.51 439.736 882.814 440.408 882.814 441.16C882.814 443.112 881.374 444.472 879.326 444.472C877.326 444.472 875.902 443.112 875.886 441.16C875.886 440.408 876.19 439.736 876.638 439.192H875.406V437.752H878.494V436.12H880.206V437.752H883.278ZM877.566 441.16C877.566 442.312 878.27 443.08 879.326 443.08C880.398 443.08 881.15 442.312 881.15 441.16C881.15 439.992 880.398 439.208 879.326 439.208C878.27 439.208 877.566 439.992 877.566 441.16ZM892.635 446.648H898.187V444.152H894.475V436.888H896.219V439.128H901.931V436.888H903.659V444.152H899.947V446.648H905.531V448.088H892.635V446.648ZM896.219 440.52V442.76H901.931V440.52H896.219ZM910.289 443.832C908.113 443.832 906.593 442.376 906.593 440.312C906.593 438.232 908.113 436.776 910.289 436.776C912.449 436.776 913.969 438.232 913.969 440.312C913.969 442.376 912.449 443.832 910.289 443.832ZM908.785 445.288H910.545V448.6H917.937V450.008H908.785V445.288ZM910.289 442.392C911.457 442.392 912.241 441.544 912.241 440.312C912.241 439.048 911.457 438.216 910.289 438.216C909.105 438.216 908.321 439.048 908.321 440.312C908.321 441.544 909.105 442.392 910.289 442.392ZM915.777 445.864V436.04H917.553V440.216H919.521V441.656H917.553V445.864H915.777ZM927.814 437.304V443.64H926.054V438.744H920.598V437.304H927.814ZM929.494 449.8V436.04H931.238V441.864H933.302V443.32H931.238V449.8H929.494ZM928.582 445.592V447H920.15V445.592H922.694V441.592H924.422V445.592H928.582ZM947.62 449.832V436.024H949.38V449.832H947.62ZM946.644 445.768V447.176H937.86V445.768H941.411V443.704H943.172V445.768H946.644ZM939.156 444.152L938.036 442.968L940.74 440.392C941.236 439.944 941.396 439.592 941.428 439.224H938.276V437.784H941.46V436.232H943.172V437.784H946.372V439.224H943.204C943.252 439.592 943.412 439.976 943.876 440.392L946.595 442.968L945.476 444.152L942.788 441.576C942.612 441.416 942.452 441.24 942.308 441.08C942.18 441.24 942.02 441.416 941.828 441.576L939.156 444.152ZM959.161 439.288H961.433V436.056H963.209V444.344H961.433V440.728H959.161V439.288ZM954.153 445.048H963.209V450.296H961.433V446.456H954.153V445.048ZM952.953 443.704L951.769 442.584L954.233 439.96C954.745 439.432 954.841 439.016 954.841 438.584V438.168H952.089V436.728H959.129V438.168H956.521V438.584C956.521 439.032 956.601 439.416 957.113 439.96L959.593 442.584L958.409 443.704L955.929 441.08L955.673 440.792L955.417 441.08L952.953 443.704ZM975.151 436.024H976.911V449.832H975.151V436.024ZM974.351 445.544V446.984H965.503V445.544H974.351ZM965.967 440.392C965.967 438.264 967.503 436.76 969.679 436.76C971.903 436.76 973.439 438.264 973.439 440.392C973.439 442.504 971.903 443.992 969.679 443.992C967.503 443.992 965.967 442.504 965.967 440.392ZM967.631 440.392C967.631 441.672 968.463 442.536 969.679 442.536C970.943 442.536 971.791 441.672 971.791 440.392C971.791 439.096 970.943 438.216 969.679 438.216C968.463 438.216 967.631 439.096 967.631 440.392ZM987.196 442.504C985.052 442.504 983.548 441.176 983.548 439.272C983.548 437.352 985.052 436.008 987.196 436.008C989.372 436.008 990.908 437.352 990.908 439.272C990.908 441.176 989.372 442.504 987.196 442.504ZM986.284 449.288V444.616H982.828V443.176H991.772V444.616H988.044V449.288H986.284ZM989.756 447.032V445.672H992.748V436.04H994.508V449.816H992.748V447.032H989.756ZM987.196 441.064C988.412 441.064 989.212 440.344 989.212 439.272C989.212 438.184 988.412 437.464 987.196 437.464C986.028 437.464 985.244 438.184 985.244 439.272C985.244 440.344 986.028 441.064 987.196 441.064ZM996.37 446.552H1009.25V448.008H996.37V446.552ZM1007.19 437.272V445.352H1005.39V442.264H997.73V440.792H1005.39V438.712H997.73V437.272H1007.19ZM1010.14 446.552H1023.03V447.992H1010.14V446.552ZM1011.99 444.472L1011 443.192L1014.7 440.264C1015.51 439.672 1015.66 439.272 1015.66 438.84V437.016H1017.5V438.84C1017.5 439.24 1017.64 439.624 1018.46 440.264L1022.15 443.192L1021.16 444.472L1017.46 441.544C1017.1 441.256 1016.81 440.984 1016.58 440.712C1016.36 440.984 1016.07 441.256 1015.69 441.544L1011.99 444.472ZM1034.49 436.056H1036.17V449.816H1034.49V436.056ZM1030.11 441.016H1031.69V436.36H1033.34V449.112H1031.69V442.552H1030.11V441.016ZM1024.03 437.176H1030.6V438.584H1029.55V444.6H1030.6V446.008H1024.03V444.6H1025.08V438.584H1024.03V437.176ZM1026.67 444.6H1027.96V438.584H1026.67V444.6ZM1047.63 436.024H1049.41V449.832H1047.63V436.024ZM1041.76 445.4C1039.49 445.4 1037.87 443.736 1037.87 441.368C1037.87 438.984 1039.49 437.304 1041.76 437.304C1044.03 437.304 1045.63 438.984 1045.63 441.368C1045.63 443.736 1044.03 445.4 1041.76 445.4ZM1041.76 443.896C1043.06 443.896 1043.92 442.872 1043.92 441.368C1043.92 439.848 1043.06 438.808 1041.76 438.808C1040.47 438.808 1039.6 439.848 1039.6 441.368C1039.6 442.872 1040.47 443.896 1041.76 443.896ZM1051.43 446.552H1064.33V447.992H1051.43V446.552ZM1053.29 444.472L1052.3 443.192L1055.99 440.264C1056.81 439.672 1056.95 439.272 1056.95 438.84V437.016H1058.79V438.84C1058.79 439.24 1058.94 439.624 1059.75 440.264L1063.45 443.192L1062.46 444.472L1058.76 441.544C1058.39 441.256 1058.1 440.984 1057.88 440.712C1057.66 440.984 1057.37 441.256 1056.98 441.544L1053.29 444.472Z" fill="#875CFF"/>
<path d="M967.56 389.088H969.128V397.488H967.56V396.928H964.872V395.824H967.56V389.088ZM960.2 397.968H969.128V400.992H961.784V402H969.448V403.12H960.232V399.968H967.592V399.072H960.2V397.968ZM966.504 394.208V395.392H962.536V397.408H960.968V395.392H957.56V394.208H966.504ZM961.88 393.632C959.912 393.632 958.536 392.704 958.536 391.232C958.536 389.776 959.912 388.864 961.88 388.864C963.832 388.864 965.208 389.776 965.208 391.232C965.208 392.704 963.832 393.632 961.88 393.632ZM961.88 392.416C963 392.416 963.784 392 963.784 391.232C963.784 390.496 963 390.096 961.88 390.096C960.744 390.096 959.976 390.496 959.976 391.232C959.976 392 960.744 392.416 961.88 392.416Z" fill="#875CFF"/>
<path d="M826.224 558.16C826.224 557.68 826.299 557.296 826.448 557.008C826.608 556.709 826.822 556.496 827.088 556.368C827.366 556.24 827.67 556.176 828 556.176C828.331 556.176 828.63 556.24 828.896 556.368C829.163 556.496 829.376 556.709 829.536 557.008C829.696 557.296 829.776 557.68 829.776 558.16C829.776 558.629 829.696 559.013 829.536 559.312C829.376 559.6 829.163 559.813 828.896 559.952C828.63 560.08 828.331 560.144 828 560.144C827.67 560.144 827.366 560.08 827.088 559.952C826.822 559.813 826.608 559.6 826.448 559.312C826.299 559.013 826.224 558.629 826.224 558.16ZM844.448 564.112C842.384 564.112 840.928 562.56 840.928 560.352C840.928 558.16 842.384 556.608 844.448 556.608C845.344 556.608 846.272 557.04 846.88 558V552.768H848.032V564H846.88V562.704C846.256 563.664 845.344 564.112 844.448 564.112ZM844.496 563.072C845.76 563.072 846.88 561.856 846.88 560.352C846.88 558.88 845.76 557.648 844.496 557.648C843.072 557.648 842.08 558.768 842.08 560.352C842.08 561.952 843.072 563.072 844.496 563.072ZM852.725 567.44H851.461L852.997 563.664L850.005 556.624H851.269L853.605 562.272L855.829 556.624H857.077L854.293 563.52L852.725 567.44ZM858.919 561.728C859.367 562.656 860.279 563.04 860.855 563.04C861.799 563.04 862.503 562.624 862.503 561.936C862.503 561.264 861.607 561.008 860.743 560.72C859.735 560.368 858.311 559.952 858.311 558.544C858.311 557.328 859.447 556.56 860.887 556.56C861.735 556.56 863.159 557.04 863.495 558.352L862.439 558.688C862.215 557.792 861.367 557.6 860.887 557.6C860.071 557.6 859.463 557.952 859.463 558.544C859.463 559.216 860.279 559.44 861.207 559.744C862.279 560.112 863.655 560.528 863.655 561.936C863.655 563.232 862.439 564.08 860.855 564.08C859.735 564.08 858.599 563.472 857.975 562.304L858.919 561.728ZM875.186 551.152H876.386V564.704H875.186V551.152ZM874.386 560.544V561.552H865.49V560.544H874.386ZM866.162 555.248C866.162 553.216 867.602 551.776 869.666 551.776C871.778 551.776 873.25 553.216 873.25 555.248C873.25 557.28 871.778 558.704 869.666 558.704C867.602 558.704 866.162 557.28 866.162 555.248ZM867.266 555.248C867.266 556.672 868.258 557.68 869.666 557.68C871.138 557.68 872.162 556.688 872.162 555.264C872.162 553.824 871.138 552.8 869.666 552.8C868.258 552.8 867.266 553.808 867.266 555.248ZM882.307 561.872H888.035V558.736H884.291V552.336H892.963V558.736H889.219V561.872H894.995V562.864H882.307V561.872ZM891.795 553.296H885.459V557.776H891.795V553.296ZM895.917 558.256H908.557V559.232H895.917V558.256ZM897.837 551.776H906.717V552.752H899.021V555.68H906.717V556.688H897.837V551.776ZM897.869 560.592H899.053V563.856H906.733V564.848H897.869V560.592ZM923.438 551.168H924.638V564.688H923.438V551.168ZM920.734 552.352V553.36C920.734 557.36 917.566 560 914.334 560.912L914.014 559.792C916.894 558.976 919.566 556.816 919.566 553.36V553.344H914.414V552.352H920.734ZM933.112 565.52C931.064 565.52 929.624 564.224 929.624 562.496C929.624 560.624 931.064 559.488 933.112 559.488C935.176 559.488 936.616 560.624 936.616 562.496C936.616 564.224 935.176 565.52 933.112 565.52ZM933.112 564.464C934.488 564.464 935.464 563.6 935.464 562.496C935.464 561.392 934.488 560.544 933.112 560.544C931.736 560.544 930.776 561.392 930.776 562.496C930.776 563.6 931.736 564.464 933.112 564.464ZM926.792 558.432V557.44H939.432V558.432H926.792ZM928.664 551.68H929.848V555.104H937.832V556.08H928.664V551.68ZM946.658 556.976C944.482 556.976 942.946 555.792 942.946 554.112C942.946 552.4 944.482 551.2 946.658 551.2C948.882 551.2 950.434 552.4 950.434 554.112C950.434 555.792 948.882 556.976 946.658 556.976ZM942.338 564.912V561.904H949.794V560.656H942.29V559.728H950.978V562.784H943.538V563.968H951.426V564.912H942.338ZM940.37 558.704V557.728H953.01V558.704H940.37ZM946.658 555.952C948.194 555.952 949.282 555.2 949.282 554.112C949.282 553.008 948.194 552.224 946.658 552.224C945.154 552.224 944.098 553.008 944.098 554.112C944.098 555.2 945.154 555.952 946.658 555.952ZM957.651 559.168H970.339V560.16H964.547V565.184H963.363V560.16H957.651V559.168ZM959.763 551.968H968.195V557.392H959.763V551.968ZM967.027 552.944H960.931V556.448H967.027V552.944ZM981.949 551.168H983.101V564.688H981.949V551.168ZM976.941 555.744H979.149V551.504H980.269V563.952H979.149V556.736H976.941V555.744ZM972.109 560.736L971.181 560.16L973.437 556.512C973.997 555.6 974.141 554.88 974.141 554.128V553.424H971.645V552.432H977.741V553.424H975.245V554.128C975.245 554.88 975.389 555.6 975.949 556.512L978.205 560.16L977.277 560.736L975.021 557.088C974.893 556.88 974.781 556.688 974.701 556.496C974.605 556.688 974.493 556.88 974.365 557.088L972.109 560.736ZM994.487 551.184H995.687V555.808H997.783V556.816H995.687V560.88H994.487V551.184ZM987.335 560.432H988.519V563.856H996.023V564.848H987.335V560.432ZM992.967 552.912V553.904H991.271C991.895 554.448 992.343 555.2 992.343 556.08C992.343 557.888 990.983 559.152 989.063 559.152C987.207 559.152 985.895 557.888 985.895 556.08C985.895 555.2 986.343 554.448 986.935 553.904H985.255V552.912H988.519V551.184H989.703V552.912H992.967ZM987.015 556.08C987.015 557.328 987.863 558.192 989.063 558.192C990.327 558.192 991.223 557.328 991.223 556.08C991.223 554.816 990.327 553.92 989.063 553.92C987.863 553.92 987.015 554.816 987.015 556.08ZM1012.34 551.152H1013.54V564.704H1012.34V551.152ZM1006.12 560.16C1003.98 560.16 1002.46 558.592 1002.46 556.368C1002.46 554.128 1003.98 552.544 1006.12 552.544C1008.26 552.544 1009.77 554.128 1009.77 556.368C1009.77 558.592 1008.26 560.16 1006.12 560.16ZM1006.12 559.088C1007.59 559.088 1008.62 557.968 1008.62 556.368C1008.62 554.752 1007.59 553.616 1006.12 553.616C1004.65 553.616 1003.61 554.752 1003.61 556.368C1003.61 557.968 1004.65 559.088 1006.12 559.088ZM1015.71 557.968H1019.19V556.064C1018.63 555.552 1018.29 554.848 1018.29 554.064C1018.29 552.192 1019.83 551.04 1022 551.04C1024.24 551.04 1025.81 552.192 1025.81 554.064C1025.81 554.848 1025.47 555.536 1024.9 556.064V557.968H1028.35V558.928H1015.71V557.968ZM1019.44 554.064C1019.44 555.152 1020.5 556.032 1022 556.032C1023.55 556.032 1024.66 555.152 1024.66 554.064C1024.66 552.8 1023.55 552.064 1022 552.064C1020.5 552.064 1019.44 552.8 1019.44 554.064ZM1022.05 565.52C1019.86 565.52 1018.31 564.176 1018.31 562.48C1018.31 560.64 1019.86 559.456 1022.05 559.456C1024.26 559.456 1025.81 560.64 1025.81 562.48C1025.81 564.176 1024.26 565.52 1022.05 565.52ZM1022.05 564.464C1023.59 564.464 1024.66 563.552 1024.66 562.48C1024.66 561.424 1023.59 560.512 1022.05 560.512C1020.53 560.512 1019.46 561.424 1019.46 562.48C1019.46 563.552 1020.53 564.464 1022.05 564.464ZM1020.37 557.968H1023.71V556.768C1023.2 556.96 1022.63 557.056 1022 557.056C1021.41 557.056 1020.85 556.96 1020.37 556.784V557.968ZM1042.53 551.152H1043.75V556.784H1046V557.792H1043.75V564.688H1042.53V551.152ZM1033.91 553.344V552.352H1040.23V553.376C1040.23 557.376 1037.06 560.176 1033.83 561.072L1033.51 559.952C1036.39 559.136 1039.06 556.832 1039.06 553.376V553.344H1033.91ZM1052.92 565.52C1050.88 565.52 1049.44 564.224 1049.44 562.496C1049.44 560.624 1050.88 559.488 1052.92 559.488C1054.99 559.488 1056.43 560.624 1056.43 562.496C1056.43 564.224 1054.99 565.52 1052.92 565.52ZM1052.92 564.464C1054.3 564.464 1055.28 563.6 1055.28 562.496C1055.28 561.392 1054.3 560.544 1052.92 560.544C1051.55 560.544 1050.59 561.392 1050.59 562.496C1050.59 563.6 1051.55 564.464 1052.92 564.464ZM1046.6 558.432V557.44H1059.24V558.432H1046.6ZM1048.48 551.68H1049.66V555.104H1057.64V556.08H1048.48V551.68Z" fill="#7C7895"/>
<path d="M826.224 594.16C826.224 593.68 826.299 593.296 826.448 593.008C826.608 592.709 826.822 592.496 827.088 592.368C827.366 592.24 827.67 592.176 828 592.176C828.331 592.176 828.63 592.24 828.896 592.368C829.163 592.496 829.376 592.709 829.536 593.008C829.696 593.296 829.776 593.68 829.776 594.16C829.776 594.629 829.696 595.013 829.536 595.312C829.376 595.6 829.163 595.813 828.896 595.952C828.63 596.08 828.331 596.144 828 596.144C827.67 596.144 827.366 596.08 827.088 595.952C826.822 595.813 826.608 595.6 826.448 595.312C826.299 595.013 826.224 594.629 826.224 594.16ZM850.736 587.168H851.936V594.672H850.736V591.36H847.76C847.552 593.024 846.208 594.16 844.368 594.16C842.352 594.16 840.944 592.8 840.944 590.88C840.944 588.944 842.352 587.584 844.368 587.584C846.208 587.584 847.536 588.704 847.76 590.368H850.736V587.168ZM843.328 595.392H844.528V597.184H850.736V595.392H851.936V600.976H843.328V595.392ZM844.528 598.144V600H850.736V598.144H844.528ZM844.368 593.168C845.68 593.168 846.608 592.224 846.608 590.88C846.608 589.52 845.68 588.576 844.368 588.576C843.056 588.576 842.128 589.52 842.128 590.88C842.128 592.224 843.056 593.168 844.368 593.168ZM854.042 595.168H866.73V596.16H860.938V601.184H859.754V596.16H854.042V595.168ZM856.154 587.968H864.586V593.392H856.154V587.968ZM863.418 588.944H857.322V592.448H863.418V588.944ZM867.636 593.712H880.324V594.624H867.636V593.712ZM869.539 595.792H878.324V598.752H870.788V600.096H878.788V600.992H869.572V597.904H877.14V596.672H869.539V595.792ZM869.732 587.6H878.196V590.48H870.932V591.728H878.452V592.624H869.764V589.648H877.012V588.48H869.732V587.6ZM889.445 593.6C887.461 593.6 886.053 592.304 886.053 590.448C886.053 588.576 887.461 587.264 889.445 587.264C891.493 587.264 892.933 588.576 892.933 590.448C892.933 592.304 891.493 593.6 889.445 593.6ZM888.981 600.096V595.568H885.269V594.56H894.181V595.568H890.181V600.096H888.981ZM889.445 592.576C890.821 592.576 891.781 591.696 891.781 590.448C891.781 589.184 890.821 588.288 889.445 588.288C888.133 588.288 887.205 589.184 887.205 590.448C887.205 591.696 888.133 592.576 889.445 592.576ZM895.157 600.704V587.168H896.341V600.704H895.157ZM908.159 587.184H909.359V591.808H911.455V592.816H909.359V596.88H908.159V587.184ZM901.007 596.432H902.191V599.856H909.695V600.848H901.007V596.432ZM906.639 588.912V589.904H904.943C905.567 590.448 906.015 591.2 906.015 592.08C906.015 593.888 904.655 595.152 902.735 595.152C900.879 595.152 899.567 593.888 899.567 592.08C899.567 591.2 900.015 590.448 900.607 589.904H898.927V588.912H902.191V587.184H903.375V588.912H906.639ZM900.687 592.08C900.687 593.328 901.535 594.192 902.735 594.192C903.999 594.192 904.895 593.328 904.895 592.08C904.895 590.816 903.999 589.92 902.735 589.92C901.535 589.92 900.687 590.816 900.687 592.08ZM925.952 600.704V587.152H927.152V600.704H925.952ZM924.752 596.944V597.904H916.16V596.944H919.824V594.544H921.04V596.944H924.752ZM917.184 594.864L916.416 594.096L919.056 591.552C919.68 590.976 919.824 590.448 919.84 589.968H916.576V588.976H919.872V587.376H920.992V588.976H924.288V589.968H921.024C921.04 590.448 921.2 590.976 921.808 591.552L924.432 594.096L923.664 594.864L921.04 592.352C920.784 592.096 920.592 591.856 920.432 591.6C920.272 591.856 920.064 592.112 919.792 592.352L917.184 594.864ZM929.386 597.68H934.362V593.296H935.546V597.68H942.042V598.688H929.386V597.68ZM939.834 588.368V595.616H938.618V589.36H931.242V588.368H939.834ZM946.667 597.872H952.395V594.736H948.651V588.336H957.323V594.736H953.579V597.872H959.355V598.864H946.667V597.872ZM956.155 589.296H949.819V593.776H956.155V589.296ZM970.949 587.168H972.085V594.624H970.949V587.168ZM965.381 590.288H968.277V587.456H969.413V594.48H968.277V591.232H965.381V590.288ZM963.317 595.264H972.085V598.496H964.549V600.016H972.453V600.976H963.365V597.584H970.917V596.208H963.317V595.264ZM966.645 592.736V593.728H961.029V587.776H966.149V588.768H962.213V592.736H966.645ZM984.574 587.168H985.726V600.688H984.574V587.168ZM981.806 587.488H982.942V599.968H981.806V592.992H980.366C980.142 594.88 978.894 596.16 977.166 596.16C975.262 596.16 973.934 594.592 973.934 592.368C973.934 590.128 975.262 588.544 977.166 588.544C978.958 588.544 980.254 589.952 980.382 592H981.806V587.488ZM977.166 595.088C978.414 595.088 979.294 593.968 979.294 592.368C979.294 590.752 978.414 589.616 977.166 589.616C975.918 589.616 975.038 590.752 975.038 592.368C975.038 593.968 975.918 595.088 977.166 595.088ZM991.136 595.168H1003.82V596.16H998.032V601.184H996.848V596.16H991.136V595.168ZM993.248 587.968H1001.68V593.392H993.248V587.968ZM1000.51 588.944H994.416V592.448H1000.51V588.944ZM1015.43 587.168H1016.59V600.688H1015.43V587.168ZM1010.43 591.744H1012.63V587.504H1013.75V599.952H1012.63V592.736H1010.43V591.744ZM1005.59 596.736L1004.67 596.16L1006.92 592.512C1007.48 591.6 1007.63 590.88 1007.63 590.128V589.424H1005.13V588.432H1011.23V589.424H1008.73V590.128C1008.73 590.88 1008.87 591.6 1009.43 592.512L1011.69 596.16L1010.76 596.736L1008.51 593.088C1008.38 592.88 1008.27 592.688 1008.19 592.496C1008.09 592.688 1007.98 592.88 1007.85 593.088L1005.59 596.736ZM1027.97 587.184H1029.17V591.808H1031.27V592.816H1029.17V596.88H1027.97V587.184ZM1020.82 596.432H1022V599.856H1029.51V600.848H1020.82V596.432ZM1026.45 588.912V589.904H1024.76C1025.38 590.448 1025.83 591.2 1025.83 592.08C1025.83 593.888 1024.47 595.152 1022.55 595.152C1020.69 595.152 1019.38 593.888 1019.38 592.08C1019.38 591.2 1019.83 590.448 1020.42 589.904H1018.74V588.912H1022V587.184H1023.19V588.912H1026.45ZM1020.5 592.08C1020.5 593.328 1021.35 594.192 1022.55 594.192C1023.81 594.192 1024.71 593.328 1024.71 592.08C1024.71 590.816 1023.81 589.92 1022.55 589.92C1021.35 589.92 1020.5 590.816 1020.5 592.08ZM1043.2 590.272H1045.88V587.168H1047.06V594.768H1045.88V591.264H1043.2V590.272ZM1038.48 595.44H1039.67V597.216H1045.89V595.44H1047.06V600.976H1038.48V595.44ZM1039.67 598.176V599.984H1045.89V598.176H1039.67ZM1037.2 594.448L1036.34 593.776L1038.6 590.848C1039.11 590.192 1039.24 589.632 1039.24 589.152V588.816H1036.45V587.824H1043.03V588.816H1040.37V589.152C1040.37 589.632 1040.48 590.176 1041.01 590.848L1043.27 593.776L1042.4 594.448L1040.15 591.52C1040.02 591.344 1039.89 591.168 1039.8 591.008C1039.7 591.184 1039.59 591.344 1039.46 591.52L1037.2 594.448ZM1049.2 593.312H1058.51V588.96H1050.97V587.968H1059.73V593.312H1061.89V594.304H1049.2V593.312ZM1051.2 596.224H1052.4V599.856H1060.17V600.848H1051.2V596.224Z" fill="#7C7895"/>
<path d="M826.224 630.16C826.224 629.68 826.299 629.296 826.448 629.008C826.608 628.709 826.822 628.496 827.088 628.368C827.366 628.24 827.67 628.176 828 628.176C828.331 628.176 828.63 628.24 828.896 628.368C829.163 628.496 829.376 628.709 829.536 629.008C829.696 629.296 829.776 629.68 829.776 630.16C829.776 630.629 829.696 631.013 829.536 631.312C829.376 631.6 829.163 631.813 828.896 631.952C828.63 632.08 828.331 632.144 828 632.144C827.67 632.144 827.366 632.08 827.088 631.952C826.822 631.813 826.608 631.6 826.448 631.312C826.299 631.013 826.224 630.629 826.224 630.16ZM842.32 632.976C842.896 634.144 843.936 635.088 845.232 635.104C846.816 635.136 847.856 634.304 847.856 632.992C847.856 629.872 841.84 631.184 841.84 627.152C841.84 625.328 843.408 624.288 845.424 624.32C847.072 624.352 848.272 625.2 848.8 626.816L847.744 627.184C847.44 626.096 846.544 625.36 845.408 625.344C844.032 625.328 842.992 625.984 842.992 627.168C842.992 630.24 849.008 628.944 849.008 633.008C849.008 634.896 847.52 636.176 845.216 636.128C843.536 636.096 842.272 635.168 841.328 633.504L842.32 632.976ZM851.867 632.976C852.443 634.144 853.483 635.088 854.779 635.104C856.363 635.136 857.403 634.304 857.403 632.992C857.403 629.872 851.387 631.184 851.387 627.152C851.387 625.328 852.955 624.288 854.971 624.32C856.619 624.352 857.819 625.2 858.347 626.816L857.291 627.184C856.987 626.096 856.091 625.36 854.955 625.344C853.579 625.328 852.539 625.984 852.539 627.168C852.539 630.24 858.555 628.944 858.555 633.008C858.555 634.896 857.067 636.176 854.763 636.128C853.083 636.096 851.819 635.168 850.875 633.504L851.867 632.976ZM865.93 635.104C868.586 635.104 870.442 633.088 870.442 630.224C870.442 627.36 868.586 625.344 865.93 625.344C863.274 625.344 861.418 627.36 861.418 630.224C861.418 633.088 863.274 635.104 865.93 635.104ZM865.93 624.32C869.258 624.32 871.61 626.752 871.61 630.224C871.61 633.696 869.258 636.128 865.93 636.128C862.602 636.128 860.25 633.696 860.25 630.224C860.25 626.752 862.602 624.32 865.93 624.32ZM875.354 634.784L874.474 637.744H873.626L874.106 634.784H875.354ZM890.984 623.152H892.184V628.72H894.504V629.728H892.184V636.704H890.984V623.152ZM889.192 631.792V632.784H881.992V624.352H888.344V625.36H883.176V631.792H889.192ZM901.362 637.52C899.314 637.52 897.874 636.256 897.874 634.56C897.874 632.912 899.026 631.856 900.738 631.648V630.24H895.026V629.264H907.666V630.24H901.938V631.648C903.682 631.84 904.866 632.896 904.866 634.56C904.866 636.256 903.426 637.52 901.362 637.52ZM901.362 636.464C902.738 636.464 903.714 635.632 903.714 634.56C903.714 633.504 902.738 632.672 901.362 632.672C899.986 632.672 899.026 633.504 899.026 634.56C899.026 635.632 899.986 636.464 901.362 636.464ZM896.818 628.592L896.338 627.632L899.842 625.904C900.626 625.52 900.754 625.04 900.754 624.736V624.704H896.754V623.712H905.922V624.704H901.922V624.736C901.922 625.04 902.066 625.536 902.834 625.904L906.338 627.632L905.858 628.592L902.354 626.864C901.89 626.624 901.57 626.352 901.346 626.064C901.122 626.352 900.786 626.624 900.322 626.864L896.818 628.592ZM922.547 623.184H923.763V632.608H922.547V623.184ZM915.139 632.304H916.339V635.856H923.859V636.848H915.139V632.304ZM916.227 630.352C914.211 630.352 912.803 628.992 912.803 627.072C912.803 625.136 914.211 623.776 916.227 623.776C918.243 623.776 919.651 625.136 919.651 627.072C919.651 628.992 918.243 630.352 916.227 630.352ZM916.227 629.36C917.539 629.36 918.467 628.416 918.467 627.072C918.467 625.712 917.539 624.768 916.227 624.768C914.915 624.768 913.987 625.712 913.987 627.072C913.987 628.416 914.915 629.36 916.227 629.36ZM932.237 637.52C930.189 637.52 928.749 636.208 928.749 634.48C928.749 632.608 930.189 631.472 932.237 631.472C934.301 631.472 935.741 632.608 935.741 634.48C935.741 636.208 934.301 637.52 932.237 637.52ZM932.237 636.464C933.613 636.464 934.589 635.584 934.589 634.48C934.589 633.376 933.613 632.528 932.237 632.528C930.861 632.528 929.901 633.376 929.901 634.48C929.901 635.584 930.861 636.464 932.237 636.464ZM925.901 630.512V629.536H938.541V630.512H925.901ZM927.725 628.72L927.181 627.824L930.685 625.776C931.357 625.376 931.565 624.976 931.613 624.704H927.629V623.712H936.797V624.704H932.813C932.861 624.976 933.069 625.376 933.741 625.76L937.245 627.824L936.701 628.72L933.197 626.688C932.749 626.432 932.429 626.144 932.205 625.856C931.997 626.128 931.677 626.416 931.229 626.672L927.725 628.72ZM943.198 629.392H955.838V630.384H943.198V629.392ZM945.118 623.744H953.982V624.752H946.302V627.2H953.982V628.176H945.118V623.744ZM949.518 637.52C947.47 637.52 946.03 636.224 946.03 634.496C946.03 632.624 947.47 631.488 949.518 631.488C951.582 631.488 953.022 632.624 953.022 634.496C953.022 636.224 951.582 637.52 949.518 637.52ZM949.518 636.464C950.894 636.464 951.87 635.6 951.87 634.496C951.87 633.392 950.894 632.544 949.518 632.544C948.142 632.544 947.182 633.392 947.182 634.496C947.182 635.6 948.142 636.464 949.518 636.464ZM956.776 633.792H969.464V634.8H956.776V633.792ZM959.032 627.84C959.032 625.536 960.712 623.904 963.096 623.904C965.512 623.904 967.208 625.536 967.208 627.84C967.208 630.144 965.512 631.76 963.096 631.76C960.712 631.76 959.032 630.144 959.032 627.84ZM960.184 627.84C960.184 629.536 961.384 630.736 963.096 630.736C964.84 630.736 966.056 629.536 966.056 627.84C966.056 626.128 964.84 624.928 963.096 624.928C961.384 624.928 960.184 626.128 960.184 627.84ZM970.37 633.936H976.098V631.488H972.45V627.2H979.97V625.104H972.418V624.128H980.994V628.16H973.474V630.512H981.314V631.488H977.282V633.936H983.058V634.928H970.37V633.936ZM987.651 633.68H992.627V629.296H993.811V633.68H1000.31V634.688H987.651V633.68ZM998.099 624.368V631.616H996.883V625.36H989.507V624.368H998.099ZM1003.15 631.344H1004.35V633.232H1010.83V631.344H1012.03V636.992H1003.15V631.344ZM1004.35 634.176V636.016H1010.83V634.176H1004.35ZM1001.24 628.896H1010.56V624.64H1003.02V623.648H1011.77V628.896H1013.93V629.92H1001.24V628.896ZM1018.53 633.872H1024.25V630.976H1020.53V624H1021.71V626.368H1028.01V624H1029.2V630.976H1025.44V633.872H1031.21V634.88H1018.53V633.872ZM1021.71 627.36V630H1028.01V627.36H1021.71ZM1035.88 630.512C1033.86 630.512 1032.46 629.152 1032.46 627.232C1032.46 625.296 1033.86 623.936 1035.88 623.936C1037.9 623.936 1039.3 625.296 1039.3 627.232C1039.3 629.152 1037.9 630.512 1035.88 630.512ZM1034.46 632.272H1035.64V635.856H1043.3V636.848H1034.46V632.272ZM1035.88 629.52C1037.19 629.52 1038.12 628.576 1038.12 627.232C1038.12 625.872 1037.19 624.928 1035.88 624.928C1034.57 624.928 1033.64 625.872 1033.64 627.232C1033.64 628.576 1034.57 629.52 1035.88 629.52ZM1041.77 632.688V623.152H1042.97V627.44H1045.06V628.432H1042.97V632.688H1041.77Z" fill="#7C7895"/>
<path d="M826.224 708.16C826.224 707.68 826.299 707.296 826.448 707.008C826.608 706.709 826.822 706.496 827.088 706.368C827.366 706.24 827.67 706.176 828 706.176C828.331 706.176 828.63 706.24 828.896 706.368C829.163 706.496 829.376 706.709 829.536 707.008C829.696 707.296 829.776 707.68 829.776 708.16C829.776 708.629 829.696 709.013 829.536 709.312C829.376 709.6 829.163 709.813 828.896 709.952C828.63 710.08 828.331 710.144 828 710.144C827.67 710.144 827.366 710.08 827.088 709.952C826.822 709.813 826.608 709.6 826.448 709.312C826.299 709.013 826.224 708.629 826.224 708.16ZM850.096 710.768V701.168H851.296V705.28H853.392V706.288H851.296V710.768H850.096ZM842.768 710.368H843.968V713.856H851.936V714.848H842.768V710.368ZM840.8 707.872C843.68 707.312 845.84 706.144 845.84 703.008H841.12V702.016H846.96V702.992V703.008C846.96 706.688 844.256 708.352 841.024 708.96L840.8 707.872ZM854.042 711.84H859.802V708.896H860.986V711.84H866.73V712.848H854.042V711.84ZM855.77 709.392L855.098 708.56L858.73 705.616C859.626 704.992 859.754 704.448 859.754 703.904V702.224H861.05V703.904C861.05 704.4 861.226 704.928 862.09 705.632L865.706 708.56L865.034 709.392L861.418 706.464C860.97 706.096 860.65 705.76 860.426 705.424C860.202 705.776 859.866 706.128 859.37 706.48L855.77 709.392ZM876.227 710.784V711.744H867.684V710.784H871.316V709.408C869.732 709.152 868.66 707.92 868.66 706.256C868.66 705.392 869.092 704.64 869.684 704.08H868.004V703.088H871.428V701.312H872.484V703.088H875.892V704.08H874.196C874.788 704.64 875.22 705.392 875.22 706.256C875.22 707.936 874.132 709.168 872.516 709.408V710.784H876.227ZM871.94 708.416C873.22 708.416 874.132 707.52 874.132 706.256C874.132 704.992 873.22 704.112 871.94 704.112C870.644 704.112 869.732 704.992 869.732 706.256C869.732 707.52 870.644 708.416 871.94 708.416ZM877.188 714.688V701.168H878.388V707.136H880.612V708.16H878.388V714.688H877.188ZM882.557 701.76H889.229V702.752H883.741V705.776H889.229V706.752H886.637V708.624H890.557V709.584H881.437V708.624H885.437V706.752H882.557V701.76ZM891.453 701.184H892.653V710.992H891.453V701.184ZM883.805 710.944H885.005V713.856H892.797V714.848H883.805V710.944ZM901.215 711.44H908.799V709.952H901.183V708.976H909.999V712.368H902.399V714.064H910.319V715.024H901.215V711.44ZM899.199 707.072C902.031 706.544 904.047 705.472 904.095 702.848H899.503V701.856H905.215V702.768V702.848L905.199 703.232H908.799V701.168H909.999V708.32H908.799V706.848H905.071V705.888H908.799V704.176H905.039C904.399 706.496 902.127 707.68 899.391 708.16L899.199 707.072ZM922.808 701.168H923.96V714.688H922.808V701.168ZM917.8 705.744H920.008V701.504H921.128V713.952H920.008V706.736H917.8V705.744ZM912.968 710.736L912.04 710.16L914.296 706.512C914.856 705.6 915 704.88 915 704.128V703.424H912.504V702.432H918.6V703.424H916.104V704.128C916.104 704.88 916.248 705.6 916.808 706.512L919.064 710.16L918.136 710.736L915.88 707.088C915.752 706.88 915.64 706.688 915.56 706.496C915.464 706.688 915.352 706.88 915.224 707.088L912.968 710.736ZM930.33 707.776V701.952H936.57V707.776H930.33ZM932.65 715.12L932.138 714.256L935.162 712.432C935.85 712.032 935.946 711.68 935.946 711.296V711.024H932.362V710.032H935.994V708.768H937.098V710.032H940.73V711.024H937.146V711.296C937.146 711.664 937.242 711.968 937.93 712.448L940.938 714.256L940.426 715.12L937.385 713.312C937.017 713.056 936.746 712.816 936.554 712.576C936.362 712.832 936.09 713.088 935.674 713.328L932.65 715.12ZM931.498 706.784H935.402V702.928H931.498V706.784ZM939.642 708.576V701.168H940.842V708.576H939.642ZM956.203 701.168H957.403V706.864H959.739V707.888H957.403V714.688H956.203V701.168ZM947.339 711.248L946.443 710.608L949.051 706.96C949.691 706.064 949.851 705.344 949.851 704.608V702.112H950.971V704.608C950.971 705.344 951.131 706.064 951.771 706.96L954.379 710.608L953.483 711.248L950.875 707.6C950.683 707.344 950.539 707.088 950.411 706.848C950.283 707.088 950.139 707.344 949.947 707.6L947.339 711.248ZM960.261 707.968H963.733V706.064C963.173 705.552 962.837 704.848 962.837 704.064C962.837 702.192 964.373 701.04 966.549 701.04C968.789 701.04 970.357 702.192 970.357 704.064C970.357 704.848 970.021 705.536 969.445 706.064V707.968H972.901V708.928H960.261V707.968ZM963.989 704.064C963.989 705.152 965.045 706.032 966.549 706.032C968.101 706.032 969.205 705.152 969.205 704.064C969.205 702.8 968.101 702.064 966.549 702.064C965.045 702.064 963.989 702.8 963.989 704.064ZM966.597 715.52C964.405 715.52 962.853 714.176 962.853 712.48C962.853 710.64 964.405 709.456 966.597 709.456C968.805 709.456 970.357 710.64 970.357 712.48C970.357 714.176 968.805 715.52 966.597 715.52ZM966.597 714.464C968.133 714.464 969.205 713.552 969.205 712.48C969.205 711.424 968.133 710.512 966.597 710.512C965.077 710.512 964.005 711.424 964.005 712.48C964.005 713.552 965.077 714.464 966.597 714.464ZM964.917 707.968H968.26V706.768C967.749 706.96 967.173 707.056 966.549 707.056C965.957 707.056 965.397 706.96 964.917 706.784V707.968ZM983.39 701.168H984.59V706.864H986.91V707.872H984.59V714.688H983.39V701.168ZM974.542 710.928L973.646 710.288L976.206 706.656C976.846 705.744 976.99 705.168 976.99 704.448V703.424H974.094V702.432H980.99V703.424H978.11V704.448C978.11 705.184 978.238 705.744 978.878 706.656L981.438 710.288L980.542 710.928L977.982 707.264C977.806 707.008 977.662 706.784 977.55 706.56C977.422 706.784 977.278 707.008 977.102 707.264L974.542 710.928ZM994.064 705.36H995.248V708.32H999.472V709.28H991.184V708.32H994.064V705.36ZM1000.8 701.168H1002V705.76H1004.05V706.752H1002V711.072H1000.8V701.168ZM993.536 710.752H994.72V713.856H1002.61V714.848H993.536V710.752ZM998.767 702.016V706.976H997.584V703.008H991.92V702.016H998.767ZM1005.8 705.824H1011.05V703.312H1005.75V702.336H1012.23V706.816H1006.99V709.888H1013.32V710.88H1005.8V705.824ZM1014.99 714.704V701.152H1016.19V714.704H1014.99Z" fill="#7C7895"/>
<path d="M826.224 669.16C826.224 668.68 826.299 668.296 826.448 668.008C826.608 667.709 826.822 667.496 827.088 667.368C827.366 667.24 827.67 667.176 828 667.176C828.331 667.176 828.63 667.24 828.896 667.368C829.163 667.496 829.376 667.709 829.536 668.008C829.696 668.296 829.776 668.68 829.776 669.16C829.776 669.629 829.696 670.013 829.536 670.312C829.376 670.6 829.163 670.813 828.896 670.952C828.63 671.08 828.331 671.144 828 671.144C827.67 671.144 827.366 671.08 827.088 670.952C826.822 670.813 826.608 670.6 826.448 670.312C826.299 670.013 826.224 669.629 826.224 669.16ZM846.784 676.68C844.736 676.68 843.296 675.384 843.296 673.656C843.296 671.784 844.736 670.664 846.784 670.664C848.848 670.664 850.288 671.784 850.288 673.656C850.288 675.384 848.848 676.68 846.784 676.68ZM846.784 675.624C848.16 675.624 849.136 674.76 849.136 673.656C849.136 672.552 848.16 671.72 846.784 671.72C845.408 671.72 844.448 672.552 844.448 673.656C844.448 674.76 845.408 675.624 846.784 675.624ZM840.464 669.384V668.408H845.712V665.688H846.896V668.408H853.088V669.384H840.464ZM842.224 663.8V662.808H850.976V666.776H849.76V663.8H842.224ZM854.042 670.632H866.73V671.64H863.37V676.168H862.154V671.64H858.57V676.168H857.338V671.64H854.042V670.632ZM856.666 665.96C856.666 663.928 858.186 662.488 860.33 662.488C862.538 662.488 864.09 663.928 864.09 665.96C864.09 667.992 862.538 669.416 860.33 669.416C858.186 669.416 856.666 667.992 856.666 665.96ZM857.818 665.96C857.818 667.384 858.858 668.392 860.33 668.392C861.866 668.392 862.938 667.4 862.938 665.976C862.938 664.536 861.866 663.512 860.33 663.512C858.858 663.512 857.818 664.52 857.818 665.96ZM871.323 672.856H884.011V673.864H871.323V672.856ZM873.083 663.304H882.235V664.28H880.523V669.048H882.219V670.024H873.115V669.048H874.811V664.28H873.083V663.304ZM876.027 669.048H879.339V664.28H876.027V669.048ZM884.917 672.936H890.645V670.488H886.997V666.2H894.517V664.104H886.965V663.128H895.541V667.16H888.021V669.512H895.861V670.488H891.829V672.936H897.605V673.928H884.917V672.936ZM904.431 665.624H906.431V662.472H907.567V670.28H906.431V666.616H904.431V665.624ZM909.135 662.168H910.287V670.408H909.135V662.168ZM901.567 671.048H910.287V676.168H909.087V672.024H901.567V671.048ZM899.631 669.896L898.767 669.256L900.943 666.28C901.407 665.624 901.583 665.032 901.583 664.568V664.04H899.007V663.048H905.167V664.04H902.703V664.568C902.703 665.048 902.847 665.608 903.327 666.28L905.519 669.256L904.655 669.896L902.463 666.92C902.335 666.744 902.223 666.584 902.127 666.424C902.047 666.584 901.935 666.744 901.807 666.92L899.631 669.896ZM914.056 663.32H922.84V664.312H915.256V666.184H922.84V667.176H915.256V669.048H922.84V670.04H914.056V663.32ZM912.104 673.848V672.856H924.792V673.848H912.104ZM927.682 673.784L926.802 676.744H925.954L926.434 673.784H927.682ZM934.385 668.936V662.952H940.785V668.936H934.385ZM936.465 676.104L935.921 675.24L938.945 673.256C939.601 672.84 939.777 672.344 939.777 672.072V671.912H936.129V670.952H944.465V671.912H940.849V672.072C940.849 672.36 941.009 672.84 941.665 673.256L944.689 675.24L944.113 676.104L941.089 674.12C940.753 673.896 940.497 673.64 940.305 673.4C940.113 673.64 939.857 673.896 939.521 674.12L936.465 676.104ZM935.553 667.944H939.617V663.928H935.553V667.944ZM943.425 670.168V662.168H944.625V665.56H946.705V666.568H944.625V670.168H943.425ZM949.322 675.976V671.496H953.082V669.912H947.354V668.936H959.994V669.912H954.282V671.496H958.042V675.976H949.322ZM950.506 675H956.858V672.456H950.506V675ZM949.258 668.28L948.746 667.384L952.17 665.432C952.874 665.032 953.05 664.68 953.098 664.376H949.178V663.384H953.13V662.136H954.282V663.384H958.234V664.376H954.298C954.33 664.68 954.506 665.016 955.226 665.432L958.65 667.384L958.138 668.28L954.714 666.328C954.234 666.04 953.914 665.752 953.706 665.48C953.482 665.768 953.162 666.056 952.682 666.328L949.258 668.28ZM965.172 669.832C963.316 669.832 962.004 668.568 962.004 666.76C962.004 665.88 962.452 665.128 963.044 664.584H961.364V663.592H964.628V662.184H965.812V663.592H969.076V664.584H967.38C968.004 665.128 968.452 665.88 968.452 666.76C968.452 668.568 967.092 669.832 965.172 669.832ZM968.292 676.36C966.34 676.36 964.98 675.128 964.98 673.384C964.98 671.64 966.34 670.408 968.292 670.408C970.26 670.408 971.636 671.64 971.636 673.384C971.636 675.128 970.26 676.36 968.292 676.36ZM968.292 675.336C969.572 675.336 970.484 674.536 970.484 673.384C970.484 672.232 969.572 671.432 968.292 671.432C967.028 671.432 966.132 672.232 966.132 673.384C966.132 674.536 967.028 675.336 968.292 675.336ZM965.172 668.872C966.436 668.872 967.332 668.008 967.332 666.76C967.332 665.496 966.436 664.6 965.172 664.6C963.972 664.6 963.124 665.496 963.124 666.76C963.124 668.008 963.972 668.872 965.172 668.872ZM968.948 668.776V667.8H971.22V666.216H968.964V665.24H971.22V662.168H972.42V670.904H971.22V668.776H968.948ZM984.725 663.448L989.125 675H987.893L986.629 671.672H981.445L980.149 675H978.917L983.381 663.448H984.725ZM981.829 670.648H986.229L984.053 664.92L981.829 670.648ZM991.533 663.448H992.685V675H991.533V663.448ZM1008.95 662.168H1010.1V675.688H1008.95V662.168ZM1003.94 666.744H1006.15V662.504H1007.27V674.952H1006.15V667.736H1003.94V666.744ZM999.109 671.736L998.181 671.16L1000.44 667.512C1001 666.6 1001.14 665.88 1001.14 665.128V664.424H998.645V663.432H1004.74V664.424H1002.24V665.128C1002.24 665.88 1002.39 666.6 1002.95 667.512L1005.2 671.16L1004.28 671.736L1002.02 668.088C1001.89 667.88 1001.78 667.688 1001.7 667.496C1001.6 667.688 1001.49 667.88 1001.36 668.088L999.109 671.736ZM1018.17 676.68C1016.13 676.68 1014.69 675.384 1014.69 673.656C1014.69 671.784 1016.13 670.664 1018.17 670.664C1020.24 670.664 1021.68 671.784 1021.68 673.656C1021.68 675.384 1020.24 676.68 1018.17 676.68ZM1018.17 675.624C1019.55 675.624 1020.53 674.76 1020.53 673.656C1020.53 672.552 1019.55 671.72 1018.17 671.72C1016.8 671.72 1015.84 672.552 1015.84 673.656C1015.84 674.76 1016.8 675.624 1018.17 675.624ZM1011.85 669.384V668.408H1017.1V665.688H1018.29V668.408H1024.48V669.384H1011.85ZM1013.61 663.8V662.808H1022.37V666.776H1021.15V663.8H1013.61Z" fill="#7C7895"/>
<rect x="816" y="478" width="288" height="46" rx="10" fill="#A8A8BF"/>
<path d="M941.621 494.056H943.381V504.216H941.621V501.752H939.637V500.36H941.621V498.712H939.637V497.32H941.621V494.056ZM934.421 503.496H936.181V506.6H943.493V508.008H934.421V503.496ZM939.653 495.672V497.112H938.453C938.901 497.656 939.189 498.312 939.189 499.064C939.189 501.016 937.749 502.376 935.701 502.376C933.701 502.376 932.277 501.016 932.261 499.064C932.261 498.312 932.565 497.656 932.997 497.112H931.781V495.672H934.869V494.12H936.581V495.672H939.653ZM933.941 499.064C933.941 500.216 934.645 500.984 935.701 500.984C936.773 500.984 937.525 500.216 937.525 499.064C937.525 497.896 936.773 497.112 935.701 497.112C934.645 497.112 933.941 497.896 933.941 499.064ZM955.899 494.04H957.563V507.8H955.899V501.048H954.459V507.128H952.811V494.312H954.459V499.624H955.899V494.04ZM946.411 504.168L945.003 503.336L947.147 499.656C947.659 498.792 947.771 498.248 947.771 497.544V496.712H945.531V495.272H951.723V496.712H949.483V497.544C949.483 498.248 949.595 498.792 950.107 499.656L952.251 503.336L950.843 504.168L948.699 500.488L948.635 500.36L948.555 500.488L946.411 504.168ZM972.872 494.024H974.632V507.832H972.872V499.912H970.168V504.264H963.368V495.016H965.128V498.504H968.424V495.016H970.168V498.504H972.872V494.024ZM965.128 499.88V502.84H968.424V499.88H965.128ZM986.605 503.848V498.84H984.221V497.416H986.605V494.056H988.365V503.848H986.605ZM979.309 503.304H981.069V506.6H988.477V508.008H979.309V503.304ZM978.093 501.992L976.941 500.84L979.437 498.312C979.949 497.8 980.029 497.368 980.029 496.888V496.328H977.245V494.888H984.365V496.328H981.709V496.888C981.709 497.384 981.773 497.784 982.301 498.312L984.797 500.84L983.645 501.992L981.149 499.464L980.877 499.144L980.589 499.464L978.093 501.992Z" fill="#EBEBF8"/>
<rect x="864" y="174" width="192" height="46" rx="10" fill="#EBEBF8"/>
<path d="M893.114 203.8V196.792H891.61V203.16H889.946V190.408H891.61V195.368H893.114V190.04H894.794V203.8H893.114ZM882.858 198.68C885.114 197.96 887.114 196.344 887.13 192.68H883.354V191.256H888.794V192.68C888.762 197.112 886.074 199.4 883.354 200.28L882.858 198.68ZM906.432 190.056H908.192V199.752H906.432V190.056ZM899.232 199.272H900.992V202.6H908.32V204.008H899.232V199.272ZM900.48 197.736C898.304 197.736 896.784 196.28 896.784 194.216C896.784 192.136 898.304 190.68 900.48 190.68C902.64 190.68 904.16 192.136 904.16 194.216C904.16 196.28 902.64 197.736 900.48 197.736ZM900.48 196.296C901.648 196.296 902.432 195.464 902.432 194.216C902.432 192.952 901.648 192.12 900.48 192.12C899.296 192.12 898.512 192.952 898.512 194.216C898.512 195.464 899.296 196.296 900.48 196.296Z" fill="#875CFF"/>
<rect x="928" y="174" width="64" height="46" rx="10" fill="#875CFF"/>
<path d="M1020.68 190.04H1022.44V203.8H1020.68V190.04ZM1018.33 191.256V192.616V192.696C1018.28 197.112 1014.97 199.384 1011.72 200.232L1011.32 198.616C1014.15 197.88 1016.62 196.216 1016.65 192.696H1011.72V191.256H1018.33ZM1034.5 190.056H1036.26V197.688H1034.5V194.68H1032.02C1031.71 196.36 1030.32 197.496 1028.42 197.496C1026.24 197.496 1024.72 196.04 1024.72 193.976C1024.72 191.896 1026.24 190.44 1028.42 190.44C1030.32 190.44 1031.71 191.56 1032.02 193.256H1034.5V190.056ZM1027.33 198.36H1029.07V199.864H1034.51V198.36H1036.26V204.12H1027.33V198.36ZM1029.07 201.224V202.712H1034.51V201.224H1029.07ZM1028.42 196.056C1029.58 196.056 1030.37 195.208 1030.37 193.976C1030.37 192.712 1029.58 191.864 1028.42 191.864C1027.23 191.864 1026.43 192.712 1026.43 193.976C1026.43 195.208 1027.23 196.056 1028.42 196.056Z" fill="#875CFF"/>
<path d="M946.666 200.696H949.482V196.728H951.21V200.696H953.002V196.728H954.73V200.696H959.546V202.136H946.666V200.696ZM957.706 191.304V198.872H955.93V192.744H948.554V191.304H957.706ZM960.432 196.68H973.296V198.088H970.096V199.496H971.472V204.296H969.728V200.872H962.272V199.496H963.6V198.088H960.432V196.68ZM962.976 192.984C962.976 191.08 964.56 189.832 966.832 189.832C969.152 189.832 970.768 191.08 970.768 192.984C970.768 194.776 969.152 196.104 966.832 196.104C964.56 196.104 962.976 194.776 962.976 192.984ZM964.656 192.984C964.656 193.96 965.536 194.68 966.848 194.68C968.176 194.68 969.088 193.96 969.088 192.984C969.088 191.912 968.176 191.272 966.848 191.272C965.536 191.272 964.656 191.912 964.656 192.984ZM965.36 199.496H968.368V198.088H965.36V199.496Z" fill="#FFFFF3"/>
<rect x="816" y="478" width="288" height="46" rx="10" fill="#EBEBF8"/>
<path d="M921.005 494.024H922.765V507.832H921.005V499.912H918.301V504.264H911.501V495.016H913.261V498.504H916.557V495.016H918.301V498.504H921.005V494.024ZM913.261 499.88V502.84H916.557V499.88H913.261ZM934.738 503.848V498.84H932.354V497.416H934.738V494.056H936.498V503.848H934.738ZM927.442 503.304H929.202V506.6H936.61V508.008H927.442V503.304ZM926.226 501.992L925.074 500.84L927.57 498.312C928.082 497.8 928.162 497.368 928.162 496.888V496.328H925.378V494.888H932.498V496.328H929.842V496.888C929.842 497.384 929.906 497.784 930.434 498.312L932.93 500.84L931.778 501.992L929.282 499.464L929.01 499.144L928.722 499.464L926.226 501.992ZM952.191 494.056H953.951V501.688H952.191V498.68H949.711C949.407 500.36 948.015 501.496 946.111 501.496C943.935 501.496 942.415 500.04 942.415 497.976C942.415 495.896 943.935 494.44 946.111 494.44C948.015 494.44 949.407 495.56 949.711 497.256H952.191V494.056ZM945.023 502.36H946.767V503.864H952.207V502.36H953.951V508.12H945.023V502.36ZM946.767 505.224V506.712H952.207V505.224H946.767ZM946.111 500.056C947.279 500.056 948.063 499.208 948.063 497.976C948.063 496.712 947.279 495.864 946.111 495.864C944.927 495.864 944.127 496.712 944.127 497.976C944.127 499.208 944.927 500.056 946.111 500.056ZM955.893 504.424H968.773V505.864H955.893V504.424ZM966.613 495.272V502.776H964.837V496.712H957.525V495.272H966.613ZM980.139 494.04H981.819V507.8H980.139V494.04ZM975.787 499.144H977.259V494.344H978.891V507.096H977.259V500.584H975.787V499.144ZM970.203 495.208H975.467V500.584H971.915V503.032H975.803V504.472H970.219V499.176H973.787V496.616H970.203V495.208ZM993.392 494.024H995.168V507.832H993.392V494.024ZM987.52 503.4C985.248 503.4 983.632 501.736 983.632 499.368C983.632 496.984 985.248 495.304 987.52 495.304C989.792 495.304 991.392 496.984 991.392 499.368C991.392 501.736 989.792 503.4 987.52 503.4ZM987.52 501.896C988.816 501.896 989.68 500.872 989.68 499.368C989.68 497.848 988.816 496.808 987.52 496.808C986.224 496.808 985.36 497.848 985.36 499.368C985.36 500.872 986.224 501.896 987.52 501.896ZM998.998 495.176H1008.39V496.616H1000.74V500.616H1008.39V502.024H998.998V495.176ZM997.19 506.008V504.568H1010.09V506.008H997.19Z" fill="#875CFF"/>
<rect x="864" y="174" width="192" height="46" rx="10" fill="#EBEBF8"/>
<path d="M893.114 203.8V196.792H891.61V203.16H889.946V190.408H891.61V195.368H893.114V190.04H894.794V203.8H893.114ZM882.858 198.68C885.114 197.96 887.114 196.344 887.13 192.68H883.354V191.256H888.794V192.68C888.762 197.112 886.074 199.4 883.354 200.28L882.858 198.68ZM906.432 190.056H908.192V199.752H906.432V190.056ZM899.232 199.272H900.992V202.6H908.32V204.008H899.232V199.272ZM900.48 197.736C898.304 197.736 896.784 196.28 896.784 194.216C896.784 192.136 898.304 190.68 900.48 190.68C902.64 190.68 904.16 192.136 904.16 194.216C904.16 196.28 902.64 197.736 900.48 197.736ZM900.48 196.296C901.648 196.296 902.432 195.464 902.432 194.216C902.432 192.952 901.648 192.12 900.48 192.12C899.296 192.12 898.512 192.952 898.512 194.216C898.512 195.464 899.296 196.296 900.48 196.296Z" fill="#875CFF"/>
<rect x="992" y="174" width="64" height="46" rx="10" fill="#875CFF"/>
<path d="M1020.68 190.04H1022.44V203.8H1020.68V190.04ZM1018.33 191.256V192.616V192.696C1018.28 197.112 1014.97 199.384 1011.72 200.232L1011.32 198.616C1014.15 197.88 1016.62 196.216 1016.65 192.696H1011.72V191.256H1018.33ZM1034.5 190.056H1036.26V197.688H1034.5V194.68H1032.02C1031.71 196.36 1030.32 197.496 1028.42 197.496C1026.24 197.496 1024.72 196.04 1024.72 193.976C1024.72 191.896 1026.24 190.44 1028.42 190.44C1030.32 190.44 1031.71 191.56 1032.02 193.256H1034.5V190.056ZM1027.33 198.36H1029.07V199.864H1034.51V198.36H1036.26V204.12H1027.33V198.36ZM1029.07 201.224V202.712H1034.51V201.224H1029.07ZM1028.42 196.056C1029.58 196.056 1030.37 195.208 1030.37 193.976C1030.37 192.712 1029.58 191.864 1028.42 191.864C1027.23 191.864 1026.43 192.712 1026.43 193.976C1026.43 195.208 1027.23 196.056 1028.42 196.056Z" fill="#FFFFF3"/>
<path d="M946.666 200.696H949.482V196.728H951.21V200.696H953.002V196.728H954.73V200.696H959.546V202.136H946.666V200.696ZM957.706 191.304V198.872H955.93V192.744H948.554V191.304H957.706ZM960.432 196.68H973.296V198.088H970.096V199.496H971.472V204.296H969.728V200.872H962.272V199.496H963.6V198.088H960.432V196.68ZM962.976 192.984C962.976 191.08 964.56 189.832 966.832 189.832C969.152 189.832 970.768 191.08 970.768 192.984C970.768 194.776 969.152 196.104 966.832 196.104C964.56 196.104 962.976 194.776 962.976 192.984ZM964.656 192.984C964.656 193.96 965.536 194.68 966.848 194.68C968.176 194.68 969.088 193.96 969.088 192.984C969.088 191.912 968.176 191.272 966.848 191.272C965.536 191.272 964.656 191.912 964.656 192.984ZM965.36 199.496H968.368V198.088H965.36V199.496Z" fill="#875CFF"/>
<path d="M859.152 971.44H866.736V969.952H859.12V968.976H867.936V972.368H860.336V974.064H868.256V975.024H859.152V971.44ZM857.136 967.072C859.968 966.544 861.984 965.472 862.032 962.848H857.44V961.856H863.152V962.768V962.848L863.136 963.232H866.736V961.168H867.936V968.32H866.736V966.848H863.008V965.888H866.736V964.176H862.976C862.336 966.496 860.064 967.68 857.328 968.16L857.136 967.072ZM880.746 961.168H881.898V974.688H880.746V961.168ZM875.738 965.744H877.946V961.504H879.066V973.952H877.946V966.736H875.738V965.744ZM870.906 970.736L869.978 970.16L872.234 966.512C872.794 965.6 872.938 964.88 872.938 964.128V963.424H870.442V962.432H876.538V963.424H874.042V964.128C874.042 964.88 874.186 965.6 874.746 966.512L877.002 970.16L876.074 970.736L873.818 967.088C873.69 966.88 873.578 966.688 873.498 966.496C873.402 966.688 873.29 966.88 873.162 967.088L870.906 970.736ZM889.275 962.16H898.219V963.152H890.475V967.408H898.219V968.4H894.251V971.68H899.979V972.688H887.323V971.68H893.067V968.4H889.275V962.16ZM902.885 970.4H906.645V968.768H900.917V967.776H913.557V968.768H907.829V970.4H911.605V974.976H902.885V970.4ZM910.421 971.36H904.069V974H910.421V971.36ZM903.493 964.064C903.493 962.192 905.029 961.04 907.205 961.04C909.445 961.04 911.013 962.192 911.013 964.064C911.013 965.76 909.445 967.056 907.205 967.056C905.029 967.056 903.493 965.76 903.493 964.064ZM904.645 964.064C904.645 965.312 905.701 966.032 907.205 966.032C908.757 966.032 909.861 965.312 909.861 964.064C909.861 962.8 908.757 962.064 907.205 962.064C905.701 962.064 904.645 962.8 904.645 964.064ZM924.175 961.168H925.375V964.224H927.455V965.216H925.375V968.304H924.175V961.168ZM915.295 961.808H921.375V967.552H915.295V961.808ZM920.207 962.768H916.463V966.592H920.207V962.768ZM916.527 968.976H925.375V972.368H917.743V974H925.727V974.976H916.559V971.456H924.031V969.936H916.527V968.976ZM931.792 971.872H937.52V968.976H933.792V962H934.976V964.368H941.28V962H942.464V968.976H938.704V971.872H944.48V972.88H931.792V971.872ZM934.976 965.36V968H941.28V965.36H934.976ZM955.642 961.168H956.842V974.688H955.642V961.168ZM952.938 962.352V963.36C952.938 967.36 949.77 970 946.538 970.912L946.218 969.792C949.098 968.976 951.77 966.816 951.77 963.36V963.344H946.618V962.352H952.938Z" fill="#7C7895"/>
<rect x="816" y="956" width="26" height="26" rx="5.65217" fill="#EBEBF8"/>
<path d="M826.064 966.681C826.049 966.596 825.966 966.287 825.875 965.948C825.779 965.589 825.809 965.229 825.825 964.897C825.84 964.581 826.014 964.061 826.142 963.791C826.216 963.634 826.584 963.066 826.688 962.947C826.792 962.828 827.156 962.51 827.724 962.3C828.065 962.174 828.911 962.152 829.26 962.239C829.939 962.409 830.312 962.59 830.776 962.905C831.122 963.141 831.356 963.489 831.564 963.967C831.703 964.285 831.728 964.642 831.738 965.313C831.744 965.758 831.557 966.576 831.259 967.113C831.062 967.467 830.686 967.818 830.345 968.168C830.107 968.413 829.82 968.68 829.552 968.933C829.311 969.159 829.039 969.442 828.701 969.889C828.497 970.159 828.416 970.463 828.226 971.141C828.226 971.544 828.265 971.797 828.303 971.934C828.325 972.001 828.352 972.064 828.391 972.152" stroke="#875CFF" stroke-width="1.69565" stroke-linecap="round"/>
<circle cx="828.671" cy="975.362" r="1.19235" transform="rotate(15 828.671 975.362)" fill="#875CFF"/>
<path d="M30.0249 147.582C30.025 147.591 30.0251 147.6 30.0637 150.931C30.1022 154.263 30.1793 160.917 30.2286 164.644C30.2858 168.969 30.3406 169.716 30.3786 170.083C30.4375 170.65 30.414 171.185 30.4926 171.479C30.6289 171.988 32.3755 171.544 33.2514 171.489C33.5063 171.473 33.8934 171.439 34.9639 171.404C37.1312 171.334 38.9723 171.337 39.8315 171.349C40.6239 171.361 41.1518 171.391 42.8932 171.407C44.494 171.421 47.551 171.354 49.1885 171.335C49.9694 171.326 50.5928 171.361 51.1788 171.281C52.0141 171.168 51.7293 169.699 51.667 168.217C51.6337 167.423 51.646 166.404 51.6338 165.349C51.6259 164.664 51.6632 163.941 51.5988 162.325C51.5514 161.138 51.4568 160.622 51.3973 160.013C51.3627 159.659 51.3088 159.353 51.2718 158.259C51.1767 155.453 51.1143 153.461 50.97 153.257C50.6803 152.848 50.3139 152.471 49.9504 152.036C49.5102 151.51 49.1267 151.128 48.7797 150.734C48.3855 150.285 48.0348 149.895 47.6751 149.476C47.3209 149.064 46.8087 148.607 46.3693 148.162C45.9391 147.726 45.6402 147.386 45.4601 147.228C45.2757 147.067 43.6569 147.078 41.3 147.1C39.7607 147.115 39.3176 147.053 37.834 147.05C36.5485 147.047 34.1817 147.071 32.9023 147.092C31.2625 147.182 30.8343 147.238 30.4768 147.261C30.3116 147.272 30.179 147.283 30.0424 147.295" stroke="#875CFF" stroke-width="2.5" stroke-linecap="round"/>
<path d="M45.3984 147.317C45.4047 147.86 45.4478 149.102 45.543 149.696C45.6261 150.215 45.6947 150.952 45.7562 152.162C45.7891 152.81 45.8385 153.31 45.9044 153.529C47.4634 153.416 50.2735 153.374 50.5593 153.396C50.6976 153.41 50.822 153.429 51.0902 153.477" stroke="#875CFF" stroke-width="2.5" stroke-linecap="round"/>
<path d="M37.7636 165.066C37.937 164.872 38.5309 163.906 38.8767 163.248C39.1436 162.74 39.4801 162.3 39.7633 161.863C40.0467 161.425 40.2667 160.999 40.5476 160.651C40.8832 160.235 41.7252 161.049 42.2377 161.217C42.7462 161.384 43.2296 161.617 43.7189 161.785C44.1973 161.945 44.5416 162.064 44.7771 162.134C44.8942 162.172 45.0064 162.216 45.2195 162.349" stroke="#875CFF" stroke-width="2.5" stroke-linecap="round"/>
<path d="M41.0103 160.637C41.0122 160.801 41.0872 161.312 41.2241 161.835C41.36 162.355 41.4467 162.836 41.533 163.314C41.6233 163.813 41.704 164.855 41.7838 165.679C41.8394 166.252 41.8706 166.832 41.9541 171.022C41.9869 172.664 41.8964 173.379 41.821 173.861C41.7418 174.368 41.6278 174.891 41.5225 175.414C41.416 175.941 41.3258 176.431 41.2409 176.953C41.1591 177.457 41.0201 177.954 40.9312 178.431C40.9118 178.551 40.8927 178.67 40.8685 178.789C40.8443 178.908 40.8155 179.022 40.6981 179.428" stroke="#875CFF" stroke-width="2.5" stroke-linecap="round"/>
<path d="M31.4831 327.479C31.3226 327.526 30.8379 327.751 30.4134 328.119C29.9489 328.522 29.681 328.997 29.4921 329.517C29.1408 330.485 29.3881 332.112 29.654 332.568C29.9687 333.108 30.5508 333.527 31.0125 333.858C31.2302 334.014 32.2915 333.999 33.7483 334.023C35.9309 334.059 38.939 334.123 39.8079 334.209C40.5691 334.285 42.5652 334.27 45.0144 334.283C46.6736 334.292 47.825 334.215 48.6774 334.147C49.2441 334.102 49.8072 333.95 50.3173 333.775C50.819 333.602 51.3571 333.432 52.061 333.1C52.6078 332.842 52.9083 332.208 53.1992 331.706C53.607 331.003 53.2937 329.881 53.0277 329.331C52.7775 328.814 52.312 328.453 51.8328 328.135C51.2691 327.761 50.8407 327.728 50.6318 327.635C50.0732 327.385 50.2212 326.399 50.2212 325.615C50.2212 324.819 50.13 324.168 50.0883 323.357C50.057 322.748 49.9102 322.061 49.8227 321.365C49.754 320.819 49.6469 320.196 49.557 319.505C49.4187 318.444 49.2813 318.15 49.0002 317.472C48.7589 316.891 48.7617 316.809 48.4944 316.318C48.2364 315.843 47.8303 315.255 47.299 314.724C46.9267 314.351 46.6348 314.039 46.1035 313.661C45.6255 313.321 45.086 313.038 43.9783 312.466C43.335 312.133 42.3658 311.908 41.7985 311.908C41.0561 311.909 39.595 311.908 38.2667 312.2C37.3017 312.412 36.6545 312.737 36.0086 313.13C35.3335 313.54 34.7521 313.923 34.2822 314.442C33.8042 314.97 33.5409 315.508 33.3114 315.989C32.9332 316.782 32.5257 318.045 32.346 318.601C32.1561 319.188 32.1069 319.838 32.0486 320.43C31.9754 321.174 31.9376 322.427 31.8457 323.398C31.7845 324.046 31.7302 324.627 31.6728 325.527C31.6537 325.749 31.6281 325.909 31.6149 326.195C31.6017 326.481 31.6017 326.888 31.6017 327.308" stroke="#875CFF" stroke-width="2.5" stroke-linecap="round"/>
<path d="M37.4355 334.119C37.4355 334.649 37.4815 335.925 37.7096 336.418C37.9494 336.935 38.1121 337.246 38.5325 337.703C38.7707 337.962 39.3634 338.24 39.6061 338.346C40.4518 338.713 41.9081 338.415 42.3845 338.101C42.8859 337.772 43.1815 337.437 43.559 336.828C43.8505 336.358 44.0774 335.872 44.2076 335.312C44.231 335.172 44.2539 335.043 44.2658 334.879C44.2776 334.714 44.2776 334.517 44.2776 334.314" stroke="#875CFF" stroke-width="2.5" stroke-linecap="round"/>
<path d="M38.3984 311.668C38.3984 311.176 38.5249 309.513 38.7942 309.05C39.068 308.579 39.4138 308.198 39.9339 307.89C40.454 307.582 40.9222 307.551 41.8119 307.752C42.5267 307.913 42.8739 308.43 43.1614 308.901C43.4573 309.387 43.4817 309.966 43.5558 311.003C43.572 311.238 43.5931 311.366 43.6095 311.504C43.6258 311.643 43.6367 311.789 43.6479 311.94" stroke="#875CFF" stroke-width="2.5" stroke-linecap="round"/>
<path d="M46.2631 933.363C46.0543 933.25 45.4464 932.773 44.7983 932.403C44.1376 932.026 43.4035 931.747 41.1778 931.627C38.2822 931.472 37.5399 932.02 36.8628 932.447C36.1665 932.887 35.7786 933.593 35.3888 934.277C34.9897 934.978 34.8575 935.777 34.8075 937.428C34.7791 938.362 35.4815 938.963 35.9627 939.54C36.4735 940.153 37.1949 940.476 37.8699 940.836C38.545 941.197 39.358 941.332 40.1201 941.515C40.8741 941.695 41.6028 941.863 42.3775 942.105C43.1389 942.341 43.8602 942.707 44.5382 943.086C45.3639 943.546 46.0823 944.526 46.4824 945.247C46.8613 945.931 46.906 946.764 46.9002 949.059C46.8975 950.168 46.2541 950.908 45.482 951.661C44.853 952.275 43.7084 952.712 42.7977 953.033C42.0471 953.298 40.1082 953.283 38.789 953.083C37.9794 952.96 37.3573 952.453 36.6493 951.997C36.3123 951.792 35.9021 951.423 35.6042 951.167C35.4618 951.035 35.3372 950.898 35.1657 950.757" stroke="#875CFF" stroke-width="2.5" stroke-linecap="round"/>
<path d="M40.7104 926.865C40.7104 926.893 40.7104 926.921 40.7104 927.297C40.7104 927.674 40.7104 928.397 40.7024 929.031C40.6945 929.665 40.6785 930.187 40.6621 930.725" stroke="#875CFF" stroke-width="2.5" stroke-linecap="round"/>
<path d="M40.7578 953.578C40.7578 953.592 40.7578 953.606 40.7578 954.195C40.7578 954.785 40.7578 955.949 40.8025 957.546" stroke="#875CFF" stroke-width="2.5" stroke-linecap="round"/>
<path d="M33.8945 1011.8C33.9445 1011.71 34.152 1011.37 34.401 1011.03C34.739 1010.57 35.1104 1010.44 35.4326 1010.17C35.7365 1009.91 36.0892 1009.76 36.4307 1009.6C36.7547 1009.45 37.1002 1009.34 37.4266 1009.22C38.1552 1008.94 37.5574 1007.1 37.8567 1006.3C38.0176 1005.86 39.5105 1006.11 40.1476 1006.11C41.9317 1006.11 42.3644 1006.11 42.7096 1006.11C43.0192 1006.11 43.3288 1006.17 43.3288 1006.38C43.3288 1007.08 43.3236 1007.43 43.3236 1007.85C43.3236 1008.42 43.3437 1008.94 43.4011 1009.18C43.5121 1009.65 44.4068 1009.85 44.7735 1010.03C45.1192 1010.19 45.4959 1010.34 45.7688 1010.55C46.1564 1010.86 46.3528 1010.95 46.6044 1011.18C46.6682 1011.23 46.7489 1011.27 46.8875 1011.25C47.5615 1011.16 47.9449 1010.89 48.7757 1010.53C49.0414 1010.42 49.2034 1010.34 49.3653 1010.31C49.7038 1010.24 50.0216 1010.76 50.2868 1011.09C50.5126 1011.37 50.7009 1011.66 50.9562 1012.07C51.171 1012.41 51.3945 1012.69 51.6388 1013.16C51.822 1013.51 51.922 1013.86 51.9933 1014.18C52.0711 1014.54 51.4497 1014.66 51.1632 1014.88C50.8666 1015.1 50.5969 1015.33 50.241 1015.57C49.7342 1015.92 49.4931 1016.03 49.3949 1016.19C49.1455 1016.59 49.4209 1017.03 49.4299 1018.79C49.4333 1019.45 49.3142 1019.8 49.4253 1020.12C49.5469 1020.47 50.0079 1020.59 50.3176 1020.81C50.6388 1021.04 50.912 1021.32 51.1884 1021.53C51.3266 1021.64 51.4565 1021.75 51.5307 1021.9C51.713 1022.26 51.1653 1023.01 50.9045 1023.46C50.699 1023.82 50.4665 1024.11 50.2837 1024.41C50.1044 1024.71 49.9416 1025.03 49.7586 1025.34C49.7135 1025.42 49.6597 1025.49 49.5584 1025.53C49.1058 1025.71 48.7545 1025.38 48.4472 1025.23C48.1348 1025.07 47.8315 1024.89 47.4989 1024.72C47.1842 1024.57 46.9368 1024.48 46.7623 1024.46C46.3168 1024.41 46.0827 1024.89 45.7857 1025.09C45.5006 1025.29 45.2326 1025.54 44.9251 1025.74C44.6157 1025.95 44.2909 1026.07 43.9306 1026.22C43.8388 1026.26 43.752 1026.3 43.669 1026.35C43.5859 1026.39 43.5092 1026.43 43.2295 1026.59" stroke="#875CFF" stroke-width="2.5" stroke-linecap="round"/>
<path d="M43.1907 1026.59C43.1907 1027.44 43.1472 1029.24 43.0445 1029.57C43.0182 1029.66 43.0078 1029.75 42.9687 1029.82C42.8913 1029.97 41.2876 1030.01 38.9344 1030.01C38.095 1030.02 37.9761 1030.02 37.8902 1029.99C37.5665 1029.87 37.6486 1029.26 37.6273 1028.89C37.5951 1028.34 37.6271 1027.57 37.5939 1027.15C37.5567 1026.68 36.8057 1026.82 36.4874 1026.6C36.1429 1026.36 35.8446 1026.16 35.5489 1025.94C35.2647 1025.73 35.0151 1025.44 34.8155 1025.15C34.7175 1025 34.603 1024.87 34.4694 1024.81C34.1769 1024.68 33.89 1025.16 33.5712 1025.31C33.2449 1025.46 32.878 1025.61 32.5251 1025.8C32.204 1025.98 31.852 1026.08 31.5331 1026.21C31.4568 1026.24 31.3665 1026.18 31.3037 1026.11C31.0374 1025.83 30.8856 1025.46 30.6744 1025.14C30.4466 1024.79 30.2318 1024.5 30.0719 1024.16C29.8877 1023.78 29.6994 1023.48 29.5098 1023.16C29.3237 1022.84 29.2111 1022.5 29.0628 1022.19C29.0246 1022.1 28.9612 1021.99 29.0319 1021.95C29.444 1021.71 29.6507 1021.5 30.0823 1021.2C30.3739 1020.99 30.6614 1020.74 30.9813 1020.56C31.059 1020.52 31.1377 1020.48 31.213 1020.43C31.2884 1020.39 31.3582 1020.33 31.4938 1020.23" stroke="#875CFF" stroke-width="2.5" stroke-linecap="round"/>
<path d="M31.7641 1020.23C31.7339 1020.12 31.6438 1019.75 31.5605 1019.41C31.4756 1019.07 31.4262 1018.69 31.3483 1016.62C31.3327 1016.2 31.2092 1016.19 31.1262 1016.15C30.755 1016 30.4121 1015.69 30.0813 1015.5C29.7414 1015.3 29.554 1015.17 29.1865 1014.88C28.751 1014.52 29.1786 1014.1 29.4518 1013.6C29.6853 1013.17 30.0108 1012.64 30.1822 1012.21C30.3352 1011.83 30.625 1011.4 30.8465 1010.98C31.0143 1010.67 31.266 1010.42 31.5242 1010.24C31.821 1010.04 32.1831 1010.6 32.5161 1010.81C32.8583 1011.02 33.1532 1011.26 33.4377 1011.48C33.5088 1011.52 33.5795 1011.57 33.6525 1011.61C33.7255 1011.65 33.7986 1011.69 33.8934 1011.76" stroke="#875CFF" stroke-width="2.5" stroke-linecap="round"/>
<path d="M38.7173 1014.94C39.0273 1014.77 39.9978 1014.6 40.2502 1014.6C40.4643 1014.61 40.6721 1014.62 40.8201 1014.64C40.968 1014.65 41.5914 1014.81 41.6745 1014.85C41.9984 1015.01 42.086 1015.08 42.3883 1015.26C42.6996 1015.46 42.7526 1015.58 43.0285 1015.95C43.3008 1016.32 43.5549 1016.77 43.6012 1017.17C43.6929 1017.97 43.7256 1019.06 43.598 1019.44C43.4788 1019.79 43.3409 1020.23 43.0894 1020.55C42.8477 1020.86 42.5797 1021.21 42.2448 1021.43C41.8705 1021.68 41.3686 1021.87 40.6774 1021.93C40.2307 1021.97 39.7855 1021.87 39.4311 1021.77C39.1006 1021.67 38.7784 1021.59 38.4114 1021.33C38.0757 1021.09 37.7373 1020.76 37.5956 1020.55C37.3792 1020.23 37.0684 1019.33 37.0763 1018.72C37.0939 1017.39 37.1527 1017.01 37.2772 1016.64C37.4058 1016.26 37.5531 1015.9 37.7965 1015.62C38.0505 1015.32 38.3962 1015.12 38.7173 1014.94Z" stroke="#875CFF" stroke-width="2.5" stroke-linecap="round"/>
<path d="M39.3563 230.419C39.1065 230.422 38.4157 230.493 37.9502 230.644C37.4951 230.791 37.0076 230.896 36.5216 231.093C36.0532 231.283 35.5682 231.406 35.1407 231.6C34.6649 231.817 34.0982 232.105 33.6953 232.417C33.3057 232.719 32.8543 232.983 32.4797 233.251C32.0852 233.533 31.7119 233.928 31.3834 234.318C31.0237 234.746 30.7429 235.163 30.378 235.746C30.0096 236.334 29.6275 237.117 29.3238 237.701C29.0748 238.18 28.9161 238.729 28.7627 239.276C28.6287 239.754 28.5906 240.294 28.51 240.82C28.4149 241.44 28.4205 243.265 28.4955 244.295C28.5362 244.854 28.8075 245.283 28.9587 245.796C29.1063 246.296 29.2825 246.746 29.4613 247.234C29.7323 247.974 30.1633 248.633 30.4889 249.15C30.7489 249.563 31.0836 249.914 31.5808 250.387C32.224 251 32.6332 251.277 33.0767 251.571C33.4652 251.829 34.0557 252.139 35.0831 252.649C35.9281 253.068 36.4382 253.115 36.9091 253.227C37.3885 253.341 38.0535 253.341 40.8488 253.329C41.7629 253.325 42.2401 253.068 42.7388 252.884C43.3553 252.656 44.658 252.025 45.3529 251.626C45.7963 251.371 46.1773 251.103 46.5566 250.792C46.9667 250.456 47.3207 250.166 47.7064 249.832C48.1041 249.488 48.4473 249.023 48.7377 248.632C49.0593 248.199 49.396 247.439 49.6198 246.83C49.7905 246.365 49.8885 245.898 50.009 245.442C50.1314 244.98 50.2378 244.486 50.3242 244.019C50.4081 243.564 50.4688 243.086 50.5549 242.606C50.753 241.503 50.553 239.743 50.4151 239.233C50.2543 238.639 50.1232 238.146 49.9466 237.664C49.7475 237.121 49.5745 236.641 49.3432 236.195C49.1306 235.786 48.8607 235.397 48.566 234.981C48.281 234.58 47.9533 234.191 47.6521 233.819" stroke="#875CFF" stroke-width="2.5" stroke-linecap="round"/>
<path d="M47.8496 250.016C47.9443 250.104 48.2366 250.45 48.5663 250.781C48.9466 251.163 49.392 251.554 49.7694 251.925C50.1081 252.257 50.4896 252.608 51.1236 253.263C51.5957 253.75 52.1767 254.313 52.7299 254.828C53.6045 255.677 54.1811 256.222 54.5519 256.514C54.6466 256.583 54.7389 256.645 55.0012 256.846" stroke="#875CFF" stroke-width="2.5" stroke-linecap="round"/>
</g>
<defs>
<clipPath id="clip0_4056_1027">
<rect width="1920" height="1080" fill="white"/>
</clipPath>
</defs>
</svg>
